<svg width="230" height="293" viewBox="0 0 230 293" fill="none" xmlns="http://www.w3.org/2000/svg">
<g filter="url(#filter0_d)">
<rect y="3.5" width="225" height="286" rx="20" fill="#F7F7F7"/>
</g>
<path d="M148.826 91.6573C148.018 83.5294 144.387 75.8668 138.601 70.0809C133.657 65.1366 127.605 61.9593 121.237 60.5465V56.0802C123.838 55.4331 125.771 53.0789 125.771 50.2806C125.771 46.985 123.09 44.3039 119.795 44.3039H107.138C103.843 44.3039 101.162 46.985 101.162 50.2806C101.162 53.0787 103.095 55.433 105.696 56.0802V60.559C99.3472 61.9777 93.3153 65.1506 88.3849 70.081C87.306 71.16 86.311 72.2919 85.4003 73.4682C85.3562 73.4649 85.312 73.4615 85.267 73.4615H72.7405C71.7698 73.4615 70.9827 74.2485 70.9827 75.2194C70.9827 76.1902 71.7698 76.9772 72.7405 76.9772H83.0084C81.7196 79.135 80.6803 81.401 79.8893 83.7337H60.7578C59.7872 83.7337 59 84.5206 59 85.4915C59 86.4623 59.7872 87.2493 60.7578 87.2493H78.8959C78.3893 89.4732 78.0986 91.7364 78.0235 94.0059H70.2502C69.2795 94.0059 68.4923 94.7929 68.4923 95.7638C68.4923 96.7346 69.2795 97.5216 70.2502 97.5216H78.0796C78.228 99.797 78.5938 102.06 79.1772 104.278H67.7892C66.8185 104.278 66.0314 105.065 66.0314 106.036C66.0314 107.007 66.8185 107.794 67.7892 107.794H80.299C82.0235 112.356 84.7184 116.631 88.3849 120.298C94.1763 126.089 101.847 129.721 109.983 130.525C111.144 130.64 112.306 130.696 113.467 130.696C120.326 130.696 127.099 128.711 132.845 124.969C133.659 124.439 133.889 123.35 133.359 122.537C132.829 121.723 131.74 121.493 130.927 122.023C118.348 130.214 101.502 128.443 90.8709 117.812C78.3969 105.338 78.3969 85.0413 90.8709 72.5672C103.345 60.0933 123.641 60.0933 136.115 72.5672C146.733 83.1845 148.513 100.016 140.349 112.588C139.821 113.403 140.052 114.491 140.866 115.02C141.681 115.549 142.769 115.317 143.298 114.503C147.66 107.785 149.623 99.6722 148.826 91.6573ZM104.677 50.2807C104.677 48.9237 105.781 47.8197 107.138 47.8197H119.795C121.152 47.8197 122.256 48.9237 122.256 50.2807C122.256 51.6378 121.152 52.7417 119.795 52.7417H119.479H107.453H107.138C105.781 52.7417 104.677 51.6376 104.677 50.2807ZM109.211 59.9546V56.2574H117.722V59.9483C114.896 59.6122 112.037 59.6143 109.211 59.9546Z" fill="#00AE00"/>
<path d="M137.359 117.296C136.895 117.296 136.443 117.484 136.117 117.811C135.788 118.138 135.601 118.592 135.601 119.054C135.601 119.516 135.788 119.97 136.117 120.297C136.443 120.625 136.895 120.812 137.359 120.812C137.821 120.812 138.273 120.625 138.602 120.297C138.929 119.97 139.117 119.516 139.117 119.054C139.117 118.592 138.929 118.138 138.602 117.811C138.273 117.484 137.821 117.296 137.359 117.296Z" fill="#00AE00"/>
<path d="M113.493 67.92C98.457 67.92 86.224 80.1528 86.224 95.1892C86.224 110.226 98.457 122.458 113.493 122.458C128.529 122.458 140.762 110.226 140.762 95.1892C140.762 80.1528 128.529 67.92 113.493 67.92ZM113.493 118.943C100.395 118.943 89.7397 108.287 89.7397 95.1892C89.7397 82.0915 100.395 71.4357 113.493 71.4357C126.591 71.4357 137.247 82.0915 137.247 95.1892C137.247 108.287 126.591 118.943 113.493 118.943Z" fill="#00AE00"/>
<path d="M124.613 81.5839L115.906 90.2903C115.178 89.9303 114.359 89.7269 113.493 89.7269C112.627 89.7269 111.809 89.9303 111.08 90.2903L107.184 86.3937C106.497 85.7072 105.384 85.7072 104.698 86.3937C104.011 87.0801 104.011 88.1932 104.698 88.8796L108.594 92.7762C108.234 93.5043 108.031 94.3233 108.031 95.189C108.031 98.2009 110.481 100.651 113.493 100.651C116.505 100.651 118.956 98.2009 118.956 95.189C118.956 94.3233 118.752 93.5043 118.392 92.7762L126.843 84.3252L127.099 84.0698C127.785 83.3834 127.785 82.2703 127.099 81.5839C126.412 80.8974 125.299 80.8974 124.613 81.5839ZM113.493 97.1358C112.42 97.1358 111.547 96.2625 111.547 95.1892C111.547 94.1159 112.42 93.2426 113.493 93.2426C114.567 93.2426 115.44 94.1159 115.44 95.1892C115.44 96.2625 114.567 97.1358 113.493 97.1358Z" fill="#00AE00"/>
<path d="M132.288 93.4528H130.659C129.689 93.4528 128.901 94.2397 128.901 95.2106C128.901 96.1814 129.689 96.9684 130.659 96.9684H132.288C133.258 96.9684 134.046 96.1814 134.046 95.2106C134.046 94.2397 133.258 93.4528 132.288 93.4528Z" fill="#00AE00"/>
<path d="M96.327 93.4099H94.6985C93.7279 93.4099 92.9407 94.1969 92.9407 95.1677C92.9407 96.1386 93.7279 96.9255 94.6985 96.9255H96.327C97.2976 96.9255 98.0848 96.1386 98.0848 95.1677C98.0848 94.1969 97.2976 93.4099 96.327 93.4099Z" fill="#00AE00"/>
<path d="M113.515 79.7808C114.485 79.7808 115.272 78.9938 115.272 78.023V76.3945C115.272 75.4237 114.485 74.6367 113.515 74.6367C112.544 74.6367 111.757 75.4237 111.757 76.3945V78.023C111.757 78.9938 112.544 79.7808 113.515 79.7808Z" fill="#00AE00"/>
<path d="M113.472 110.598C112.501 110.598 111.714 111.385 111.714 112.355V113.984C111.714 114.955 112.501 115.742 113.472 115.742C114.442 115.742 115.23 114.955 115.23 113.984V112.355C115.23 111.385 114.442 110.598 113.472 110.598Z" fill="#00AE00"/>
<path d="M60.7578 104.278C60.2955 104.278 59.842 104.466 59.515 104.793C59.1881 105.12 59 105.573 59 106.035C59 106.499 59.1879 106.951 59.515 107.278C59.8422 107.605 60.2955 107.793 60.7578 107.793C61.2201 107.793 61.6736 107.605 62.0004 107.278C62.3274 106.951 62.5156 106.498 62.5156 106.035C62.5156 105.573 62.3275 105.12 62.0004 104.793C61.6736 104.466 61.2201 104.278 60.7578 104.278Z" fill="#00AE00"/>
<defs>
<filter id="filter0_d" x="-5" y="-0.5" width="235" height="296" filterUnits="userSpaceOnUse" color-interpolation-filters="sRGB">
<feFlood flood-opacity="0" result="BackgroundImageFix"/>
<feColorMatrix in="SourceAlpha" type="matrix" values="0 0 0 0 0 0 0 0 0 0 0 0 0 0 0 0 0 0 127 0"/>
<feOffset dy="1"/>
<feGaussianBlur stdDeviation="2.5"/>
<feColorMatrix type="matrix" values="0 0 0 0 0 0 0 0 0 0 0 0 0 0 0 0 0 0 0.08 0"/>
<feBlend mode="normal" in2="BackgroundImageFix" result="effect1_dropShadow"/>
<feBlend mode="normal" in="SourceGraphic" in2="effect1_dropShadow" result="shape"/>
</filter>
</defs>
</svg>
