<svg width="235" height="293" viewBox="0 0 235 293" fill="none" xmlns="http://www.w3.org/2000/svg">
<g filter="url(#filter0_d)">
<rect x="5" y="3.5" width="225" height="286" rx="20" fill="#F7F7F7"/>
</g>
<path d="M147 42.5C138.729 42.5 132 49.0048 132 56.9999C132 63.9351 142.629 77.9715 145.12 81.1662C145.119 82.1981 145.12 83.2113 145.094 84.1413C145.067 85.1413 145.883 85.9751 146.92 86.0016C146.936 86.0016 146.953 86.0016 146.971 86.0016C147.982 86.0016 148.817 85.221 148.844 84.237C148.87 83.2827 148.869 82.2411 148.87 81.1798C151.344 78.007 162 63.9432 162 56.9999C162 49.0048 155.271 42.5 147 42.5ZM147 77.5286C142.878 72.047 135.75 61.6145 135.75 56.9999C135.75 51.003 140.796 46.1249 147 46.1249C153.204 46.1249 158.25 51.003 158.25 56.9999C158.25 61.6145 151.122 72.0468 147 77.5286Z" fill="#00AE00"/>
<path d="M147 53.375C144.933 53.375 143.25 55.0017 143.25 56.9999C143.25 58.9982 144.933 60.6249 147 60.6249C149.067 60.6249 150.75 58.9984 150.75 56.9999C150.75 55.0017 149.067 53.375 147 53.375Z" fill="#00AE00"/>
<path d="M94.5 82.375C88.2963 82.375 83.25 87.2531 83.25 93.25C83.25 99.2468 88.2963 104.125 94.5 104.125C100.704 104.125 105.75 99.2468 105.75 93.25C105.75 87.2531 100.704 82.375 94.5 82.375ZM94.5 100.5C90.3637 100.5 86.9999 97.2484 86.9999 93.2498C86.9999 89.2512 90.3637 85.9999 94.5 85.9999C98.6363 85.9999 102 89.2514 102 93.25C102 97.2486 98.6363 100.5 94.5 100.5Z" fill="#00AE00"/>
<path d="M122.901 107.824C121.931 107.46 120.851 107.925 120.475 108.86C119.635 110.959 118.584 113.407 117.167 115.65C116.626 116.504 116.907 117.62 117.789 118.142C118.095 118.322 118.432 118.407 118.765 118.407C119.397 118.407 120.014 118.099 120.367 117.54C121.939 115.051 123.072 112.418 123.973 110.17C124.346 109.237 123.867 108.187 122.901 107.824Z" fill="#00AE00"/>
<path d="M112.329 121.052C110.45 122.491 108.315 123.574 105.799 124.365C104.814 124.675 104.276 125.698 104.596 126.65C104.855 127.415 105.589 127.902 106.38 127.902C106.572 127.902 106.768 127.873 106.96 127.813C109.866 126.9 112.455 125.581 114.658 123.894C115.469 123.271 115.607 122.131 114.964 121.347C114.316 120.565 113.138 120.425 112.329 121.052Z" fill="#00AE00"/>
<path d="M129.393 94.7384C126.298 96.436 124.579 99.3829 123.553 101.45C123.105 102.353 123.498 103.436 124.432 103.868C124.694 103.99 124.971 104.047 125.242 104.047C125.941 104.047 126.611 103.668 126.933 103.019C128.235 100.394 129.565 98.813 131.245 97.889C132.145 97.3952 132.461 96.2888 131.949 95.418C131.44 94.5473 130.299 94.2411 129.393 94.7384Z" fill="#00AE00"/>
<path d="M146.304 90.2516C145.453 89.6941 144.283 89.9082 143.7 90.7365C143.083 91.6181 141.82 92.8305 137.998 93.1615C136.967 93.2517 136.206 94.1314 136.299 95.1297C136.387 96.0714 137.205 96.7793 138.165 96.7793C138.222 96.7793 138.278 96.7776 138.335 96.7721C142.395 96.4199 145.165 95.1101 146.806 92.7683C147.386 91.9401 147.161 90.8126 146.304 90.2516Z" fill="#00AE00"/>
<path d="M98.9429 125.898C104.859 119.8 117 105.769 117 93.25C117 81.0545 107.116 71.5 94.5 71.5C81.884 71.5 72 81.0545 72 93.25C72 109.437 92.3467 128.213 93.2128 129.004C93.5735 129.335 94.0368 129.5 94.5 129.5C95.866 129.5 97.1641 129.454 98.3946 129.364C99.4273 129.288 100.202 128.418 100.123 127.42C100.067 126.706 99.5885 126.148 98.9429 125.898ZM94.5 125.131C90.0707 120.763 75.7499 105.675 75.7499 93.25C75.7499 83.0864 83.9862 75.1249 94.5 75.1249C105.014 75.1249 113.25 83.0864 113.25 93.25C113.25 105.675 98.9293 120.763 94.5 125.131Z" fill="#00AE00"/>
<defs>
<filter id="filter0_d" x="0" y="-0.5" width="235" height="296" filterUnits="userSpaceOnUse" color-interpolation-filters="sRGB">
<feFlood flood-opacity="0" result="BackgroundImageFix"/>
<feColorMatrix in="SourceAlpha" type="matrix" values="0 0 0 0 0 0 0 0 0 0 0 0 0 0 0 0 0 0 127 0"/>
<feOffset dy="1"/>
<feGaussianBlur stdDeviation="2.5"/>
<feColorMatrix type="matrix" values="0 0 0 0 0 0 0 0 0 0 0 0 0 0 0 0 0 0 0.08 0"/>
<feBlend mode="normal" in2="BackgroundImageFix" result="effect1_dropShadow"/>
<feBlend mode="normal" in="SourceGraphic" in2="effect1_dropShadow" result="shape"/>
</filter>
</defs>
</svg>
