<svg width="235" height="293" viewBox="0 0 235 293" fill="none" xmlns="http://www.w3.org/2000/svg">
<g filter="url(#filter0_d)">
<rect x="5" y="3.5" width="225" height="286" rx="20" fill="#F7F7F7"/>
</g>
<path d="M151.625 58.4999H80.3749C75.2075 58.4999 71 62.7074 71 67.8751V109.125C71 114.293 75.2075 118.5 80.3749 118.5H151.625C156.792 118.5 161 114.293 161 109.125V67.8751C161 62.7074 156.792 58.4999 151.625 58.4999ZM157.25 109.125C157.25 112.226 154.726 114.75 151.625 114.75H80.3749C77.2736 114.75 74.7499 112.226 74.7499 109.125V67.8751C74.7499 64.7737 77.2736 62.2501 80.3749 62.2501H151.625C154.726 62.2501 157.25 64.7737 157.25 67.8751V109.125H157.25Z" fill="#00AE00"/>
<path d="M159.125 69.7499H72.8751C71.8401 69.7499 71 70.59 71 71.625V82.875C71 83.91 71.8401 84.7501 72.8751 84.7501H159.125C160.16 84.7501 161 83.91 161 82.875V71.625C161 70.59 160.16 69.7499 159.125 69.7499ZM157.25 80.9999H74.7499V73.4999H157.25V80.9999H157.25Z" fill="#00AE00"/>
<path d="M106.625 96.0001H84.1251C83.0901 96.0001 82.25 96.8401 82.25 97.8751C82.25 98.9101 83.0901 99.75 84.1251 99.75H106.625C107.66 99.75 108.5 98.9099 108.5 97.8749C108.5 96.8399 107.66 96.0001 106.625 96.0001Z" fill="#00AE00"/>
<path d="M106.625 103.5H84.1251C83.0901 103.5 82.25 104.34 82.25 105.375C82.25 106.41 83.0901 107.25 84.1251 107.25H106.625C107.66 107.25 108.5 106.41 108.5 105.375C108.5 104.34 107.66 103.5 106.625 103.5Z" fill="#00AE00"/>
<path d="M144.125 92.2499H140.375C137.274 92.2499 134.75 94.7736 134.75 97.8749V101.625C134.75 104.726 137.274 107.25 140.375 107.25H144.125C147.226 107.25 149.75 104.726 149.75 101.625V97.8749C149.75 94.7738 147.226 92.2499 144.125 92.2499ZM146 101.625C146 102.66 145.16 103.5 144.125 103.5H140.375C139.34 103.5 138.5 102.66 138.5 101.625V97.8751C138.5 96.8401 139.34 96.0001 140.375 96.0001H144.125C145.16 96.0001 146 96.8401 146 97.8751V101.625Z" fill="#00AE00"/>
<defs>
<filter id="filter0_d" x="0" y="-0.5" width="235" height="296" filterUnits="userSpaceOnUse" color-interpolation-filters="sRGB">
<feFlood flood-opacity="0" result="BackgroundImageFix"/>
<feColorMatrix in="SourceAlpha" type="matrix" values="0 0 0 0 0 0 0 0 0 0 0 0 0 0 0 0 0 0 127 0"/>
<feOffset dy="1"/>
<feGaussianBlur stdDeviation="2.5"/>
<feColorMatrix type="matrix" values="0 0 0 0 0 0 0 0 0 0 0 0 0 0 0 0 0 0 0.08 0"/>
<feBlend mode="normal" in2="BackgroundImageFix" result="effect1_dropShadow"/>
<feBlend mode="normal" in="SourceGraphic" in2="effect1_dropShadow" result="shape"/>
</filter>
</defs>
</svg>
