<svg width="230" height="293" viewBox="0 0 230 293" fill="none" xmlns="http://www.w3.org/2000/svg">
<g filter="url(#filter0_d)">
<rect x="5" y="3.5" width="225" height="286" rx="20" fill="#F7F7F7"/>
</g>
<path d="M160.5 96.2499C161.328 96.2499 162 95.5782 162 94.7499V82.7499C162 81.9215 161.328 81.2499 160.5 81.2499H141.621L151.061 71.8104C151.646 71.2246 151.646 70.2751 151.061 69.6894L142.865 61.4934C142.279 60.9078 141.329 60.9078 140.743 61.4934C138.4 63.8369 134.6 63.8369 132.257 61.4934C129.913 59.1498 129.913 55.3499 132.257 53.0064C132.842 52.4206 132.842 51.4711 132.257 50.8854L125.561 44.1894C124.975 43.6038 124.025 43.6038 123.439 44.1894L86.379 81.2499H73.5C72.6716 81.2499 72 81.9215 72 82.7499V94.7499C72 95.5782 72.6716 96.2499 73.5 96.2499C76.8137 96.2499 79.5 98.9362 79.5 102.25C79.5 105.564 76.8137 108.25 73.5 108.25C72.6716 108.25 72 108.921 72 109.75V121.75C72 122.578 72.6716 123.25 73.5 123.25H160.5C161.328 123.25 162 122.578 162 121.75V109.75C162 108.921 161.328 108.25 160.5 108.25C157.186 108.25 154.5 105.564 154.5 102.25C154.5 98.9362 157.186 96.2499 160.5 96.2499ZM124.5 47.3709L129.162 52.0329C126.272 56.0772 127.209 61.6983 131.253 64.5879C134.383 66.824 138.587 66.824 141.717 64.5879L147.879 70.7499L137.379 81.2499H132.621L136.061 77.8104C136.646 77.2246 136.646 76.2751 136.061 75.6894L119.561 59.1894C118.975 58.6038 118.025 58.6038 117.439 59.1894L95.379 81.2499H90.621L124.5 47.3709ZM128.379 81.2499H99.621L118.5 62.3709L132.879 76.7499L128.379 81.2499ZM151.616 103.742C152.252 107.525 155.217 110.489 159 111.125V120.25H147V114.25H144V120.25H90V118.75H87V120.25H75V111.125C79.9018 110.301 83.2076 105.66 82.3837 100.758C81.7478 96.9747 78.7836 94.0104 75 93.3744V84.2499H87V88.7499H90V84.2499H159V93.3744C154.098 94.1982 150.792 98.84 151.616 103.742Z" fill="#00AE00"/>
<path d="M147 87.2498H144V93.2498H147V87.2498Z" fill="#00AE00"/>
<path d="M147 96.2498H144V102.25H147V96.2498Z" fill="#00AE00"/>
<path d="M147 105.25H144V111.25H147V105.25Z" fill="#00AE00"/>
<path d="M90 91.7498H87V97.7498H90V91.7498Z" fill="#00AE00"/>
<path d="M90 100.75H87V106.75H90V100.75Z" fill="#00AE00"/>
<path d="M90 109.75H87V115.75H90V109.75Z" fill="#00AE00"/>
<path d="M138 91.7498C136.343 91.7498 135 90.4068 135 88.7498C135 87.9214 134.328 87.2498 133.5 87.2498H100.5C99.6716 87.2498 99 87.9214 99 88.7498C99 90.4068 97.6569 91.7498 96 91.7498C95.1716 91.7498 94.5 92.4214 94.5 93.2498V111.25C94.5 112.078 95.1716 112.75 96 112.75C97.6569 112.75 99 114.093 99 115.75C99 116.578 99.6716 117.25 100.5 117.25H133.5C134.328 117.25 135 116.578 135 115.75C135 114.093 136.343 112.75 138 112.75C138.828 112.75 139.5 112.078 139.5 111.25V93.2498C139.5 92.4214 138.828 91.7498 138 91.7498ZM136.5 109.939C134.388 110.489 132.739 112.138 132.189 114.25H101.811C101.261 112.138 99.6118 110.489 97.5 109.939V94.5608C99.6118 94.0107 101.261 92.3616 101.811 90.2498H132.189C132.739 92.3616 134.388 94.0107 136.5 94.5608V109.939Z" fill="#00AE00"/>
<defs>
<filter id="filter0_d" x="0" y="-0.5" width="235" height="296" filterUnits="userSpaceOnUse" color-interpolation-filters="sRGB">
<feFlood flood-opacity="0" result="BackgroundImageFix"/>
<feColorMatrix in="SourceAlpha" type="matrix" values="0 0 0 0 0 0 0 0 0 0 0 0 0 0 0 0 0 0 127 0"/>
<feOffset dy="1"/>
<feGaussianBlur stdDeviation="2.5"/>
<feColorMatrix type="matrix" values="0 0 0 0 0 0 0 0 0 0 0 0 0 0 0 0 0 0 0.08 0"/>
<feBlend mode="normal" in2="BackgroundImageFix" result="effect1_dropShadow"/>
<feBlend mode="normal" in="SourceGraphic" in2="effect1_dropShadow" result="shape"/>
</filter>
</defs>
</svg>
