<svg width="60" height="60" viewBox="0 0 60 60" fill="none" xmlns="http://www.w3.org/2000/svg">
<path d="M30 60C46.5685 60 60 46.5685 60 30C60 13.4315 46.5685 0 30 0C13.4315 0 0 13.4315 0 30C0 46.5685 13.4315 60 30 60Z" fill="#27ADE4"/>
<path d="M10.2366 24.6543L9.30017 22.3421L8.3693 24.6543H10.2366ZM30.8554 23.7334C30.6674 23.8495 30.4453 23.8533 30.179 23.8533H28.5173V22.5653H30.2013C30.4396 22.5653 30.6883 22.5753 30.8497 22.669C31.0269 22.7543 31.1364 22.9342 31.1364 23.1825C31.1369 23.4354 31.0322 23.6396 30.8554 23.7334ZM42.7061 24.6543L41.7601 22.3421L40.8194 24.6543H42.7061ZM20.6154 27.1568H19.2132L19.208 22.614L17.2251 27.1568H16.0243L14.0367 22.6102V27.1568H11.2551L10.7297 25.8631H7.88291L7.35183 27.1568H5.86683L8.31536 21.3568H10.3475L12.6729 26.8479V21.3568H14.9044L16.694 25.2913L18.3378 21.3568H20.6153V27.1568H20.6154ZM26.2027 27.1568H21.6344V21.3568H26.2028V22.5652H23.0025V23.6106H26.1261V24.7996H23.0025V25.9564H26.2028L26.2027 27.1568ZM32.6436 22.9195C32.6436 23.8432 32.0344 24.3221 31.6797 24.4648C31.9791 24.5809 32.2348 24.7846 32.3561 24.9541C32.5494 25.2416 32.583 25.4998 32.583 26.017V27.1568H31.2036L31.1984 26.4254C31.1984 26.0762 31.2311 25.5737 30.9824 25.2951C30.7825 25.0914 30.4784 25.0469 29.9857 25.0469H28.5173V27.1568H27.1498V21.3568H30.2956C30.9948 21.3568 31.5097 21.3753 31.9511 21.6344C32.3841 21.8945 32.6436 22.272 32.6436 22.9195ZM34.8321 27.1568H33.437V21.3573H34.8321V27.1568ZM51.019 27.1568H49.0807L46.4891 22.8034V27.1568H43.7036L43.1722 25.8631H40.3314L39.8147 27.1568H38.2145C37.5503 27.1568 36.7081 27.0075 36.2316 26.5149C35.7507 26.0227 35.5011 25.3558 35.5011 24.3008C35.5011 23.4415 35.6498 22.6538 36.2386 22.0337C36.6806 21.5705 37.3731 21.3568 38.3154 21.3568H39.6388V22.5994H38.3428C37.844 22.5994 37.5626 22.6747 37.2908 22.9433C37.0577 23.1882 36.8976 23.6496 36.8976 24.2574C36.8976 24.8784 37.0198 25.3265 37.2742 25.6189C37.4841 25.8486 37.8668 25.9183 38.2269 25.9183H38.8408L40.7682 21.3574H42.8175L45.1324 26.8433V21.3574H47.2149L49.6184 25.3962V21.3574H51.0191L51.019 27.1568ZM5.85113 28.296H8.18737L8.71415 27.0075H9.89316L10.4185 28.296H15.0158V27.3112L15.4265 28.2998H17.8125L18.2227 27.2965V28.296H29.6474L29.6417 26.1809H29.8629C30.0179 26.1866 30.0628 26.2013 30.0628 26.4605V28.296H35.9718V27.8038C36.4488 28.063 37.1902 28.296 38.166 28.296H40.6515L41.1835 27.0075H42.363L42.883 28.296H47.6731V27.0719L48.3988 28.296H52.2376V20.2072H48.438V21.1626L47.9066 20.2072H44.008V21.1626L43.5201 20.2072H38.2542C37.3736 20.2072 36.5987 20.3322 35.9724 20.6795V20.2072H32.3387V20.6795C31.9408 20.3213 31.3984 20.2072 30.7944 20.2072H17.5189L16.6283 22.2962L15.7136 20.2072H11.5317V21.1626L11.0722 20.2072H7.50678L5.85024 24.0531L3.95114 28.296H5.85113Z" fill="#2D78BC"/>
<path d="M10.2366 25.1278L9.30017 22.8156L8.3693 25.1278H10.2366ZM30.8554 24.2069C30.6674 24.323 30.4453 24.3268 30.179 24.3268H28.5173V23.0388H30.2013C30.4396 23.0388 30.6883 23.0488 30.8497 23.1425C31.0269 23.2278 31.1364 23.4077 31.1364 23.656C31.1369 23.909 31.0322 24.1132 30.8554 24.2069ZM42.7061 25.1278L41.7601 22.8156L40.8194 25.1278H42.7061ZM20.6154 27.6304H19.2132L19.208 23.0877L17.2251 27.6304H16.0243L14.0367 23.0839V27.6304H11.2551L10.7297 26.3367H7.88291L7.35183 27.6304H5.86683L8.31536 21.8304H10.3475L12.6729 27.3215V21.8304H14.9044L16.694 25.765L18.3378 21.8304H20.6153V27.6304H20.6154ZM26.2027 27.6304H21.6344V21.8304H26.2028V23.0388H23.0025V24.0843H26.1261V25.2733H23.0025V26.43H26.2028L26.2027 27.6304ZM32.6436 23.3932C32.6436 24.3168 32.0344 24.7957 31.6797 24.9384C31.9791 25.0545 32.2348 25.2582 32.3561 25.4277C32.5494 25.7152 32.583 25.9735 32.583 26.4906V27.6304H31.2036L31.1984 26.899C31.1984 26.5499 31.2311 26.0473 30.9824 25.7688C30.7825 25.5651 30.4784 25.5205 29.9857 25.5205H28.5173V27.6304H27.1498V21.8304H30.2956C30.9948 21.8304 31.5097 21.8489 31.9511 22.1081C32.3841 22.3681 32.6436 22.7456 32.6436 23.3932ZM34.8321 27.6304H33.437V21.8309H34.8321V27.6304ZM51.019 27.6304H49.0807L46.4891 23.2771V27.6304H43.7036L43.1722 26.3367H40.3314L39.8147 27.6304H38.2145C37.5503 27.6304 36.7081 27.4811 36.2316 26.9885C35.7507 26.4963 35.5011 25.8294 35.5011 24.7745C35.5011 23.9151 35.6498 23.1274 36.2386 22.5073C36.6806 22.0441 37.3731 21.8304 38.3154 21.8304H39.6388V23.073H38.3428C37.844 23.073 37.5626 23.1483 37.2908 23.417C37.0577 23.6618 36.8976 24.1232 36.8976 24.731C36.8976 25.352 37.0198 25.8002 37.2742 26.0925C37.4841 26.3223 37.8668 26.3919 38.2269 26.3919H38.8408L40.7682 21.8311H42.8175L45.1324 27.3169V21.8311H47.2149L49.6184 25.8698V21.8311H51.0191L51.019 27.6304ZM5.85113 28.7697H8.18737L8.71415 27.4811H9.89316L10.4185 28.7697H15.0158V27.7849L15.4265 28.7735H17.8125L18.2227 27.7702V28.7697H29.6474L29.6417 26.6546H29.8629C30.0179 26.6603 30.0628 26.675 30.0628 26.9341V28.7697H35.9718V28.2774C36.4488 28.5366 37.1902 28.7697 38.166 28.7697H40.6515L41.1835 27.4811H42.363L42.883 28.7697H47.6731V27.5456L48.3988 28.7697H52.2376V20.6808H48.438V21.6362L47.9066 20.6808H44.008V21.6362L43.5201 20.6808H38.2542C37.3736 20.6808 36.5987 20.8059 35.9724 21.1531V20.6808H32.3387V21.1531C31.9408 20.795 31.3984 20.6808 30.7944 20.6808H17.5189L16.6283 22.7698L15.7136 20.6808H11.5317V21.6362L11.0722 20.6808H7.50678L5.85024 24.5267L3.95114 28.7697H5.85113Z" fill="white"/>
<path d="M55.3055 33.7649V30.054H54.359H51.8797C51.1157 30.054 50.56 30.2392 50.1674 30.5267V30.054H46.4223C45.8235 30.054 45.1202 30.2036 44.7886 30.5267V30.054H38.0998V30.5267C37.5678 30.1383 36.6692 30.054 36.2552 30.054H31.8437V30.5267C31.4226 30.1141 30.4865 30.054 29.9157 30.054H24.9788L23.849 31.2917L22.7908 30.054H15.4158V38.1419H22.6515L23.8158 36.8847L24.9119 38.1419L29.3727 38.1466V36.2434H29.8109C30.4025 36.2528 31.1003 36.2287 31.7161 35.9591V38.1414H35.3953V36.0329H35.5734C35.7999 36.0329 35.8216 36.0429 35.8216 36.2717V38.1414H46.9972C47.7073 38.1414 48.4492 37.9571 48.8602 37.6242V38.1414H52.4045C53.1426 38.1414 53.863 38.0367 54.4111 37.7686V37.7601C55.2117 37.2437 55.744 36.3391 55.744 35.3064C55.745 34.7397 55.5831 34.2116 55.3055 33.7649ZM29.872 35.059H28.1649V37.0036H25.5059L23.821 35.0841L22.0707 37.0036H16.6511V31.2065H22.1541L23.8371 33.1065L25.5774 31.2065H29.9493C31.0345 31.2065 32.2542 31.5111 32.2542 33.116C32.2542 34.727 31.0676 35.059 29.872 35.059ZM38.1055 34.7962C38.2988 35.079 38.3266 35.3429 38.3323 35.8544V37.0037H36.9595V36.2784C36.9595 35.9298 36.9922 35.4135 36.7378 35.1435C36.5374 34.936 36.2338 34.8857 35.734 34.8857H34.2717V37.0036H32.8975V31.2065H36.0561C36.7486 31.2065 37.2527 31.2373 37.7023 31.4803C38.1343 31.7442 38.4058 32.1056 38.4058 32.7673C38.4058 33.6925 37.7961 34.1652 37.4362 34.3097C37.7392 34.4234 37.9889 34.6271 38.1055 34.7962ZM43.7297 32.4059H40.5257V33.4598H43.6516V34.6426H40.5257V35.7961L43.7297 35.8018V37.0045H39.1637V31.2065H43.7297V32.4059ZM47.2137 37.0041H44.5492V35.7606H47.2038C47.4634 35.7606 47.6472 35.7266 47.7628 35.6167C47.8561 35.5277 47.9243 35.3969 47.9243 35.2397C47.9243 35.0705 47.8514 34.9361 47.7571 34.8555C47.6519 34.7665 47.5084 34.7271 47.2701 34.7271C45.9905 34.6835 44.388 34.7668 44.388 32.9322C44.388 32.0913 44.91 31.2065 46.344 31.2065H49.0872V32.4405H46.5776C46.3289 32.4405 46.1669 32.45 46.029 32.5447C45.8798 32.639 45.8234 32.7777 45.8234 32.9624C45.8234 33.1808 45.9513 33.3296 46.1228 33.3945C46.2678 33.4448 46.4222 33.4595 46.6553 33.4595L47.3923 33.4807C48.1346 33.4982 48.6448 33.629 48.9546 33.9463C49.2213 34.2249 49.3633 34.5773 49.3633 35.1737C49.363 36.4215 48.5941 37.0041 47.2137 37.0041ZM54.2554 36.4441C53.8949 36.8132 53.3136 37.0041 52.5553 37.0041H49.9129V35.7606H52.5443C52.8057 35.7606 52.9886 35.7266 53.0985 35.6167C53.1937 35.5277 53.2601 35.3969 53.2601 35.2397C53.2601 35.0705 53.1937 34.9361 53.0928 34.8555C52.9938 34.7665 52.8494 34.7271 52.6106 34.7271C51.3259 34.6835 49.7234 34.7668 49.7234 32.9322C49.7234 32.0913 50.2502 31.2065 51.6864 31.2065H54.3596V32.4401H51.9186C51.6704 32.4401 51.5046 32.4501 51.3649 32.5448C51.2204 32.6386 51.165 32.7778 51.165 32.9617C51.165 33.1809 51.2868 33.3288 51.4644 33.3937C51.6093 33.4449 51.7638 33.4596 51.9912 33.4596L52.7325 33.48C53.481 33.4984 53.9808 33.6287 54.2844 33.9466C54.3398 33.9907 54.3734 34.0404 54.4122 34.0897C54.3967 34.0693 54.3815 34.0499 54.3654 34.0295C54.6022 34.3469 54.7448 34.7415 54.7448 35.1702C54.7447 35.6616 54.5576 36.1074 54.2554 36.4441ZM21.444 32.4059L22.9409 34.0951L21.3777 35.7957H18.0134V34.6423H21.0172V33.4595H18.0134V32.4059H21.444ZM24.7021 34.115L26.803 31.8294V36.4768L24.7021 34.115ZM30.7863 33.1164C30.7863 33.619 30.4589 33.8819 29.9332 33.8819H28.1654V32.4059H29.9498C30.4429 32.4059 30.7863 32.6091 30.7863 33.1164ZM36.8923 33.0321C36.8923 33.2798 36.7862 33.4797 36.6086 33.5882C36.4258 33.6981 36.1993 33.7076 35.9336 33.7076H34.2708V32.4059H35.9553C36.1993 32.4059 36.4432 32.4111 36.6086 32.5106C36.7867 32.6039 36.8923 32.7834 36.8923 33.0321Z" fill="#2D78BC"/>
<path d="M55.3055 34.2387V30.5277H54.359H51.8797C51.1157 30.5277 50.56 30.7129 50.1674 31.0004V30.5277H46.4223C45.8235 30.5277 45.1202 30.6773 44.7886 31.0004V30.5277H38.0998V31.0004C37.5678 30.612 36.6692 30.5277 36.2552 30.5277H31.8437V31.0004C31.4226 30.5878 30.4865 30.5277 29.9157 30.5277H24.9788L23.849 31.7655L22.7908 30.5277H15.4158V38.6157H22.6515L23.8158 37.3585L24.9119 38.6157L29.3727 38.6204V36.7171H29.8109C30.4025 36.7266 31.1003 36.7024 31.7161 36.4329V38.6152H35.3953V36.5067H35.5734C35.7999 36.5067 35.8216 36.5167 35.8216 36.7455V38.6152H46.9972C47.7073 38.6152 48.4492 38.4309 48.8602 38.0979V38.6152H52.4045C53.1426 38.6152 53.863 38.5105 54.4111 38.2424V38.2339C55.2117 37.7175 55.744 36.8128 55.744 35.7802C55.745 35.2135 55.5831 34.6853 55.3055 34.2387ZM29.872 35.5328H28.1649V37.4773H25.5059L23.821 35.5578L22.0707 37.4773H16.6511V31.6801H22.1541L23.8371 33.5801L25.5774 31.6801H29.9493C31.0345 31.6801 32.2542 31.9847 32.2542 33.5896C32.2542 35.2007 31.0676 35.5328 29.872 35.5328ZM38.1055 35.2698C38.2988 35.5527 38.3266 35.8165 38.3323 36.3281V37.4773H36.9595V36.752C36.9595 36.4034 36.9922 35.8871 36.7378 35.6171C36.5374 35.4096 36.2338 35.3593 35.734 35.3593H34.2717V37.4772H32.8975V31.68H36.0561C36.7486 31.68 37.2527 31.7108 37.7023 31.9538C38.1343 32.2177 38.4058 32.5791 38.4058 33.2408C38.4058 34.166 37.7961 34.6387 37.4362 34.7832C37.7392 34.8971 37.9889 35.1008 38.1055 35.2698ZM43.7297 32.8797H40.5257V33.9336H43.6516V35.1164H40.5257V36.2698L43.7297 36.2755V37.4782H39.1637V31.6801H43.7297V32.8797ZM47.2137 37.4778H44.5492V36.2344H47.2038C47.4634 36.2344 47.6472 36.2003 47.7628 36.0904C47.8561 36.0014 47.9243 35.8707 47.9243 35.7134C47.9243 35.5443 47.8514 35.4098 47.7571 35.3292C47.6519 35.2402 47.5084 35.2008 47.2701 35.2008C45.9905 35.1573 44.388 35.2406 44.388 33.4059C44.388 32.5651 44.91 31.6803 46.344 31.6803H49.0872V32.9142H46.5776C46.3289 32.9142 46.1669 32.9237 46.029 33.0184C45.8798 33.1127 45.8234 33.2515 45.8234 33.4362C45.8234 33.6546 45.9513 33.8033 46.1228 33.8683C46.2678 33.9185 46.4222 33.9332 46.6553 33.9332L47.3923 33.9545C48.1346 33.9719 48.6448 34.1027 48.9546 34.4201C49.2213 34.6986 49.3633 35.0511 49.3633 35.6475C49.363 36.8951 48.5941 37.4778 47.2137 37.4778ZM54.2554 36.9179C53.8949 37.2869 53.3136 37.4778 52.5553 37.4778H49.9129V36.2344H52.5443C52.8057 36.2344 52.9886 36.2003 53.0985 36.0904C53.1937 36.0014 53.2601 35.8707 53.2601 35.7134C53.2601 35.5443 53.1937 35.4098 53.0928 35.3292C52.9938 35.2402 52.8494 35.2008 52.6106 35.2008C51.3259 35.1573 49.7234 35.2406 49.7234 33.4059C49.7234 32.5651 50.2502 31.6803 51.6864 31.6803H54.3596V32.9138H51.9186C51.6704 32.9138 51.5046 32.9238 51.3649 33.0185C51.2204 33.1123 51.165 33.2516 51.165 33.4354C51.165 33.6547 51.2868 33.8026 51.4644 33.8675C51.6093 33.9186 51.7638 33.9333 51.9912 33.9333L52.7325 33.9537C53.481 33.9722 53.9808 34.1025 54.2844 34.4204C54.3398 34.4644 54.3734 34.5142 54.4122 34.5634C54.3967 34.543 54.3815 34.5237 54.3654 34.5033C54.6022 34.8207 54.7448 35.2153 54.7448 35.6439C54.7447 36.1354 54.5576 36.5811 54.2554 36.9179ZM21.444 32.8797L22.9409 34.5689L21.3777 36.2695H18.0134V35.116H21.0172V33.9332H18.0134V32.8797H21.444ZM24.7021 34.5887L26.803 32.3031V36.9506L24.7021 34.5887ZM30.7863 33.5901C30.7863 34.0927 30.4589 34.3557 29.9332 34.3557H28.1654V32.8797H29.9498C30.4429 32.8797 30.7863 33.0828 30.7863 33.5901ZM36.8923 33.5058C36.8923 33.7536 36.7862 33.9535 36.6086 34.062C36.4258 34.1718 36.1993 34.1813 35.9336 34.1813H34.2708V32.8797H35.9553C36.1993 32.8797 36.4432 32.8848 36.6086 32.9844C36.7867 33.0777 36.8923 33.2572 36.8923 33.5058Z" fill="white"/>
</svg>
