<svg width="723" height="163" viewBox="0 0 723 163" fill="none" xmlns="http://www.w3.org/2000/svg">
  <g filter="url(#filter0_d)">
    <rect x="10" y="6" width="703" height="143" rx="20" fill="white" fill-opacity="0.87"/>
    <rect x="10" y="6" width="703" height="143" rx="20" fill="url(#paint0_linear)"/>
    <rect x="11" y="7" width="701" height="141" rx="19" stroke="#00AF31" stroke-width="2"/>
  </g>
  <path d="M480 75L480 149" stroke="#00AF31" stroke-width="2"/>
  <g filter="url(#filter1_d)">
    <path
      d="M221.547 112.18H201.279C200.812 112.18 200.434 112.547 200.434 113V122.898C200.434 123.352 200.812 123.719 201.279 123.719H221.547C222.014 123.719 222.392 123.352 222.392 122.898V113C222.392 112.547 222.014 112.18 221.547 112.18ZM220.703 117.102H217.325V113.82H220.703V117.102ZM210.569 118.742V122.078H207.191V118.742H210.569ZM207.191 117.102V113.82H210.569V117.102H207.191ZM212.258 118.742H215.636V122.078H212.258V118.742ZM212.258 117.102V113.82H215.636V117.102H212.258ZM205.501 113.82V117.102H202.123V113.82H205.501ZM202.123 118.742H205.501V122.078H202.123V118.742ZM217.325 122.078V118.742H220.703V122.078H217.325Z"
      fill="black"/>
    <path
      d="M223.293 102.281H220.655C220.574 101.587 220.391 100.942 220.119 100.414C219.65 99.5024 218.957 99 218.169 99C217.382 99 216.689 99.5024 216.22 100.414C215.948 100.942 215.765 101.587 215.684 102.281H213.899C213.818 101.587 213.635 100.942 213.363 100.414C212.893 99.5024 212.201 99 211.413 99C210.625 99 209.933 99.5024 209.464 100.414C209.192 100.942 209.009 101.587 208.928 102.281H207.143C207.062 101.587 206.879 100.942 206.607 100.414C206.137 99.5024 205.445 99 204.657 99C203.869 99 203.177 99.5024 202.707 100.414C202.436 100.942 202.252 101.587 202.171 102.281H199.534C198.137 102.281 197 103.385 197 104.742V124.539C197 125.896 198.137 127 199.534 127H223.293C224.69 127 225.826 125.896 225.826 124.539V104.742C225.826 103.385 224.69 102.281 223.293 102.281ZM217.73 101.148C217.946 100.729 218.14 100.641 218.169 100.641C218.199 100.641 218.392 100.729 218.608 101.148C218.768 101.459 218.886 101.851 218.952 102.281H217.387C217.453 101.851 217.571 101.459 217.73 101.148ZM210.974 101.148C211.19 100.729 211.384 100.641 211.413 100.641C211.442 100.641 211.636 100.729 211.852 101.148C212.012 101.459 212.13 101.851 212.196 102.281H210.63C210.697 101.851 210.814 101.459 210.974 101.148ZM204.218 101.148C204.434 100.729 204.628 100.641 204.657 100.641C204.686 100.641 204.88 100.729 205.096 101.148C205.256 101.459 205.374 101.851 205.44 102.281H203.874C203.94 101.851 204.058 101.459 204.218 101.148ZM199.534 103.922H205.44C205.374 104.352 205.256 104.744 205.096 105.055C204.88 105.474 204.686 105.562 204.657 105.562C204.191 105.562 203.812 105.93 203.812 106.383C203.812 106.836 204.191 107.203 204.657 107.203C205.445 107.203 206.137 106.701 206.607 105.789C206.879 105.261 207.062 104.616 207.143 103.922H212.196C212.13 104.352 212.012 104.744 211.852 105.055C211.636 105.474 211.442 105.562 211.413 105.562C210.947 105.562 210.569 105.93 210.569 106.383C210.569 106.836 210.947 107.203 211.413 107.203C212.201 107.203 212.893 106.701 213.363 105.789C213.635 105.261 213.818 104.616 213.899 103.922H218.952C218.886 104.352 218.768 104.744 218.608 105.055C218.392 105.474 218.199 105.562 218.169 105.562C217.703 105.562 217.325 105.93 217.325 106.383C217.325 106.836 217.703 107.203 218.169 107.203C218.957 107.203 219.65 106.701 220.119 105.789C220.391 105.261 220.574 104.616 220.655 103.922H223.293C223.758 103.922 224.137 104.29 224.137 104.742V108.898H198.689V104.742C198.689 104.29 199.068 103.922 199.534 103.922ZM223.293 125.359H199.534C199.068 125.359 198.689 124.991 198.689 124.539V110.539H224.137V124.539C224.137 124.991 223.758 125.359 223.293 125.359Z"
      fill="black"/>
    <path
      d="M450.969 117.161C449.567 115.8 447.899 114.792 446.078 114.182C448.028 112.877 449.309 110.695 449.309 108.227C449.309 104.242 445.971 101 441.869 101C437.767 101 434.429 104.242 434.429 108.227C434.429 110.695 435.71 112.877 437.659 114.182C435.839 114.792 434.171 115.8 432.769 117.161C430.339 119.522 429 122.661 429 126H431.011C431.011 120.184 435.882 115.453 441.869 115.453C447.856 115.453 452.727 120.184 452.727 126H454.738C454.738 122.661 453.399 119.522 450.969 117.161ZM441.869 113.5C438.875 113.5 436.44 111.134 436.44 108.227C436.44 105.319 438.875 102.953 441.869 102.953C444.862 102.953 447.298 105.319 447.298 108.227C447.298 111.134 444.862 113.5 441.869 113.5Z"
      fill="black"/>
    <path
      d="M341.354 43.0659L332.416 34.3839C332.161 34.136 331.821 34 331.459 34C331.096 34 330.756 34.1362 330.501 34.3839L329.689 35.1723C329.434 35.4197 329.294 35.7503 329.294 36.1027C329.294 36.4549 329.434 36.7965 329.689 37.0439L334.903 42.12H318.337C317.59 42.12 317 42.6879 317 43.4137V44.5283C317 45.254 317.59 45.8793 318.337 45.8793H334.963L329.689 50.9836C329.434 51.2315 329.294 51.553 329.294 51.9054C329.294 52.2574 329.434 52.5836 329.689 52.8312L330.501 53.6171C330.756 53.8649 331.096 54 331.459 54C331.821 54 332.161 53.8632 332.417 53.6154L341.355 44.9335C341.61 44.6849 341.751 44.353 341.75 44.0002C341.751 43.6462 341.61 43.3142 341.354 43.0659Z"
      fill="black"/>
  </g>
  <line x1="370" y1="7" x2="370" y2="77" stroke="#00AF31" stroke-width="2"/>
  <line x1="10" y1="76" x2="713" y2="76.0274" stroke="#00AF31" stroke-width="2"/>
  <path d="M247 76L247 148" stroke="#00AF31" stroke-width="2"/>
  <defs>
    <filter id="filter0_d" x="0" y="0" width="723" height="163" filterUnits="userSpaceOnUse"
            color-interpolation-filters="sRGB">
      <feFlood flood-opacity="0" result="BackgroundImageFix"/>
      <feColorMatrix in="SourceAlpha" type="matrix" values="0 0 0 0 0 0 0 0 0 0 0 0 0 0 0 0 0 0 127 0"/>
      <feOffset dy="4"/>
      <feGaussianBlur stdDeviation="5"/>
      <feColorMatrix type="matrix" values="0 0 0 0 0 0 0 0 0 0 0 0 0 0 0 0 0 0 0.25 0"/>
      <feBlend mode="normal" in2="BackgroundImageFix" result="effect1_dropShadow"/>
      <feBlend mode="normal" in="SourceGraphic" in2="effect1_dropShadow" result="shape"/>
    </filter>
    <filter id="filter1_d" x="187" y="24" width="277.738" height="113" filterUnits="userSpaceOnUse"
            color-interpolation-filters="sRGB">
      <feFlood flood-opacity="0" result="BackgroundImageFix"/>
      <feColorMatrix in="SourceAlpha" type="matrix" values="0 0 0 0 0 0 0 0 0 0 0 0 0 0 0 0 0 0 127 0"/>
      <feOffset/>
      <feGaussianBlur stdDeviation="5"/>
      <feColorMatrix type="matrix" values="0 0 0 0 1 0 0 0 0 1 0 0 0 0 1 0 0 0 0.87 0"/>
      <feBlend mode="normal" in2="BackgroundImageFix" result="effect1_dropShadow"/>
      <feBlend mode="normal" in="SourceGraphic" in2="effect1_dropShadow" result="shape"/>
    </filter>
    <linearGradient id="paint0_linear" x1="361.5" y1="6" x2="361.5" y2="149" gradientUnits="userSpaceOnUse">
      <stop stop-opacity="0.04"/>
      <stop offset="1" stop-color="white" stop-opacity="0"/>
    </linearGradient>
  </defs>
</svg>
