<svg width="90" height="61" viewBox="0 0 90 61" fill="none" xmlns="http://www.w3.org/2000/svg">
<path d="M80.6251 0.499939H9.37494C4.2075 0.499939 0 4.70744 0 9.87506V51.1251C0 56.2926 4.2075 60.5001 9.37494 60.5001H80.6249C85.7923 60.5001 89.9998 56.2926 89.9998 51.1251V9.87506C90 4.70744 85.7925 0.499939 80.6251 0.499939ZM86.2501 51.1249C86.2501 54.2263 83.7264 56.7499 80.6251 56.7499H9.37494C6.27363 56.7499 3.74994 54.2263 3.74994 51.1249V9.87506C3.74994 6.77375 6.27363 4.25006 9.37494 4.25006H80.6249C83.7262 4.25006 86.2499 6.77375 86.2499 9.87506V51.1249H86.2501Z" fill="#00AE00"/>
<path d="M88.1249 11.7499H1.87506C0.840059 11.7499 0 12.59 0 13.625V24.875C0 25.91 0.840059 26.7501 1.87506 26.7501H88.1251C89.1601 26.7501 90.0002 25.91 90.0002 24.875V13.625C90 12.59 89.1599 11.7499 88.1249 11.7499ZM86.2501 22.9999H3.74994V15.4999H86.2499V22.9999H86.2501Z" fill="#00AE00"/>
<path d="M35.6251 38.0001H13.1251C12.0901 38.0001 11.25 38.8401 11.25 39.8751C11.25 40.9101 12.0901 41.75 13.1251 41.75H35.6251C36.6601 41.75 37.5001 40.9099 37.5001 39.8749C37.5001 38.8399 36.6601 38.0001 35.6251 38.0001Z" fill="#00AE00"/>
<path d="M35.6251 45.4999H13.1251C12.0901 45.4999 11.25 46.34 11.25 47.375C11.25 48.41 12.0901 49.2501 13.1251 49.2501H35.6251C36.6601 49.2501 37.5001 48.41 37.5001 47.375C37.4999 46.34 36.6601 45.4999 35.6251 45.4999Z" fill="#00AE00"/>
<path d="M73.125 34.2499H69.3751C66.2738 34.2499 63.7501 36.7736 63.7501 39.8749V43.6249C63.7501 46.7262 66.2738 49.2499 69.3751 49.2499H73.125C76.2263 49.2499 78.75 46.7262 78.75 43.6249V39.8749C78.75 36.7738 76.2263 34.2499 73.125 34.2499ZM75.0001 43.6251C75.0001 44.6601 74.16 45.5001 73.125 45.5001H69.3751C68.3401 45.5001 67.5 44.6601 67.5 43.6251V39.8751C67.5 38.8401 68.3401 38.0001 69.3751 38.0001H73.125C74.16 38.0001 75.0001 38.8401 75.0001 39.8751V43.6251Z" fill="#00AE00"/>
</svg>
