<svg width="90" height="87" viewBox="0 0 90 87" fill="none" xmlns="http://www.w3.org/2000/svg">
<path d="M89.8265 47.6573C89.0184 39.5294 85.3873 31.8668 79.6015 26.0809C74.657 21.1366 68.6051 17.9593 62.2372 16.5465V12.0802C64.8381 11.4331 66.7714 9.07886 66.7714 6.28055C66.7714 2.98495 64.0903 0.303894 60.7947 0.303894H48.1383C44.8427 0.303894 42.1616 2.98495 42.1616 6.28055C42.1616 9.07868 44.0949 11.433 46.6956 12.0802V16.559C40.3472 17.9777 34.3153 21.1506 29.3849 26.081C28.306 27.16 27.311 28.2919 26.4003 29.4682C26.3562 29.4649 26.312 29.4615 26.267 29.4615H13.7405C12.7698 29.4615 11.9827 30.2485 11.9827 31.2194C11.9827 32.1902 12.7698 32.9772 13.7405 32.9772H24.0084C22.7196 35.135 21.6803 37.401 20.8893 39.7337H1.75784C0.787161 39.7337 0 40.5206 0 41.4915C0 42.4623 0.787161 43.2493 1.75784 43.2493H19.8959C19.3893 45.4732 19.0986 47.7364 19.0235 50.0059H11.2502C10.2795 50.0059 9.49234 50.7929 9.49234 51.7638C9.49234 52.7346 10.2795 53.5216 11.2502 53.5216H19.0796C19.228 55.797 19.5938 58.0604 20.1772 60.2782H8.7892C7.81852 60.2782 7.03136 61.0652 7.03136 62.0361C7.03136 63.0069 7.81852 63.7939 8.7892 63.7939H21.299C23.0235 68.3557 25.7184 72.6313 29.3849 76.2978C35.1763 82.0892 42.8468 85.7212 50.9832 86.5251C52.1444 86.6397 53.3065 86.6965 54.467 86.6965C61.3265 86.6965 68.0987 84.7113 73.8451 80.9692C74.6586 80.4394 74.8887 79.3504 74.3589 78.5369C73.8291 77.7234 72.7401 77.4933 71.9266 78.0231C59.348 86.2141 42.5021 84.4431 31.8709 73.8118C19.3969 61.3379 19.3969 41.0413 31.8709 28.5672C44.3447 16.0933 64.6412 16.0933 77.1154 28.5672C87.7326 39.1845 89.5133 56.016 81.3493 68.5884C80.8206 69.4027 81.0521 70.4915 81.8661 71.02C82.6807 71.5488 83.7692 71.3173 84.2977 70.5031C88.6596 63.7855 90.6232 55.6722 89.8265 47.6573ZM45.6773 6.28073C45.6773 4.92367 46.7812 3.81975 48.1383 3.81975H60.7947C62.1518 3.81975 63.2557 4.92367 63.2557 6.28073C63.2557 7.63778 62.1518 8.7417 60.7947 8.7417H60.4794H48.4534H48.1383C46.7812 8.7417 45.6773 7.6376 45.6773 6.28073ZM50.2113 15.9546V12.2574H58.7215V15.9483C55.8956 15.6122 53.0367 15.6143 50.2113 15.9546Z" fill="#00AE00"/>
<path d="M78.3592 73.2961C77.8951 73.2961 77.4434 73.4842 77.1166 73.8112C76.7879 74.1381 76.6014 74.5917 76.6014 75.054C76.6014 75.5163 76.7879 75.9698 77.1166 76.2967C77.4434 76.6254 77.8953 76.8118 78.3592 76.8118C78.8215 76.8118 79.2733 76.6254 79.602 76.2967C79.9289 75.9698 80.117 75.5163 80.117 75.054C80.117 74.5917 79.9291 74.1381 79.602 73.8112C79.2733 73.4842 78.8213 73.2961 78.3592 73.2961Z" fill="#00AE00"/>
<path d="M54.4932 23.92C39.457 23.92 27.224 36.1528 27.224 51.1892C27.224 66.2256 39.457 78.4584 54.4932 78.4584C69.5294 78.4584 81.7624 66.2256 81.7624 51.1892C81.7624 36.1528 69.5294 23.92 54.4932 23.92ZM54.4932 74.9427C41.3954 74.9427 30.7397 64.2868 30.7397 51.1892C30.7397 38.0915 41.3954 27.4357 54.4932 27.4357C67.5911 27.4357 78.2467 38.0915 78.2467 51.1892C78.2467 64.2868 67.5911 74.9427 54.4932 74.9427Z" fill="#00AE00"/>
<path d="M65.6126 37.5839L56.906 46.2903C56.1779 45.9303 55.359 45.7269 54.4932 45.7269C53.6273 45.7269 52.8085 45.9303 52.0804 46.2903L48.1838 42.3937C47.4972 41.7072 46.3845 41.7072 45.6977 42.3937C45.0113 43.0801 45.0113 44.1932 45.6977 44.8796L49.5943 48.7762C49.2341 49.5043 49.0309 50.3233 49.0309 51.189C49.0309 54.2009 51.4812 56.6513 54.4932 56.6513C57.5053 56.6513 59.9555 54.2009 59.9555 51.189C59.9555 50.3233 59.7521 49.5043 59.3921 48.7762L67.8431 40.3252L68.0985 40.0698C68.785 39.3834 68.785 38.2703 68.0985 37.5839C67.4121 36.8974 66.2994 36.8974 65.6126 37.5839ZM54.4932 53.1358C53.4199 53.1358 52.5466 52.2625 52.5466 51.1892C52.5466 50.1159 53.4199 49.2426 54.4932 49.2426C55.5666 49.2426 56.4398 50.1159 56.4398 51.1892C56.4398 52.2625 55.5666 53.1358 54.4932 53.1358Z" fill="#00AE00"/>
<path d="M73.2878 49.4528H71.6592C70.6885 49.4528 69.9014 50.2397 69.9014 51.2106C69.9014 52.1814 70.6885 52.9684 71.6592 52.9684H73.2878C74.2585 52.9684 75.0456 52.1814 75.0456 51.2106C75.0456 50.2397 74.2585 49.4528 73.2878 49.4528Z" fill="#00AE00"/>
<path d="M37.327 49.4099H35.6985C34.7279 49.4099 33.9407 50.1969 33.9407 51.1677C33.9407 52.1386 34.7279 52.9255 35.6985 52.9255H37.327C38.2976 52.9255 39.0848 52.1386 39.0848 51.1677C39.0848 50.1969 38.2976 49.4099 37.327 49.4099Z" fill="#00AE00"/>
<path d="M54.5146 35.7808C55.4853 35.7808 56.2724 34.9938 56.2724 34.023V32.3945C56.2724 31.4237 55.4853 30.6367 54.5146 30.6367C53.544 30.6367 52.7568 31.4237 52.7568 32.3945V34.023C52.7568 34.9938 53.544 35.7808 54.5146 35.7808Z" fill="#00AE00"/>
<path d="M54.4717 66.5975C53.5011 66.5975 52.7139 67.3845 52.7139 68.3553V69.9838C52.7139 70.9546 53.5011 71.7416 54.4717 71.7416C55.4424 71.7416 56.2296 70.9546 56.2296 69.9838V68.3553C56.2296 67.3845 55.4424 66.5975 54.4717 66.5975Z" fill="#00AE00"/>
<path d="M1.75781 60.2776C1.29551 60.2776 0.841992 60.4657 0.515039 60.7926C0.188086 61.1196 0 61.5731 0 62.0354C0 62.4995 0.18791 62.9512 0.515039 63.2782C0.842168 63.6051 1.29551 63.7932 1.75781 63.7932C2.22012 63.7932 2.67363 63.6051 3.00041 63.2782C3.32736 62.9512 3.51562 62.4977 3.51562 62.0354C3.51562 61.5731 3.32754 61.1196 3.00041 60.7926C2.67363 60.4657 2.22012 60.2776 1.75781 60.2776Z" fill="#00AE00"/>
</svg>
