<svg width="703" height="143" viewBox="0 0 703 143" fill="none" xmlns="http://www.w3.org/2000/svg">
<g filter="url(#filter0_d)">
<path d="M211.547 106.18H191.279C190.812 106.18 190.434 106.547 190.434 107V116.898C190.434 117.352 190.812 117.719 191.279 117.719H211.547C212.014 117.719 212.392 117.352 212.392 116.898V107C212.392 106.547 212.014 106.18 211.547 106.18ZM210.703 111.102H207.325V107.82H210.703V111.102ZM200.569 112.742V116.078H197.191V112.742H200.569ZM197.191 111.102V107.82H200.569V111.102H197.191ZM202.258 112.742H205.636V116.078H202.258V112.742ZM202.258 111.102V107.82H205.636V111.102H202.258ZM195.501 107.82V111.102H192.123V107.82H195.501ZM192.123 112.742H195.501V116.078H192.123V112.742ZM207.325 116.078V112.742H210.703V116.078H207.325Z" fill="black"/>
<path d="M213.293 96.2812H210.655C210.574 95.587 210.391 94.9425 210.119 94.4144C209.65 93.5024 208.957 93 208.169 93C207.382 93 206.689 93.5024 206.22 94.4144C205.948 94.9425 205.765 95.587 205.684 96.2812H203.899C203.818 95.587 203.635 94.9425 203.363 94.4144C202.893 93.5024 202.201 93 201.413 93C200.625 93 199.933 93.5024 199.464 94.4144C199.192 94.9425 199.009 95.587 198.928 96.2812H197.143C197.062 95.587 196.879 94.9425 196.607 94.4144C196.137 93.5024 195.445 93 194.657 93C193.869 93 193.177 93.5024 192.707 94.4144C192.436 94.9425 192.252 95.587 192.171 96.2812H189.534C188.137 96.2812 187 97.3853 187 98.7422V118.539C187 119.896 188.137 121 189.534 121H213.293C214.69 121 215.826 119.896 215.826 118.539V98.7422C215.826 97.3853 214.69 96.2812 213.293 96.2812ZM207.73 95.1482C207.946 94.7289 208.14 94.6406 208.169 94.6406C208.199 94.6406 208.392 94.7289 208.608 95.1482C208.768 95.459 208.886 95.8512 208.952 96.2812H207.387C207.453 95.8512 207.571 95.459 207.73 95.1482ZM200.974 95.1482C201.19 94.7289 201.384 94.6406 201.413 94.6406C201.442 94.6406 201.636 94.7289 201.852 95.1482C202.012 95.459 202.13 95.8512 202.196 96.2812H200.63C200.697 95.8512 200.814 95.459 200.974 95.1482ZM194.218 95.1482C194.434 94.7289 194.628 94.6406 194.657 94.6406C194.686 94.6406 194.88 94.7289 195.096 95.1482C195.256 95.459 195.374 95.8512 195.44 96.2812H193.874C193.94 95.8512 194.058 95.459 194.218 95.1482ZM189.534 97.9219H195.44C195.374 98.3519 195.256 98.7441 195.096 99.0549C194.88 99.4743 194.686 99.5625 194.657 99.5625C194.191 99.5625 193.812 99.9297 193.812 100.383C193.812 100.836 194.191 101.203 194.657 101.203C195.445 101.203 196.137 100.701 196.607 99.7887C196.879 99.2607 197.062 98.6161 197.143 97.9219H202.196C202.13 98.3519 202.012 98.7441 201.852 99.0549C201.636 99.4743 201.442 99.5625 201.413 99.5625C200.947 99.5625 200.569 99.9297 200.569 100.383C200.569 100.836 200.947 101.203 201.413 101.203C202.201 101.203 202.893 100.701 203.363 99.7887C203.635 99.2607 203.818 98.6161 203.899 97.9219H208.952C208.886 98.3519 208.768 98.7441 208.608 99.0549C208.392 99.4743 208.199 99.5625 208.169 99.5625C207.703 99.5625 207.325 99.9297 207.325 100.383C207.325 100.836 207.703 101.203 208.169 101.203C208.957 101.203 209.65 100.701 210.119 99.7887C210.391 99.2607 210.574 98.6161 210.655 97.9219H213.293C213.758 97.9219 214.137 98.2899 214.137 98.7422V102.898H188.689V98.7422C188.689 98.2899 189.068 97.9219 189.534 97.9219ZM213.293 119.359H189.534C189.068 119.359 188.689 118.991 188.689 118.539V104.539H214.137V118.539C214.137 118.991 213.758 119.359 213.293 119.359Z" fill="black"/>
<path d="M440.969 111.161C439.567 109.8 437.899 108.792 436.078 108.182C438.028 106.877 439.309 104.695 439.309 102.227C439.309 98.2418 435.971 95 431.869 95C427.767 95 424.429 98.2418 424.429 102.227C424.429 104.695 425.71 106.877 427.659 108.182C425.839 108.792 424.171 109.8 422.769 111.161C420.339 113.522 419 116.661 419 120H421.011C421.011 114.184 425.882 109.453 431.869 109.453C437.856 109.453 442.727 114.184 442.727 120H444.738C444.738 116.661 443.399 113.522 440.969 111.161ZM431.869 107.5C428.875 107.5 426.44 105.134 426.44 102.227C426.44 99.3187 428.875 96.9531 431.869 96.9531C434.862 96.9531 437.298 99.3187 437.298 102.227C437.298 105.134 434.862 107.5 431.869 107.5Z" fill="black"/>
<path d="M331.354 37.0659L322.416 28.3839C322.161 28.136 321.821 28 321.459 28C321.096 28 320.756 28.1362 320.501 28.3839L319.689 29.1723C319.434 29.4197 319.294 29.7503 319.294 30.1027C319.294 30.4549 319.434 30.7965 319.689 31.0439L324.903 36.12H308.337C307.59 36.12 307 36.6879 307 37.4137V38.5283C307 39.254 307.59 39.8793 308.337 39.8793H324.963L319.689 44.9836C319.434 45.2315 319.294 45.553 319.294 45.9054C319.294 46.2574 319.434 46.5836 319.689 46.8312L320.501 47.6171C320.756 47.8649 321.096 48 321.459 48C321.821 48 322.161 47.8632 322.417 47.6154L331.355 38.9335C331.61 38.6849 331.751 38.353 331.75 38.0002C331.751 37.6462 331.61 37.3142 331.354 37.0659Z" fill="black"/>
</g>
<defs>
<filter id="filter0_d" x="177" y="18" width="277.738" height="113" filterUnits="userSpaceOnUse" color-interpolation-filters="sRGB">
<feFlood flood-opacity="0" result="BackgroundImageFix"/>
<feColorMatrix in="SourceAlpha" type="matrix" values="0 0 0 0 0 0 0 0 0 0 0 0 0 0 0 0 0 0 127 0"/>
<feOffset/>
<feGaussianBlur stdDeviation="5"/>
<feColorMatrix type="matrix" values="0 0 0 0 1 0 0 0 0 1 0 0 0 0 1 0 0 0 0.87 0"/>
<feBlend mode="normal" in2="BackgroundImageFix" result="effect1_dropShadow"/>
<feBlend mode="normal" in="SourceGraphic" in2="effect1_dropShadow" result="shape"/>
</filter>
</defs>
</svg>
