<svg width="40" height="40" viewBox="0 0 40 40" fill="none" xmlns="http://www.w3.org/2000/svg">
<path d="M20 0C8.97219 0 0 8.97219 0 20C0 31.0278 8.97219 40 20 40C31.0278 40 40 31.0278 40 20C40 8.97219 31.0278 0 20 0ZM20 5.83336C25.284 5.83336 29.5834 10.1327 29.5834 15.4167C29.5834 20.7008 25.284 25 20 25C14.716 25 10.4166 20.7007 10.4166 15.4166C10.4166 10.1326 14.716 5.83336 20 5.83336ZM20 36.6666C14.5541 36.6666 9.725 34.0295 6.6818 29.978C10.0159 28.3737 14.7772 26.6666 20 26.6666C25.2232 26.6666 29.9849 28.374 33.3183 29.9778C30.2751 34.0295 25.4459 36.6666 20 36.6666Z" fill="white"/>
</svg>
