<svg width="90" height="88" viewBox="0 0 90 88" fill="none" xmlns="http://www.w3.org/2000/svg">
<path d="M75.0001 0.5C66.7292 0.5 60.0001 7.00477 60.0001 14.9999C60.0001 21.9351 70.6294 35.9715 73.1199 39.1662C73.1192 40.1981 73.1199 41.2113 73.0941 42.1413C73.0666 43.1413 73.8833 43.9751 74.9196 44.0016C74.9361 44.0016 74.9526 44.0016 74.9709 44.0016C75.9816 44.0016 76.8166 43.221 76.844 42.237C76.8699 41.2827 76.8691 40.2411 76.8698 39.1798C79.3438 36.007 90 21.9432 90 14.9999C90 7.00477 83.2709 0.5 75.0001 0.5ZM75.0001 35.5286C70.8783 30.047 63.7501 19.6145 63.7501 14.9999C63.7501 9.00304 68.7964 4.12494 75.0001 4.12494C81.2037 4.12494 86.2501 9.00304 86.2501 14.9999C86.2501 19.6145 79.1218 30.0468 75.0001 35.5286Z" fill="#00AE00"/>
<path d="M75.0001 11.375C72.9329 11.375 71.2501 13.0017 71.2501 14.9999C71.2501 16.9982 72.9329 18.6249 75.0001 18.6249C77.0672 18.6249 78.75 16.9984 78.75 14.9999C78.75 13.0017 77.0672 11.375 75.0001 11.375Z" fill="#00AE00"/>
<path d="M22.5 40.375C16.2963 40.375 11.25 45.2531 11.25 51.25C11.25 57.2468 16.2963 62.1249 22.5 62.1249C28.7037 62.1249 33.75 57.2468 33.75 51.25C33.75 45.2531 28.7037 40.375 22.5 40.375ZM22.5 58.4998C18.3637 58.4998 14.9999 55.2484 14.9999 51.2498C14.9999 47.2512 18.3637 43.9999 22.5 43.9999C26.6363 43.9999 30.0001 47.2514 30.0001 51.25C30.0001 55.2486 26.6363 58.4998 22.5 58.4998Z" fill="#00AE00"/>
<path d="M50.9015 65.8243C49.931 65.4597 48.8507 65.9253 48.4754 66.8598C47.635 68.959 46.584 71.4069 45.1666 73.6495C44.6265 74.5044 44.9067 75.6196 45.7893 76.1418C46.0951 76.3224 46.4319 76.4074 46.7652 76.4074C47.3969 76.4074 48.0139 76.0993 48.3674 75.5401C49.9386 73.0514 51.0718 70.4176 51.9727 68.1697C52.3462 67.2367 51.8665 66.1871 50.9015 65.8243Z" fill="#00AE00"/>
<path d="M40.329 79.0516C38.4502 80.4906 36.3153 81.5739 33.7994 82.365C32.8143 82.6748 32.2759 83.6979 32.5963 84.6501C32.8546 85.4148 33.5888 85.9016 34.3798 85.9016C34.5721 85.9016 34.7679 85.8732 34.9603 85.8131C37.8661 84.8998 40.4552 83.5812 42.6581 81.8942C43.4693 81.2711 43.6066 80.1312 42.9639 79.3471C42.3156 78.5649 41.1383 78.4251 40.329 79.0516Z" fill="#00AE00"/>
<path d="M57.3926 52.7384C54.2981 54.436 52.5788 57.3829 51.5533 59.4503C51.1047 60.3531 51.4983 61.4364 52.4322 61.8682C52.6941 61.9903 52.9706 62.0469 53.2415 62.0469C53.9409 62.0469 54.6112 61.6682 54.9334 61.0186C56.2352 58.3936 57.5647 56.813 59.2455 55.889C60.1446 55.3952 60.4614 54.2888 59.9486 53.418C59.4397 52.5473 58.2989 52.2411 57.3926 52.7384Z" fill="#00AE00"/>
<path d="M74.3041 48.2516C73.4527 47.6941 72.2827 47.9082 71.7003 48.7365C71.0833 49.6181 69.8198 50.8305 65.9983 51.1615C64.9673 51.2517 64.2057 52.1314 64.299 53.1297C64.3869 54.0714 65.2053 54.7793 66.1649 54.7793C66.2217 54.7793 66.2785 54.7776 66.3353 54.7721C70.3948 54.4199 73.1651 53.1101 74.8058 50.7683C75.3864 49.9401 75.1611 48.8126 74.3041 48.2516Z" fill="#00AE00"/>
<path d="M26.9429 83.8983C32.8591 77.7995 45 63.7688 45 51.25C45 39.0545 35.116 29.5 22.5 29.5C9.884 29.5 0 39.0545 0 51.25C0 67.4367 20.3467 86.213 21.2128 87.0043C21.5735 87.3353 22.0368 87.5 22.5 87.5C23.866 87.5 25.1641 87.4539 26.3946 87.3637C27.4273 87.2876 28.2018 86.4184 28.1231 85.4202C28.0668 84.7056 27.5885 84.1485 26.9429 83.8983ZM22.5 83.1315C18.0707 78.7631 3.74994 63.6755 3.74994 51.25C3.74994 41.0864 11.9862 33.1249 22.5 33.1249C33.0138 33.1249 41.2501 41.0864 41.2501 51.25C41.2501 63.6755 26.9293 78.763 22.5 83.1315Z" fill="#00AE00"/>
</svg>
