<svg width="60" height="60" viewBox="0 0 60 60" fill="none" xmlns="http://www.w3.org/2000/svg">
<path d="M30 60C46.5685 60 60 46.5685 60 30C60 13.4315 46.5685 0 30 0C13.4315 0 0 13.4315 0 30C0 46.5685 13.4315 60 30 60Z" fill="#3C80AD"/>
<path d="M20.1924 15.4393C12.6222 15.4872 6.49298 21.6595 6.49298 29.2566C6.49298 36.8837 12.6696 43.0731 20.2809 43.0731C23.8513 43.0731 27.1075 41.7092 29.5574 39.473L29.5569 39.4725H29.5588C30.0614 39.0145 30.5294 38.5189 30.9591 37.9927H28.135C27.7574 37.5365 27.4145 37.0599 27.1066 36.5687H31.9777C32.2752 36.0941 32.5424 35.601 32.7816 35.0903H26.3033C26.0822 34.6157 25.8902 34.1319 25.7268 33.6388H33.3582C33.8191 32.2613 34.0677 30.7872 34.0677 29.2566C34.0677 28.2401 33.9573 27.2509 33.7504 26.2969H25.3218C25.427 25.8057 25.5582 25.3211 25.7145 24.846H33.3497C33.1791 24.3391 32.9806 23.846 32.7552 23.3665H26.3025C26.535 22.8677 26.7988 22.3841 27.0931 21.9151H31.9613C31.6368 21.3973 31.2787 20.9028 30.8916 20.4367H28.1774C28.5976 19.9407 29.0589 19.4741 29.5596 19.0417C27.1105 16.8044 23.8539 15.4397 20.2817 15.4397C20.2507 15.4393 20.2213 15.4393 20.1924 15.4393Z" fill="#931B1D"/>
<path d="M52.5622 29.261C52.5636 36.8909 46.3942 43.0779 38.7776 43.0802C31.1642 43.0826 24.99 36.8979 24.9877 29.2666V29.261C24.9853 21.6287 31.1567 15.4412 38.7715 15.4393C46.3857 15.4365 52.5605 21.6216 52.5624 29.2534C52.5622 29.2534 52.5622 29.2568 52.5622 29.261Z" fill="#F16622"/>
<path d="M52.5622 29.4135C52.5636 37.0438 46.3942 43.2318 38.7776 43.2332C31.1642 43.236 24.99 37.0506 24.9877 29.4206V29.4135C24.9853 21.7827 31.1567 15.5947 38.7715 15.5928C46.3857 15.59 52.5605 21.7751 52.5624 29.4063C52.5622 29.4064 52.5622 29.4107 52.5622 29.4135Z" fill="#F7981D"/>
<path d="M20.1924 15.5962C12.6222 15.6449 6.49298 21.8158 6.49298 29.4135C6.49298 37.0411 12.6696 43.2308 20.2809 43.2308C23.8513 43.2308 27.1075 41.8661 29.5574 39.6303L29.5569 39.6289H29.5588C30.0614 39.1712 30.5294 38.6772 30.9591 38.1491H28.135C27.7574 37.6938 27.4145 37.2182 27.1066 36.727H31.9777C32.2752 36.2519 32.5424 35.7574 32.7816 35.2472H26.3033C26.0822 34.772 25.8902 34.2884 25.7268 33.7962H33.3582C33.8191 32.4177 34.0677 30.9441 34.0677 29.4135C34.0677 28.3974 33.9573 27.4078 33.7504 26.4543H25.3218C25.427 25.9636 25.5582 25.478 25.7145 25.0033H33.3497C33.1791 24.4961 32.9806 24.0028 32.7552 23.523H26.3025C26.535 23.0261 26.7988 22.5406 27.0931 22.0721H31.9613C31.6368 21.5548 31.2787 21.0607 30.8916 20.5927H28.1774C28.5976 20.0977 29.0589 19.631 29.5596 19.1977C27.1105 16.9608 23.8539 15.5961 20.2817 15.5961C20.2507 15.5962 20.2213 15.5962 20.1924 15.5962Z" fill="#CB2026"/>
<path d="M25.2383 32.9311L25.4226 31.6809C25.3222 31.6809 25.1743 31.7236 25.0441 31.7236C24.5334 31.7236 24.4765 31.4516 24.5097 31.2504L24.9223 28.6985H25.6987L25.8863 27.3148H25.1544L25.3037 26.4554H23.8353C23.8035 26.4876 22.9685 31.2934 22.9685 31.8774C22.9685 32.7438 23.4531 33.1298 24.138 33.1241C24.6731 33.1192 25.0914 32.9709 25.2383 32.9311Z" fill="white"/>
<path d="M25.7039 30.547C25.7039 32.6261 27.0724 33.1206 28.2392 33.1206C29.3164 33.1206 29.7896 32.8785 29.7896 32.8785L30.0488 31.4594C30.0488 31.4594 29.2298 31.8232 28.4898 31.8232C26.9138 31.8232 27.1901 30.6447 27.1901 30.6447H30.1738C30.1738 30.6447 30.3656 29.6906 30.3656 29.3022C30.3656 28.3335 29.8834 27.1521 28.2723 27.1521C26.7958 27.1525 25.7039 28.7455 25.7039 30.547ZM28.2785 28.4688C29.1066 28.4688 28.9536 29.402 28.9536 29.4773H27.324C27.3235 29.3812 27.4776 28.4688 28.2785 28.4688Z" fill="white"/>
<path d="M37.5735 32.931L37.8364 31.3257C37.8364 31.3257 37.116 31.6895 36.6219 31.6895C35.5807 31.6895 35.1633 30.8908 35.1633 30.0363C35.1633 28.2987 36.0591 27.3428 37.0572 27.3428C37.8048 27.3428 38.4054 27.7643 38.4054 27.7643L38.6446 26.2068C38.6446 26.2068 37.7545 25.8448 36.9919 25.8448C35.297 25.8448 33.6476 27.3167 33.6476 30.0859C33.6476 31.9192 34.5386 33.1322 36.2903 33.1322C36.7852 33.1325 37.5735 32.931 37.5735 32.931Z" fill="white"/>
<path d="M17.1646 27.1748C16.158 27.1748 15.3862 27.4984 15.3862 27.4984L15.1736 28.766C15.1736 28.766 15.8111 28.5074 16.7733 28.5074C17.3199 28.5074 17.7192 28.5685 17.7192 29.0143C17.7192 29.2843 17.6705 29.3842 17.6705 29.3842C17.6705 29.3842 17.2399 29.3477 17.04 29.3477C15.771 29.3477 14.437 29.8906 14.437 31.5286C14.437 32.818 15.3114 33.1145 15.8539 33.1145C16.8899 33.1145 17.3351 32.4414 17.3598 32.4385L17.3114 33.0012H18.6037L19.1807 28.9487C19.1807 27.2301 17.6841 27.1748 17.1646 27.1748ZM17.4796 30.4727C17.5075 30.7204 17.3242 31.881 16.4403 31.881C15.9846 31.881 15.8657 31.5314 15.8657 31.3248C15.8657 30.9226 16.0841 30.439 17.1603 30.439C17.4099 30.439 17.4369 30.4665 17.4796 30.4727Z" fill="white"/>
<path d="M20.5548 33.0836C20.8849 33.0836 22.775 33.1684 22.775 31.2138C22.775 29.3863 21.0257 29.7468 21.0257 29.0125C21.0257 28.6483 21.3109 28.5317 21.8319 28.5317C22.0389 28.5317 22.8352 28.5986 22.8352 28.5986L23.0209 27.2988C23.0209 27.2988 22.5055 27.1841 21.667 27.1841C20.58 27.1841 19.4785 27.617 19.4785 29.1039C19.4785 30.7899 21.3165 30.6193 21.3165 31.3289C21.3165 31.8026 20.8025 31.8415 20.4065 31.8415C19.7225 31.8415 19.1062 31.606 19.1033 31.6169L18.9077 32.902C18.9419 32.914 19.3227 33.0836 20.5548 33.0836Z" fill="white"/>
<path d="M49.7329 26.0089L49.4169 27.9776C49.4169 27.9776 48.864 27.2136 47.9996 27.2136C46.6539 27.2136 45.5331 28.8384 45.5331 30.7062C45.5331 31.9118 46.1304 33.0918 47.3536 33.0918C48.2332 33.0918 48.7197 32.4774 48.7197 32.4774L48.6558 33.0018H50.0835L51.2057 26.0057L49.7329 26.0089ZM49.0516 29.8493C49.0516 30.6257 48.667 31.6625 47.8716 31.6625C47.3429 31.6625 47.0962 31.2182 47.0962 30.5209C47.0962 29.3811 47.6069 28.627 48.251 28.627C48.7802 28.6271 49.0516 28.9918 49.0516 29.8493Z" fill="white"/>
<path d="M9.21536 33.008L10.1102 27.7261L10.2404 33.008H11.2522L13.1389 27.7261L12.3028 33.008H13.8054L14.9637 26.0043H12.6393L11.1922 30.3008L11.1169 26.0043H8.9752L7.80087 33.008H9.21536Z" fill="white"/>
<path d="M31.8336 33.0178C32.2609 30.5834 32.34 28.6057 33.3604 28.9662C33.539 28.0245 33.711 27.6602 33.9052 27.2609C33.9052 27.2609 33.8143 27.2416 33.6218 27.2416C32.9658 27.2416 32.4783 28.1416 32.4783 28.1416L32.608 27.3154H31.2409L30.3262 33.0178H31.8336Z" fill="white"/>
<path d="M40.9604 27.1748C39.9538 27.1748 39.1826 27.4984 39.1826 27.4984L38.9704 28.766C38.9704 28.766 39.6065 28.5074 40.5696 28.5074C41.1157 28.5074 41.516 28.5685 41.516 29.0143C41.516 29.2843 41.4668 29.3842 41.4668 29.3842C41.4668 29.3842 41.0362 29.3477 40.8348 29.3477C39.5653 29.3477 38.2328 29.8906 38.2328 31.5286C38.2328 32.818 39.1077 33.1145 39.6497 33.1145C40.6857 33.1145 41.1314 32.4414 41.1551 32.4385L41.1072 33.0012H42.4004L42.977 28.9487C42.9775 27.2301 41.4815 27.1748 40.9604 27.1748ZM41.2759 30.4727C41.3038 30.7204 41.1214 31.881 40.2361 31.881C39.7809 31.881 39.6629 31.5314 39.6629 31.3248C39.6629 30.9226 39.8813 30.439 40.9556 30.439C41.2067 30.439 41.2328 30.4665 41.2759 30.4727Z" fill="white"/>
<path d="M44.1574 33.0178C44.5851 30.5834 44.6643 28.6057 45.6845 28.9662C45.8632 28.0245 46.0351 27.6602 46.2303 27.2609C46.2303 27.2609 46.1379 27.2416 45.9466 27.2416C45.2886 27.2416 44.8026 28.1416 44.8026 28.1416L44.9334 27.3154H43.5654L42.6502 33.0174H44.1575L44.1574 33.0178Z" fill="white"/>
</svg>
