<svg width="232" height="72" viewBox="0 0 232 72" fill="none" xmlns="http://www.w3.org/2000/svg">
<path d="M0 0H232V52C232 63.0457 223.046 72 212 72H0V0Z" fill="#62DF00" fill-opacity="0.73"/>
<path d="M0 0H232V52C232 63.0457 223.046 72 212 72H0V0Z" fill="url(#paint0_linear)"/>
<g filter="url(#filter0_d)">
<path d="M95.1562 43.9182H92.08V28.635H84.2553V43.9182H81.1792V26.1448H95.1562V43.9182ZM98.0493 37.1921C98.0493 35.8982 98.3056 34.7345 98.8183 33.7009C99.331 32.6593 100.051 31.8617 100.979 31.3083C101.907 30.7468 102.973 30.4661 104.177 30.4661C105.959 30.4661 107.404 31.0398 108.511 32.1873C109.626 33.3347 110.228 34.8565 110.317 36.7527L110.33 37.4485C110.33 38.7506 110.077 39.9143 109.573 40.9397C109.076 41.9651 108.36 42.7585 107.424 43.3201C106.497 43.8816 105.422 44.1624 104.202 44.1624C102.338 44.1624 100.845 43.5439 99.7216 42.3069C98.6067 41.0618 98.0493 39.4057 98.0493 37.3386V37.1921ZM101.016 37.4485C101.016 38.8075 101.296 39.8736 101.858 40.6467C102.419 41.4117 103.201 41.7942 104.202 41.7942C105.203 41.7942 105.98 41.4036 106.533 40.6223C107.095 39.8411 107.375 38.6977 107.375 37.1921C107.375 35.8575 107.087 34.7996 106.509 34.0183C105.939 33.2371 105.162 32.8464 104.177 32.8464C103.209 32.8464 102.44 33.233 101.87 34.0061C101.3 34.7711 101.016 35.9185 101.016 37.4485ZM121.084 30.7102H124.038V43.9182H121.084V35.1047L115.908 43.9182H112.954V30.7102H115.908V39.5237L121.084 30.7102ZM132.62 41.7942C133.36 41.7942 133.975 41.5785 134.463 41.1472C134.951 40.7159 135.212 40.1829 135.244 39.5481H138.04C138.007 40.37 137.751 41.1391 137.27 41.8552C136.79 42.5632 136.139 43.1248 135.317 43.5398C134.495 43.9548 133.608 44.1624 132.656 44.1624C130.809 44.1624 129.344 43.5642 128.262 42.3679C127.179 41.1716 126.638 39.5196 126.638 37.4119V37.1067C126.638 35.0966 127.175 33.4893 128.249 32.2849C129.324 31.0723 130.789 30.4661 132.644 30.4661C134.215 30.4661 135.492 30.9259 136.477 31.8455C137.47 32.7569 137.991 33.9573 138.04 35.4465H135.244C135.212 34.6897 134.951 34.0671 134.463 33.5789C133.983 33.0906 133.368 32.8464 132.62 32.8464C131.659 32.8464 130.919 33.1964 130.398 33.8962C129.877 34.588 129.613 35.6418 129.604 37.0579V37.5339C129.604 38.9662 129.861 40.0364 130.373 40.7444C130.894 41.4443 131.643 41.7942 132.62 41.7942ZM144.973 38.6936H143.472V43.9182H140.505V30.7102H143.472V35.9836H144.778L148.428 30.7102H152.09L147.317 37.0334L152.493 43.9182H148.635L144.973 38.6936Z" fill="white"/>
</g>
<defs>
<filter id="filter0_d" x="66.1792" y="15.1448" width="101.313" height="48.0176" filterUnits="userSpaceOnUse" color-interpolation-filters="sRGB">
<feFlood flood-opacity="0" result="BackgroundImageFix"/>
<feColorMatrix in="SourceAlpha" type="matrix" values="0 0 0 0 0 0 0 0 0 0 0 0 0 0 0 0 0 0 127 0"/>
<feOffset dy="4"/>
<feGaussianBlur stdDeviation="7.5"/>
<feColorMatrix type="matrix" values="0 0 0 0 0 0 0 0 0 0 0 0 0 0 0 0 0 0 0.5 0"/>
<feBlend mode="normal" in2="BackgroundImageFix" result="effect1_dropShadow"/>
<feBlend mode="normal" in="SourceGraphic" in2="effect1_dropShadow" result="shape"/>
</filter>
<linearGradient id="paint0_linear" x1="116" y1="0" x2="116" y2="72" gradientUnits="userSpaceOnUse">
<stop stop-color="white" stop-opacity="0.33"/>
<stop offset="1" stop-opacity="0.46"/>
</linearGradient>
</defs>
</svg>
