<svg width="190" height="54" viewBox="0 0 190 54" fill="none" xmlns="http://www.w3.org/2000/svg">
<path d="M0.502747 0H175C183.284 0 190 6.71573 190 15V38.2641C190 46.5483 183.284 53.2641 175 53.2641H0.502747V0Z" fill="#62DF00" fill-opacity="0.73"/>
<path d="M0.502747 0H175C183.284 0 190 6.71573 190 15V38.2641C190 46.5483 183.284 53.2641 175 53.2641H0.502747V0Z" fill="url(#paint0_linear)"/>
<g filter="url(#filter0_d)">
<path d="M74.9019 34.316H72.1948V20.8668H65.3091V34.316H62.6021V18.6754H74.9019V34.316ZM77.4478 28.3971C77.4478 27.2584 77.6733 26.2343 78.1245 25.3248C78.5757 24.4082 79.2095 23.7063 80.0259 23.2194C80.8423 22.7252 81.7804 22.4781 82.8403 22.4781C84.4087 22.4781 85.6799 22.983 86.6538 23.9928C87.6349 25.0026 88.1649 26.3418 88.2437 28.0104L88.2544 28.6227C88.2544 29.7685 88.0324 30.7926 87.5884 31.6949C87.1515 32.5973 86.5213 33.2955 85.6978 33.7897C84.8813 34.2838 83.936 34.5309 82.8618 34.5309C81.2218 34.5309 79.9077 33.9866 78.9194 32.8981C77.9383 31.8024 77.4478 30.345 77.4478 28.526V28.3971ZM80.0581 28.6227C80.0581 29.8186 80.3052 30.7568 80.7993 31.4371C81.2935 32.1103 81.981 32.4469 82.8618 32.4469C83.7427 32.4469 84.4266 32.1031 84.9136 31.4156C85.4077 30.7281 85.6548 29.722 85.6548 28.3971C85.6548 27.2226 85.4006 26.2916 84.8921 25.6041C84.3908 24.9166 83.7069 24.5729 82.8403 24.5729C81.9881 24.5729 81.3114 24.913 80.8101 25.5934C80.3088 26.2666 80.0581 27.2763 80.0581 28.6227ZM97.7183 22.693H100.318V34.316H97.7183V26.5602L93.1636 34.316H90.564V22.693H93.1636V30.4489L97.7183 22.693ZM107.87 32.4469C108.521 32.4469 109.062 32.2571 109.492 31.8776C109.921 31.498 110.151 31.0289 110.179 30.4703H112.639C112.611 31.1936 112.385 31.8704 111.962 32.5006C111.54 33.1237 110.967 33.6178 110.244 33.983C109.52 34.3483 108.74 34.5309 107.902 34.5309C106.276 34.5309 104.987 34.0045 104.035 32.9518C103.082 31.899 102.606 30.4453 102.606 28.5905V28.3219C102.606 26.553 103.079 25.1386 104.024 24.0787C104.969 23.0117 106.258 22.4781 107.891 22.4781C109.273 22.4781 110.398 22.8828 111.264 23.692C112.138 24.4941 112.596 25.5504 112.639 26.861H110.179C110.151 26.1949 109.921 25.6471 109.492 25.2174C109.069 24.7877 108.528 24.5729 107.87 24.5729C107.025 24.5729 106.373 24.8808 105.915 25.4967C105.456 26.1054 105.223 27.0328 105.216 28.2789V28.6979C105.216 29.9583 105.442 30.9 105.893 31.5231C106.351 32.139 107.01 32.4469 107.87 32.4469ZM118.741 29.7184H117.419V34.316H114.809V22.693H117.419V27.3336H118.569L121.781 22.693H125.003L120.803 28.2574L125.358 34.316H121.963L118.741 29.7184Z" fill="white"/>
</g>
<defs>
<filter id="filter0_d" x="47.6021" y="7.67542" width="92.7559" height="45.8555" filterUnits="userSpaceOnUse" color-interpolation-filters="sRGB">
<feFlood flood-opacity="0" result="BackgroundImageFix"/>
<feColorMatrix in="SourceAlpha" type="matrix" values="0 0 0 0 0 0 0 0 0 0 0 0 0 0 0 0 0 0 127 0"/>
<feOffset dy="4"/>
<feGaussianBlur stdDeviation="7.5"/>
<feColorMatrix type="matrix" values="0 0 0 0 0 0 0 0 0 0 0 0 0 0 0 0 0 0 0.5 0"/>
<feBlend mode="normal" in2="BackgroundImageFix" result="effect1_dropShadow"/>
<feBlend mode="normal" in="SourceGraphic" in2="effect1_dropShadow" result="shape"/>
</filter>
<linearGradient id="paint0_linear" x1="95.2514" y1="0" x2="95.2514" y2="53.2641" gradientUnits="userSpaceOnUse">
<stop stop-color="white" stop-opacity="0.33"/>
<stop offset="1" stop-opacity="0.46"/>
</linearGradient>
</defs>
</svg>
