<svg width="74" height="36" viewBox="0 0 74 36" fill="none" xmlns="http://www.w3.org/2000/svg">
<g clip-path="url(#clip0)">
<path d="M18.0009 36.0001C27.9416 36.0001 36.0002 27.9415 36.0002 18.0008C36.0002 8.06012 27.9416 0.00158691 18.0009 0.00158691C8.06022 0.00158691 0.00167847 8.06012 0.00167847 18.0008C0.00167847 27.9415 8.06022 36.0001 18.0009 36.0001Z" fill="white"/>
<path d="M34.9712 11.9984H23.8808C24.3625 15.8435 24.3653 20.0802 23.8901 23.9301H34.9948C35.6431 22.0728 35.9995 20.0783 35.9995 18.0001C35.9998 15.8947 35.6351 13.8756 34.9712 11.9984Z" fill="#2B479D"/>
<path d="M23.8808 11.9984H34.9709C34.9693 11.9927 34.9675 11.9879 34.9652 11.9828C32.6617 5.48723 26.7359 0.70823 19.6161 0.0738525C22.3716 1.58414 23.1765 6.36914 23.8808 11.9984Z" fill="#EFECEC"/>
<path d="M19.6168 35.9253C26.7493 35.2898 32.6833 30.4943 34.978 23.9813C34.984 23.964 34.9891 23.9469 34.9953 23.9302H23.8904C23.1915 29.5899 22.3833 34.4087 19.6168 35.9253Z" fill="#E63026"/>
<path d="M0 18.0001C0 20.0786 0.356975 22.0728 1.00465 23.9301H24.8167C25.2924 20.0799 25.289 15.8435 24.8078 11.9984H1.02859C0.364651 13.8757 0 15.8947 0 18.0001Z" fill="#3757A6"/>
<path d="M1.03423 11.9829C1.03256 11.988 1.03081 11.9929 1.02853 11.9986H24.8078C24.103 6.36921 22.3716 1.58428 19.6165 0.0739947C19.0835 0.0267983 18.5447 0.000122071 17.9996 0.000122071C10.1694 4.60705e-05 3.51056 5.00097 1.03423 11.9829Z" fill="#EFEFEF"/>
<path d="M24.8166 23.9302H1.00464C1.01064 23.947 1.01627 23.964 1.02197 23.9813C3.48842 30.9811 10.1568 35.9998 17.9996 35.9998C18.5448 35.9998 19.0836 35.973 19.6165 35.9253C22.3833 34.4088 24.1177 29.59 24.8166 23.9302Z" fill="#E73B36"/>
</g>
<path d="M49.6836 27.2188C49.7324 24.8913 49.7568 22.5475 49.7568 20.1875C49.7568 16.5742 49.6999 12.9243 49.5859 9.23779C50.8473 9.10758 51.9785 9.04248 52.9795 9.04248C55.7627 9.04248 57.5368 9.55111 58.3018 10.5684C59.0179 11.5205 59.376 12.5703 59.376 13.7178C59.376 14.2386 59.3068 14.7757 59.1685 15.3291C58.6965 17.1195 57.7036 18.2547 56.1899 18.7349C57.2479 18.8813 58.0495 19.451 58.5947 20.4438C59.1156 21.4041 59.376 23.8211 59.376 27.6948V28.2197L55.6895 28.2686C55.7301 27.2432 55.7505 26.3236 55.7505 25.5098C55.7505 23.0439 55.5511 21.5343 55.1523 20.981C54.6966 20.3625 54.1554 20.0532 53.5288 20.0532C53.4067 20.0532 53.2806 20.0654 53.1504 20.0898C53.1992 22.5719 53.305 24.9238 53.4678 27.1455L49.6836 27.2188ZM52.8086 12.082L52.894 17.3066C54.4077 17.2334 55.368 16.7207 55.7749 15.7686C55.9946 15.264 56.1045 14.7716 56.1045 14.2915C56.1045 13.8765 56.0231 13.4696 55.8604 13.0708C55.5674 12.3791 54.839 12.0332 53.6753 12.0332C53.4067 12.0332 53.1178 12.0495 52.8086 12.082ZM72.9844 9.49414V21.5669C72.9844 25.286 71.2835 27.1455 67.8818 27.1455H67.6133C64.765 26.82 63.292 25.2616 63.1943 22.4702C63.1943 16.8957 63.1374 12.5011 63.0234 9.28662H66.2705C66.1891 11.1258 66.1484 13.2865 66.1484 15.7686C66.1484 17.5101 66.1688 19.4144 66.2095 21.4814C66.2257 22.9951 66.771 23.752 67.8452 23.752C67.8452 23.7601 67.8493 23.7642 67.8574 23.7642C68.9235 23.7642 69.4565 22.7957 69.4565 20.8589L69.3955 9.604L72.9844 9.49414Z" fill="white"/>
<defs>
<clipPath id="clip0">
<rect width="36" height="36" fill="white"/>
</clipPath>
</defs>
</svg>
