<svg width="339" height="58" viewBox="0 0 339 58" fill="none" xmlns="http://www.w3.org/2000/svg">
<path d="M0 0.0662842H338.199V42.9558C338.199 51.2401 331.483 57.9558 323.199 57.9558H15C6.71571 57.9558 0 51.2401 0 42.9558V0.0662842Z" fill="#62DF00" fill-opacity="0.73"/>
<path d="M0 0.0662842H338.199V42.9558C338.199 51.2401 331.483 57.9558 323.199 57.9558H15C6.71571 57.9558 0 51.2401 0 42.9558V0.0662842Z" fill="url(#paint0_linear)"/>
<g filter="url(#filter0_d)">
<path d="M150.318 37H147.611V23.5508H140.726V37H138.019V21.3594H150.318V37ZM152.864 31.0811C152.864 29.9424 153.09 28.9183 153.541 28.0088C153.992 27.0921 154.626 26.3903 155.442 25.9033C156.259 25.4092 157.197 25.1621 158.257 25.1621C159.825 25.1621 161.096 25.667 162.07 26.6768C163.051 27.6865 163.581 29.0257 163.66 30.6943L163.671 31.3066C163.671 32.4525 163.449 33.4766 163.005 34.3789C162.568 35.2812 161.938 35.9795 161.114 36.4736C160.298 36.9678 159.353 37.2148 158.278 37.2148C156.638 37.2148 155.324 36.6706 154.336 35.582C153.355 34.4863 152.864 33.029 152.864 31.21V31.0811ZM155.475 31.3066C155.475 32.5026 155.722 33.4408 156.216 34.1211C156.71 34.7943 157.397 35.1309 158.278 35.1309C159.159 35.1309 159.843 34.7871 160.33 34.0996C160.824 33.4121 161.071 32.4059 161.071 31.0811C161.071 29.9066 160.817 28.9756 160.309 28.2881C159.807 27.6006 159.123 27.2568 158.257 27.2568C157.405 27.2568 156.728 27.597 156.227 28.2773C155.725 28.9505 155.475 29.9603 155.475 31.3066ZM173.135 25.377H175.734V37H173.135V29.2441L168.58 37H165.98V25.377H168.58V33.1328L173.135 25.377ZM183.286 35.1309C183.938 35.1309 184.479 34.9411 184.908 34.5615C185.338 34.182 185.567 33.7129 185.596 33.1543H188.056C188.027 33.8776 187.801 34.5544 187.379 35.1846C186.956 35.8076 186.383 36.3018 185.66 36.667C184.937 37.0322 184.156 37.2148 183.318 37.2148C181.693 37.2148 180.404 36.6885 179.451 35.6357C178.499 34.583 178.022 33.1292 178.022 31.2744V31.0059C178.022 29.237 178.495 27.8226 179.44 26.7627C180.386 25.6956 181.675 25.1621 183.308 25.1621C184.69 25.1621 185.814 25.5667 186.681 26.376C187.554 27.1781 188.013 28.2344 188.056 29.5449H185.596C185.567 28.8789 185.338 28.3311 184.908 27.9014C184.486 27.4717 183.945 27.2568 183.286 27.2568C182.441 27.2568 181.789 27.5648 181.331 28.1807C180.873 28.7894 180.64 29.7168 180.633 30.9629V31.3818C180.633 32.6423 180.858 33.584 181.31 34.207C181.768 34.8229 182.427 35.1309 183.286 35.1309ZM194.157 32.4023H192.836V37H190.226V25.377H192.836V30.0176H193.985L197.197 25.377H200.42L196.22 30.9414L200.774 37H197.38L194.157 32.4023Z" fill="white"/>
</g>
<defs>
<filter id="filter0_d" x="123.019" y="10.3594" width="92.7559" height="45.8555" filterUnits="userSpaceOnUse" color-interpolation-filters="sRGB">
<feFlood flood-opacity="0" result="BackgroundImageFix"/>
<feColorMatrix in="SourceAlpha" type="matrix" values="0 0 0 0 0 0 0 0 0 0 0 0 0 0 0 0 0 0 127 0"/>
<feOffset dy="4"/>
<feGaussianBlur stdDeviation="7.5"/>
<feColorMatrix type="matrix" values="0 0 0 0 0 0 0 0 0 0 0 0 0 0 0 0 0 0 0.5 0"/>
<feBlend mode="normal" in2="BackgroundImageFix" result="effect1_dropShadow"/>
<feBlend mode="normal" in="SourceGraphic" in2="effect1_dropShadow" result="shape"/>
</filter>
<linearGradient id="paint0_linear" x1="169.099" y1="0.0662842" x2="169.099" y2="57.9558" gradientUnits="userSpaceOnUse">
<stop stop-color="white" stop-opacity="0.33"/>
<stop offset="1" stop-opacity="0.46"/>
</linearGradient>
</defs>
</svg>
