<svg width="339" height="226" viewBox="0 0 339 226" fill="none" xmlns="http://www.w3.org/2000/svg">
<rect x="1.19897" y="1" width="336" height="224" rx="14" fill="white" fill-opacity="0.87"/>
<rect x="1.19897" y="1" width="336" height="224" rx="14" fill="url(#paint0_linear)"/>
<rect x="1.19897" y="1" width="336" height="224" rx="14" stroke="#00AF31" stroke-width="2"/>
<g filter="url(#filter0_d)">
<path d="M145.602 142.206H129.677C129.31 142.206 129.013 142.495 129.013 142.851V150.628C129.013 150.984 129.31 151.273 129.677 151.273H145.602C145.969 151.273 146.266 150.984 146.266 150.628V142.851C146.266 142.495 145.969 142.206 145.602 142.206ZM144.939 146.073H142.285V143.495H144.939V146.073ZM136.976 147.363V149.984H134.322V147.363H136.976ZM134.322 146.073V143.495H136.976V146.073H134.322ZM138.303 147.363H140.957V149.984H138.303V147.363ZM138.303 146.073V143.495H140.957V146.073H138.303ZM132.995 143.495V146.073H130.341V143.495H132.995ZM130.341 147.363H132.995V149.984H130.341V147.363ZM142.285 149.984V147.363H144.939V149.984H142.285Z" fill="black"/>
<path d="M146.974 134.429H144.901C144.837 133.883 144.694 133.377 144.48 132.962C144.111 132.246 143.567 131.851 142.948 131.851C142.329 131.851 141.785 132.246 141.416 132.962C141.203 133.377 141.059 133.883 140.995 134.429H139.593C139.529 133.883 139.385 133.377 139.171 132.962C138.803 132.246 138.259 131.851 137.64 131.851C137.021 131.851 136.477 132.246 136.108 132.962C135.894 133.377 135.75 133.883 135.687 134.429H134.284C134.221 133.883 134.077 133.377 133.863 132.962C133.494 132.246 132.95 131.851 132.331 131.851C131.712 131.851 131.168 132.246 130.799 132.962C130.586 133.377 130.442 133.883 130.378 134.429H128.306C127.208 134.429 126.315 135.296 126.315 136.363V151.917C126.315 152.983 127.208 153.851 128.306 153.851H146.974C148.071 153.851 148.964 152.983 148.964 151.917V136.363C148.964 135.296 148.071 134.429 146.974 134.429ZM142.603 133.539C142.773 133.209 142.925 133.14 142.948 133.14C142.971 133.14 143.123 133.209 143.293 133.539C143.419 133.783 143.511 134.091 143.563 134.429H142.333C142.385 134.091 142.478 133.783 142.603 133.539ZM137.295 133.539C137.464 133.209 137.617 133.14 137.64 133.14C137.663 133.14 137.815 133.209 137.985 133.539C138.11 133.783 138.203 134.091 138.255 134.429H137.025C137.077 134.091 137.169 133.783 137.295 133.539ZM131.986 133.539C132.156 133.209 132.308 133.14 132.331 133.14C132.354 133.14 132.506 133.209 132.676 133.539C132.802 133.783 132.894 134.091 132.946 134.429H131.716C131.768 134.091 131.861 133.783 131.986 133.539ZM128.306 135.718H132.946C132.894 136.056 132.802 136.364 132.676 136.608C132.506 136.938 132.354 137.007 132.331 137.007C131.965 137.007 131.668 137.296 131.668 137.652C131.668 138.008 131.965 138.296 132.331 138.296C132.95 138.296 133.494 137.901 133.863 137.185C134.077 136.77 134.221 136.264 134.284 135.718H138.255C138.203 136.056 138.11 136.364 137.985 136.608C137.815 136.938 137.663 137.007 137.64 137.007C137.273 137.007 136.976 137.296 136.976 137.652C136.976 138.008 137.273 138.296 137.64 138.296C138.259 138.296 138.803 137.901 139.171 137.185C139.385 136.77 139.529 136.264 139.593 135.718H143.563C143.511 136.056 143.419 136.364 143.293 136.608C143.123 136.938 142.971 137.007 142.948 137.007C142.582 137.007 142.284 137.296 142.284 137.652C142.284 138.008 142.582 138.296 142.948 138.296C143.567 138.296 144.111 137.901 144.48 137.185C144.694 136.77 144.837 136.264 144.901 135.718H146.974C147.339 135.718 147.637 136.007 147.637 136.363V139.628H127.642V136.363C127.642 136.007 127.94 135.718 128.306 135.718ZM146.974 152.562H128.306C127.94 152.562 127.642 152.273 127.642 151.917V140.917H147.637V151.917C147.637 152.273 147.339 152.562 146.974 152.562Z" fill="black"/>
<path d="M312.939 29.94L304.593 21.8335C304.355 21.6021 304.037 21.4751 303.699 21.4751C303.36 21.4751 303.043 21.6023 302.804 21.8335L302.047 22.5697C301.809 22.8007 301.678 23.1093 301.678 23.4383C301.678 23.7672 301.809 24.0862 302.047 24.3172L306.915 29.0567H291.447C290.75 29.0567 290.199 29.587 290.199 30.2646V31.3054C290.199 31.983 290.75 32.5668 291.447 32.5668H306.971L302.047 37.3327C301.809 37.5641 301.678 37.8643 301.678 38.1934C301.678 38.522 301.809 38.8266 302.047 39.0578L302.805 39.7916C303.043 40.023 303.36 40.1491 303.699 40.1491C304.038 40.1491 304.355 40.0214 304.593 39.79L312.939 31.6837C313.178 31.4516 313.309 31.1417 313.308 30.8123C313.309 30.4818 313.178 30.1718 312.939 29.94Z" fill="black"/>
<path d="M312.884 144.581C311.763 143.492 310.428 142.685 308.972 142.197C310.532 141.154 311.557 139.408 311.557 137.433C311.557 134.245 308.887 131.652 305.605 131.652C302.323 131.652 299.653 134.245 299.653 137.433C299.653 139.408 300.677 141.154 302.237 142.197C300.781 142.685 299.446 143.492 298.325 144.581C296.38 146.47 295.31 148.981 295.31 151.652H296.918C296.918 147 300.815 143.214 305.605 143.214C310.394 143.214 314.291 147 314.291 151.652H315.9C315.9 148.981 314.829 146.47 312.884 144.581ZM305.605 141.652C303.21 141.652 301.261 139.759 301.261 137.433C301.261 135.107 303.21 133.214 305.605 133.214C308 133.214 309.948 135.107 309.948 137.433C309.948 139.759 308 141.652 305.605 141.652Z" fill="black"/>
</g>
<line x1="0.198975" y1="57" x2="338.199" y2="57" stroke="#00AF31" stroke-width="2"/>
<path d="M0.198975 113H338.199" stroke="#00AF31" stroke-width="2"/>
<line x1="0.198975" y1="169" x2="338.199" y2="169" stroke="#00AF31" stroke-width="2"/>
<path d="M169.199 113.912L169.199 169.934" stroke="#00AF31" stroke-width="2"/>
<defs>
<filter id="filter0_d" x="116.315" y="11.4751" width="209.585" height="152.376" filterUnits="userSpaceOnUse" color-interpolation-filters="sRGB">
<feFlood flood-opacity="0" result="BackgroundImageFix"/>
<feColorMatrix in="SourceAlpha" type="matrix" values="0 0 0 0 0 0 0 0 0 0 0 0 0 0 0 0 0 0 127 0"/>
<feOffset/>
<feGaussianBlur stdDeviation="5"/>
<feColorMatrix type="matrix" values="0 0 0 0 1 0 0 0 0 1 0 0 0 0 1 0 0 0 0.87 0"/>
<feBlend mode="normal" in2="BackgroundImageFix" result="effect1_dropShadow"/>
<feBlend mode="normal" in="SourceGraphic" in2="effect1_dropShadow" result="shape"/>
</filter>
<linearGradient id="paint0_linear" x1="169.199" y1="0" x2="169.199" y2="226" gradientUnits="userSpaceOnUse">
<stop stop-opacity="0.04"/>
<stop offset="1" stop-color="white" stop-opacity="0"/>
</linearGradient>
</defs>
</svg>
