<svg width="670" height="450" viewBox="0 0 670 450" fill="none" xmlns="http://www.w3.org/2000/svg">
<path d="M39.6123 15.9673C39.5693 15.4409 39.5479 14.9468 39.5479 14.4849C39.5479 12.895 39.7896 11.6704 40.2729 10.811C40.8853 9.70459 41.8843 9.02246 43.27 8.76465C43.9575 8.63574 44.6074 8.57129 45.2197 8.57129C45.8535 8.57129 46.4551 8.64111 47.0244 8.78076C48.1416 9.04932 49.0332 9.65625 49.6992 10.6016C50.3652 11.5361 50.7197 12.8252 50.7627 14.4688V14.9199C50.7627 16.3379 50.5425 17.3745 50.1021 18.0298C49.6187 18.7603 48.813 19.3081 47.6851 19.6733C48.6196 19.813 49.3179 20.1514 49.7798 20.6885C50.2524 21.2256 50.5747 21.9453 50.7466 22.8477C50.854 23.3525 50.9077 23.9004 50.9077 24.4912C50.9077 24.9854 50.8701 25.5171 50.7949 26.0864C50.6445 27.3433 50.1343 28.4282 49.2642 29.3413C48.4048 30.2437 47.0728 30.7163 45.2681 30.7593H45.0264C43.3398 30.7593 41.9917 30.3188 40.9819 29.438C39.9292 28.5356 39.4028 26.5967 39.4028 23.6211V23.5405L43.2861 23.3149C43.2754 23.4868 43.27 23.6533 43.27 23.8145C43.27 25.9092 43.8232 26.9941 44.9297 27.0693C45.0049 27.0801 45.0801 27.0854 45.1553 27.0854C46.1973 27.0854 46.8203 26.5322 47.0244 25.4258C47.0889 25.1143 47.1211 24.8188 47.1211 24.5396C47.1211 23.7554 46.8955 23.0732 46.4443 22.4932C45.8213 21.709 44.7954 21.3169 43.3667 21.3169L43.1895 18.4648C43.3613 18.4756 43.5225 18.481 43.6729 18.481C44.9189 18.481 45.7783 18.1211 46.251 17.4014C46.6914 16.7246 46.9116 15.8545 46.9116 14.791C46.9116 14.5762 46.9009 14.3613 46.8794 14.1465C46.7935 12.8574 46.2188 12.2129 45.1553 12.2129H44.9619C43.9092 12.2881 43.3828 13.3408 43.3828 15.3711C43.3828 15.6074 43.3882 15.8652 43.3989 16.1445L39.6123 15.9673ZM59.1577 14.1787C62.6919 14.3721 64.459 16.1499 64.459 19.5122V30.9526L60.7046 31.0171L60.5757 29.4863C59.8022 30.3672 58.7764 30.8076 57.498 30.8076C56.9502 30.8076 56.3594 30.7217 55.7256 30.5498C53.8242 30.0771 52.8735 28.6055 52.8735 26.1348C52.8735 25.834 52.8896 25.5117 52.9219 25.168C53.1367 22.6221 54.9468 21.3491 58.3521 21.3491C59.0073 21.3491 59.7271 21.3975 60.5112 21.4941V19.625C60.5112 18.1104 60.0332 17.353 59.0771 17.353H59.0127C58.9375 17.3423 58.8677 17.3369 58.8032 17.3369C57.7612 17.3369 57.2402 18.1855 57.2402 19.8828V20.1245L53.4053 19.8022C53.4053 16.0532 55.21 14.1787 58.8193 14.1787H59.1577ZM60.5112 26.9082V24.0723C60.0493 23.9756 59.6304 23.9272 59.2544 23.9272C58.2769 23.9272 57.6108 24.2549 57.2563 24.9102C57.0415 25.3076 56.9341 25.6782 56.9341 26.022C56.9341 26.4517 57.106 26.833 57.4497 27.166C57.7183 27.4238 58.0674 27.5527 58.4971 27.5527C59.0449 27.5527 59.7163 27.3379 60.5112 26.9082ZM70.8882 18.3198C70.2114 18.5562 69.7495 19.4316 69.5024 20.9463C69.3521 21.8486 69.2769 22.7563 69.2769 23.6694C69.2769 24.2817 69.3091 24.8994 69.3735 25.5225C69.5454 27.0693 70.0986 27.8696 71.0332 27.9233H71.146C72.0161 27.9233 72.6123 27.3486 72.9346 26.1992C73.2031 25.2432 73.3374 24.1099 73.3374 22.7993C73.3374 22.4771 73.332 22.1494 73.3213 21.8164C73.2354 20.0869 72.9775 19.0073 72.5479 18.5776C72.2793 18.3198 71.957 18.1909 71.5811 18.1909C71.3662 18.1909 71.1353 18.2339 70.8882 18.3198ZM68.3584 16.4023C69.3896 14.8877 70.4102 14.3022 71.4199 14.646C75.0723 14.646 76.8984 17.1812 76.8984 22.2515C76.8984 22.4556 76.8931 22.6597 76.8823 22.8638C76.7319 28.353 74.7876 31.1245 71.0493 31.1782C71.0063 31.189 70.9634 31.1943 70.9204 31.1943C67.3647 31.1943 65.5869 28.6001 65.5869 23.4116V22.9604C65.6299 20.6831 65.7319 18.6958 65.8931 16.9985C66.0542 15.3013 66.3657 13.6846 66.8276 12.1484C67.3003 10.6016 67.7676 9.72607 68.2295 9.52197C68.7021 9.30713 69.814 9.14062 71.5649 9.02246C73.3159 8.89355 74.1484 8.18994 74.0625 6.91162L77.3979 8.8291C76.7104 11.2139 75.6631 12.2183 74.2559 11.8423C72.8486 11.4556 71.4844 11.4126 70.1631 11.7134C68.8418 12.0034 68.2402 13.5664 68.3584 16.4023ZM77.7686 14.5815L81.9902 14.2432C81.8936 17.4658 81.8452 20.1191 81.8452 22.2031C81.8452 22.9873 81.856 23.6909 81.8774 24.314C81.9204 26.6128 82.436 27.7944 83.4243 27.8589C83.4888 27.8696 83.5479 27.875 83.6016 27.875C84.4824 27.875 85.041 27.3701 85.2773 26.3604C85.4062 25.7695 85.4707 24.3677 85.4707 22.1548C85.4707 20.3823 85.4277 18.0942 85.3418 15.2905L89.3057 15.0005C89.3486 18.2769 89.3701 21.0913 89.3701 23.4438C89.3701 26.3765 89.3379 28.5894 89.2734 30.0825C89.166 32.7681 88.3979 34.8091 86.9692 36.2056C85.6802 37.4731 83.8701 38.1069 81.5391 38.1069C81.2705 38.1069 80.9966 38.0962 80.7173 38.0747L80.2661 34.1431C80.4702 34.1538 80.6689 34.1592 80.8623 34.1592C82.667 34.1592 83.9023 33.8423 84.5684 33.2085C85.2559 32.5532 85.5996 31.5005 85.5996 30.0503V29.7925C84.9873 30.7593 84.0474 31.2427 82.7798 31.2427H82.5542C81.1685 31.1782 80.0942 30.6357 79.3315 29.6152C78.5688 28.584 78.1499 27.1445 78.0747 25.2969C78.0103 23.4385 77.9082 19.8667 77.7686 14.5815ZM100.053 28.3745C100.139 25.646 100.182 23.229 100.182 21.1235C100.182 19.9849 100.166 18.9482 100.134 18.0137L96.9756 18.1104C96.9863 18.9697 96.9917 19.7754 96.9917 20.5273C96.9917 24.6094 96.7876 27.1606 96.3794 28.1812L100.053 28.3745ZM92.0449 27.9556C92.0771 27.9448 92.1094 27.9341 92.1416 27.9233C92.8076 27.6226 93.1406 26.5752 93.1406 24.7812V24.5234C93.1084 22.5684 93.0117 19.4048 92.8506 15.0327L93.7046 14.9683L93.6885 14.5171L103.872 14.3237C103.861 15.3335 103.856 16.3379 103.856 17.3369C103.856 21.0967 103.937 24.8457 104.098 28.584L105.097 28.6323V33.6436L102.261 34.1108L101.874 31.1782L93.6724 30.9526V34.2075L90.627 34.3042V27.8911L92.0449 27.9556ZM110.575 14.9683C110.468 17.2671 110.414 19.2651 110.414 20.9624C110.94 20.2427 111.606 19.8184 112.412 19.6895C112.552 19.6787 112.686 19.6733 112.815 19.6733C116.059 19.6733 117.713 21.478 117.778 25.0874V25.2808C117.778 28.8901 116.054 30.6948 112.605 30.6948C111.789 30.6948 111.01 30.2705 110.269 29.4219L110.156 31.1782L106.627 31.1621C106.681 28.3691 106.708 25.6782 106.708 23.0894C106.708 20.2534 106.676 17.5464 106.611 14.9683H110.575ZM110.414 23.1055L110.333 27.0693C110.849 27.8857 111.504 28.2939 112.299 28.2939C112.385 28.2939 112.477 28.2886 112.573 28.2778C113.486 28.1812 113.991 27.2358 114.088 25.4419C114.099 25.2593 114.104 25.0874 114.104 24.9263C114.104 23.4546 113.717 22.5791 112.944 22.2998C112.708 22.2139 112.471 22.1709 112.235 22.1709C111.612 22.1709 111.005 22.4824 110.414 23.1055ZM119.083 17.5303V14.5171C120.372 14.5386 121.65 14.5493 122.918 14.5493C124.884 14.5493 126.812 14.5171 128.703 14.4526L128.815 17.6592H125.496C125.496 23.0947 125.561 27.4023 125.689 30.582L121.983 30.7432C122.177 25.3184 122.316 20.8979 122.402 17.4819L119.083 17.5303ZM135.47 14.646C139.198 14.646 141.062 17.1221 141.062 22.0742C141.062 22.6758 141.035 23.3203 140.981 24.0078H133.778C133.778 26.7686 134.31 28.1489 135.374 28.1489H135.486C136.421 28.0737 136.888 27.3594 136.888 26.0059C136.888 25.7158 136.867 25.3936 136.824 25.0391L140.659 24.9585C140.659 29.0513 138.87 31.1245 135.293 31.1782C135.25 31.189 135.212 31.1943 135.18 31.1943C131.775 31.1943 130.072 28.6108 130.072 23.4438V22.9604C130.18 17.4175 131.979 14.646 135.47 14.646ZM133.392 21.043H137.033V20.6562C137.033 18.7012 136.48 17.7236 135.374 17.7236C134.181 17.7236 133.521 18.8301 133.392 21.043ZM153.984 14.646C157.637 14.646 159.463 17.1812 159.463 22.2515C159.463 22.4556 159.458 22.6597 159.447 22.8638C159.296 28.353 157.352 31.1245 153.614 31.1782C153.571 31.189 153.528 31.1943 153.485 31.1943C149.929 31.1943 148.151 28.6001 148.151 23.4116V22.9604C148.259 17.4175 150.203 14.646 153.984 14.646ZM153.453 18.3198C152.776 18.5562 152.314 19.4316 152.067 20.9463C151.917 21.8486 151.841 22.7563 151.841 23.6694C151.841 24.2817 151.874 24.8994 151.938 25.5225C152.11 27.0693 152.663 27.8696 153.598 27.9233H153.71C154.581 27.9233 155.177 27.3486 155.499 26.1992C155.768 25.2432 155.902 24.1099 155.902 22.7993C155.902 22.4771 155.896 22.1494 155.886 21.8164C155.8 20.0869 155.542 19.0073 155.112 18.5776C154.844 18.3198 154.521 18.1909 154.146 18.1909C153.931 18.1909 153.7 18.2339 153.453 18.3198ZM177.784 14.4849C177.676 19.7378 177.569 25.3936 177.461 31.4521H174.303V24.6362H170.323V30.9043L166.521 30.8882C166.628 28.0308 166.682 25.2324 166.682 22.4932C166.682 19.7646 166.628 17.0952 166.521 14.4849H170.162L170.001 21.3169L173.981 21.4458V14.2109L177.784 14.4849ZM184.455 14.646C188.182 14.646 190.046 17.1221 190.046 22.0742C190.046 22.6758 190.019 23.3203 189.965 24.0078H182.763C182.763 26.7686 183.294 28.1489 184.358 28.1489H184.471C185.405 28.0737 185.873 27.3594 185.873 26.0059C185.873 25.7158 185.851 25.3936 185.808 25.0391L189.643 24.9585C189.643 29.0513 187.854 31.1245 184.277 31.1782C184.234 31.189 184.197 31.1943 184.165 31.1943C180.759 31.1943 179.057 28.6108 179.057 23.4438V22.9604C179.164 17.4175 180.963 14.646 184.455 14.646ZM182.376 21.043H186.018V20.6562C186.018 18.7012 185.464 17.7236 184.358 17.7236C183.166 17.7236 182.505 18.8301 182.376 21.043ZM191.238 14.5815L195.46 14.2432C195.363 17.4658 195.315 20.1191 195.315 22.2031C195.315 22.9873 195.326 23.6909 195.347 24.314C195.39 26.6128 195.906 27.7944 196.894 27.8589C196.958 27.8696 197.018 27.875 197.071 27.875C197.952 27.875 198.511 27.3701 198.747 26.3604C198.876 25.7695 198.94 24.3677 198.94 22.1548C198.94 20.3823 198.897 18.0942 198.812 15.2905L202.775 15.0005C202.818 18.2769 202.84 21.0913 202.84 23.4438C202.84 26.3765 202.808 28.5894 202.743 30.0825C202.636 32.7681 201.868 34.8091 200.439 36.2056C199.15 37.4731 197.34 38.1069 195.009 38.1069C194.74 38.1069 194.466 38.0962 194.187 38.0747L193.736 34.1431C193.94 34.1538 194.139 34.1592 194.332 34.1592C196.137 34.1592 197.372 33.8423 198.038 33.2085C198.726 32.5532 199.069 31.5005 199.069 30.0503V29.7925C198.457 30.7593 197.517 31.2427 196.25 31.2427H196.024C194.638 31.1782 193.564 30.6357 192.801 29.6152C192.039 28.584 191.62 27.1445 191.544 25.2969C191.48 23.4385 191.378 19.8667 191.238 14.5815ZM213.523 28.3745C213.609 25.646 213.652 23.229 213.652 21.1235C213.652 19.9849 213.636 18.9482 213.604 18.0137L210.445 18.1104C210.456 18.9697 210.461 19.7754 210.461 20.5273C210.461 24.6094 210.257 27.1606 209.849 28.1812L213.523 28.3745ZM205.515 27.9556C205.547 27.9448 205.579 27.9341 205.611 27.9233C206.277 27.6226 206.61 26.5752 206.61 24.7812V24.5234C206.578 22.5684 206.481 19.4048 206.32 15.0327L207.174 14.9683L207.158 14.5171L217.342 14.3237C217.331 15.3335 217.326 16.3379 217.326 17.3369C217.326 21.0967 217.406 24.8457 217.567 28.584L218.566 28.6323V33.6436L215.73 34.1108L215.344 31.1782L207.142 30.9526V34.2075L204.097 34.3042V27.8911L205.515 27.9556ZM225.656 14.646C229.309 14.646 231.135 17.1812 231.135 22.2515C231.135 22.4556 231.129 22.6597 231.119 22.8638C230.968 28.353 229.024 31.1245 225.286 31.1782C225.243 31.189 225.2 31.1943 225.157 31.1943C221.601 31.1943 219.823 28.6001 219.823 23.4116V22.9604C219.931 17.4175 221.875 14.646 225.656 14.646ZM225.125 18.3198C224.448 18.5562 223.986 19.4316 223.739 20.9463C223.588 21.8486 223.513 22.7563 223.513 23.6694C223.513 24.2817 223.545 24.8994 223.61 25.5225C223.782 27.0693 224.335 27.8696 225.27 27.9233H225.382C226.252 27.9233 226.849 27.3486 227.171 26.1992C227.439 25.2432 227.574 24.1099 227.574 22.7993C227.574 22.4771 227.568 22.1494 227.558 21.8164C227.472 20.0869 227.214 19.0073 226.784 18.5776C226.516 18.3198 226.193 18.1909 225.817 18.1909C225.603 18.1909 225.372 18.2339 225.125 18.3198ZM237.177 18.3198C236.5 18.5562 236.039 19.4316 235.792 20.9463C235.641 21.8486 235.566 22.7563 235.566 23.6694C235.566 24.2817 235.598 24.8994 235.663 25.5225C235.834 27.0693 236.388 27.8696 237.322 27.9233H237.435C238.305 27.9233 238.901 27.3486 239.224 26.1992C239.492 25.2432 239.626 24.1099 239.626 22.7993C239.626 22.4771 239.621 22.1494 239.61 21.8164C239.524 20.0869 239.267 19.0073 238.837 18.5776C238.568 18.3198 238.246 18.1909 237.87 18.1909C237.655 18.1909 237.424 18.2339 237.177 18.3198ZM234.647 16.4023C235.679 14.8877 236.699 14.3022 237.709 14.646C241.361 14.646 243.188 17.1812 243.188 22.2515C243.188 22.4556 243.182 22.6597 243.171 22.8638C243.021 28.353 241.077 31.1245 237.338 31.1782C237.295 31.189 237.252 31.1943 237.209 31.1943C233.654 31.1943 231.876 28.6001 231.876 23.4116V22.9604C231.919 20.6831 232.021 18.6958 232.182 16.9985C232.343 15.3013 232.655 13.6846 233.117 12.1484C233.589 10.6016 234.057 9.72607 234.519 9.52197C234.991 9.30713 236.103 9.14062 237.854 9.02246C239.605 8.89355 240.438 8.18994 240.352 6.91162L243.687 8.8291C243 11.2139 241.952 12.2183 240.545 11.8423C239.138 11.4556 237.773 11.4126 236.452 11.7134C235.131 12.0034 234.529 13.5664 234.647 16.4023ZM250.68 24.5557L254.515 24.7974C254.515 28.6753 252.727 30.6411 249.149 30.6948C249.106 30.7056 249.069 30.7109 249.037 30.7109C245.631 30.7109 243.929 28.1274 243.929 22.9604V22.4771C244.036 16.9341 245.852 14.1357 249.375 14.082H249.504C252.748 14.082 254.37 15.9404 254.37 19.6572C254.37 19.8721 254.365 20.0869 254.354 20.3018L250.89 20.5596V20.1729C250.89 18.2178 250.336 17.2402 249.23 17.2402C248.102 17.2402 247.538 18.8247 247.538 21.9937V22.5254C247.603 25.9521 248.172 27.6655 249.246 27.6655H249.343C250.277 27.5903 250.745 26.876 250.745 25.5225C250.745 25.2324 250.723 24.9102 250.68 24.5557ZM255.981 17.5303V14.5171C257.271 14.5386 258.549 14.5493 259.816 14.5493C261.782 14.5493 263.71 14.5171 265.601 14.4526L265.714 17.6592H262.395C262.395 23.0947 262.459 27.4023 262.588 30.582L258.882 30.7432C259.075 25.3184 259.215 20.8979 259.301 17.4819L255.981 17.5303ZM270.967 17.1274L271.08 21.9937C272.82 21.9185 273.926 21.4351 274.399 20.5435C274.646 20.0815 274.77 19.625 274.77 19.1738C274.77 18.7979 274.678 18.4219 274.496 18.0459C274.163 17.4014 273.319 17.0791 271.966 17.0791C271.665 17.0791 271.332 17.0952 270.967 17.1274ZM271.241 24.314V28.1167C271.456 28.1167 271.66 28.1167 271.853 28.1167C273.604 28.1167 274.71 27.7354 275.172 26.9727C275.419 26.543 275.543 26.1509 275.543 25.7964C275.543 25.4634 275.425 25.168 275.188 24.9102C274.78 24.4912 273.84 24.2817 272.369 24.2817C272.025 24.2817 271.649 24.2925 271.241 24.314ZM267.357 30.9849C267.39 28.8794 267.406 26.8062 267.406 24.7651C267.406 21.2524 267.352 17.8418 267.245 14.5332C268.834 14.3936 270.231 14.3237 271.434 14.3237C273.636 14.3237 275.167 14.5547 276.026 15.0166C277.337 15.7256 278.078 16.6816 278.25 17.8848C278.282 18.1963 278.298 18.4971 278.298 18.7871C278.298 19.6035 278.126 20.3179 277.783 20.9302C277.31 21.7466 276.461 22.332 275.237 22.6865C276.601 22.8584 277.579 23.2559 278.169 23.8789C278.664 24.4053 278.911 25.1572 278.911 26.1348C278.911 26.3281 278.9 26.5269 278.878 26.731C278.771 28.0093 278.266 28.9653 277.364 29.5991C276.472 30.2329 275.226 30.668 273.625 30.9043C272.734 31.0332 271.681 31.0977 270.467 31.0977C269.522 31.0977 268.485 31.0601 267.357 30.9849ZM286.194 14.1787C289.728 14.3721 291.495 16.1499 291.495 19.5122V30.9526L287.741 31.0171L287.612 29.4863C286.838 30.3672 285.812 30.8076 284.534 30.8076C283.986 30.8076 283.396 30.7217 282.762 30.5498C280.86 30.0771 279.91 28.6055 279.91 26.1348C279.91 25.834 279.926 25.5117 279.958 25.168C280.173 22.6221 281.983 21.3491 285.388 21.3491C286.043 21.3491 286.763 21.3975 287.547 21.4941V19.625C287.547 18.1104 287.069 17.353 286.113 17.353H286.049C285.974 17.3423 285.904 17.3369 285.839 17.3369C284.797 17.3369 284.276 18.1855 284.276 19.8828V20.1245L280.441 19.8022C280.441 16.0532 282.246 14.1787 285.855 14.1787H286.194ZM287.547 26.9082V24.0723C287.085 23.9756 286.667 23.9272 286.291 23.9272C285.313 23.9272 284.647 24.2549 284.292 24.9102C284.078 25.3076 283.97 25.6782 283.97 26.022C283.97 26.4517 284.142 26.833 284.486 27.166C284.754 27.4238 285.104 27.5527 285.533 27.5527C286.081 27.5527 286.752 27.3379 287.547 26.9082ZM296.829 14.3398L298.521 20.6724L300.196 14.2915L304.45 14.791C303.462 16.8857 302.409 19.437 301.292 22.4448C302.28 25.0444 303.371 27.7031 304.563 30.4209L300.406 30.8721L298.375 24.6685L296.442 30.8237L292.494 30.3081C293.644 27.6978 294.729 25.1304 295.749 22.606L292.591 14.9844L296.829 14.3398ZM308.221 31.2749C307.576 31.2749 307.023 31.0439 306.561 30.582C306.099 30.1201 305.868 29.5669 305.868 28.9224C305.868 28.2671 306.099 27.7085 306.561 27.2466C307.023 26.7847 307.576 26.5537 308.221 26.5537C308.876 26.5537 309.435 26.7847 309.896 27.2466C310.358 27.7085 310.589 28.2671 310.589 28.9224C310.589 29.5669 310.358 30.1201 309.896 30.582C309.435 31.0439 308.876 31.2749 308.221 31.2749ZM316.986 30.5498C319.006 21.376 320.639 13.5986 321.885 7.21777L327.927 7.12109C329.41 13.7598 331.107 21.3223 333.019 29.8086L328.894 30.6465L327.589 24.5396H322.578L321.224 31.1299L316.986 30.5498ZM327.46 20.0117C326.901 17.6914 325.988 14.9146 324.721 11.6812C323.743 14.3989 322.916 17.2134 322.239 20.1245L327.46 20.0117ZM336.354 14.2271L336.516 16.8535C336.967 15.457 338.154 14.748 340.077 14.7266H340.141C342.032 14.7266 343.321 15.4678 344.008 16.9502C344.481 17.96 344.717 20.3232 344.717 24.04C344.717 25.8662 344.658 28.0254 344.54 30.5176H340.641C340.78 27.1982 340.85 24.6255 340.85 22.7993C340.85 21.8862 340.834 21.1558 340.802 20.6079C340.694 18.9966 340.179 18.1909 339.255 18.1909C338.331 18.1909 337.751 18.6206 337.515 19.48L337.676 31.1621L333.889 31.1943C333.889 26.2529 333.723 20.7046 333.39 14.5493L336.354 14.2271ZM348.746 9.50586L352.403 9.26416V14.5977L355.481 14.5171L355.529 17.5625L352.403 17.7075V25.0391C352.403 26.7471 353.128 27.6011 354.579 27.6011C354.879 27.6011 355.207 27.5635 355.562 27.4883L355.417 31.0332C354.901 31.0977 354.412 31.1299 353.95 31.1299C350.556 31.1299 348.826 29.3789 348.762 25.877V17.9976L346.119 18.1587L346.055 14.5654L348.762 14.5977L348.746 9.50586ZM362.555 14.646C366.207 14.646 368.033 17.1812 368.033 22.2515C368.033 22.4556 368.028 22.6597 368.017 22.8638C367.867 28.353 365.922 31.1245 362.184 31.1782C362.141 31.189 362.098 31.1943 362.055 31.1943C358.5 31.1943 356.722 28.6001 356.722 23.4116V22.9604C356.829 17.4175 358.773 14.646 362.555 14.646ZM362.023 18.3198C361.346 18.5562 360.884 19.4316 360.637 20.9463C360.487 21.8486 360.412 22.7563 360.412 23.6694C360.412 24.2817 360.444 24.8994 360.508 25.5225C360.68 27.0693 361.233 27.8696 362.168 27.9233H362.281C363.151 27.9233 363.747 27.3486 364.069 26.1992C364.338 25.2432 364.472 24.1099 364.472 22.7993C364.472 22.4771 364.467 22.1494 364.456 21.8164C364.37 20.0869 364.112 19.0073 363.683 18.5776C363.414 18.3198 363.092 18.1909 362.716 18.1909C362.501 18.1909 362.27 18.2339 362.023 18.3198ZM371.9 14.2271L372.062 16.8535C372.513 15.457 373.7 14.748 375.623 14.7266H375.687C377.578 14.7266 378.867 15.4678 379.554 16.9502C380.027 17.96 380.263 20.3232 380.263 24.04C380.263 25.8662 380.204 28.0254 380.086 30.5176H376.187C376.326 27.1982 376.396 24.6255 376.396 22.7993C376.396 21.8862 376.38 21.1558 376.348 20.6079C376.24 18.9966 375.725 18.1909 374.801 18.1909C373.877 18.1909 373.297 18.6206 373.061 19.48L373.222 31.1621L369.435 31.1943C369.435 26.2529 369.269 20.7046 368.936 14.5493L371.9 14.2271ZM386.112 10.9399C386.112 11.5952 385.881 12.1538 385.419 12.6157C384.958 13.0776 384.399 13.3086 383.744 13.3086C383.099 13.3086 382.546 13.0776 382.084 12.6157C381.622 12.1538 381.391 11.5952 381.391 10.9399C381.391 10.2954 381.622 9.74219 382.084 9.28027C382.546 8.81836 383.099 8.5874 383.744 8.5874C384.399 8.5874 384.958 8.81836 385.419 9.28027C385.881 9.74219 386.112 10.2954 386.112 10.9399ZM381.794 31.2749C381.719 24.9907 381.681 19.5605 381.681 14.9844L385.742 14.7427C385.613 19.1255 385.548 23.4814 385.548 27.8105C385.548 28.9707 385.554 30.1255 385.564 31.2749H381.794ZM392.687 14.646C396.339 14.646 398.165 17.1812 398.165 22.2515C398.165 22.4556 398.16 22.6597 398.149 22.8638C397.999 28.353 396.054 31.1245 392.316 31.1782C392.273 31.189 392.23 31.1943 392.187 31.1943C388.631 31.1943 386.854 28.6001 386.854 23.4116V22.9604C386.961 17.4175 388.905 14.646 392.687 14.646ZM392.155 18.3198C391.478 18.5562 391.016 19.4316 390.769 20.9463C390.619 21.8486 390.543 22.7563 390.543 23.6694C390.543 24.2817 390.576 24.8994 390.64 25.5225C390.812 27.0693 391.365 27.8696 392.3 27.9233H392.413C393.283 27.9233 393.879 27.3486 394.201 26.1992C394.47 25.2432 394.604 24.1099 394.604 22.7993C394.604 22.4771 394.599 22.1494 394.588 21.8164C394.502 20.0869 394.244 19.0073 393.814 18.5776C393.546 18.3198 393.224 18.1909 392.848 18.1909C392.633 18.1909 392.402 18.2339 392.155 18.3198ZM409.477 10.9077L409.589 17.8203C411.587 17.7129 412.855 17.0308 413.392 15.7739C413.682 15.1079 413.827 14.4526 413.827 13.8081C413.827 13.271 413.72 12.7393 413.505 12.2129C413.129 11.2998 412.167 10.8433 410.621 10.8433C410.277 10.8433 409.896 10.8647 409.477 10.9077ZM409.783 21.1396V26.5376C410.03 26.5483 410.266 26.5537 410.492 26.5537C412.49 26.5537 413.752 26.0059 414.278 24.9102C414.568 24.2979 414.713 23.7446 414.713 23.2505C414.713 22.7671 414.574 22.3428 414.294 21.9775C413.833 21.3867 412.758 21.0913 411.072 21.0913C410.674 21.0913 410.245 21.1074 409.783 21.1396ZM405.335 30.6304C405.378 27.6333 405.4 24.6846 405.4 21.7842C405.4 16.7783 405.335 11.9175 405.207 7.20166C407.033 7.0083 408.633 6.91162 410.008 6.91162C412.533 6.91162 414.284 7.23926 415.261 7.89453C416.765 8.9043 417.614 10.2686 417.807 11.9873C417.85 12.4277 417.872 12.8521 417.872 13.2603C417.872 14.4312 417.673 15.4463 417.275 16.3057C416.728 17.4766 415.755 18.3145 414.359 18.8193C415.917 19.0557 417.034 19.6196 417.71 20.5112C418.28 21.2632 418.564 22.3374 418.564 23.7339C418.564 24.0024 418.554 24.2817 418.532 24.5718C418.403 26.3979 417.823 27.7622 416.792 28.6646C415.771 29.5669 414.348 30.1846 412.522 30.5176C411.491 30.7002 410.282 30.7915 408.896 30.7915C407.812 30.7915 406.625 30.7378 405.335 30.6304ZM428.249 31.1943L428.087 28.5679C427.636 29.9644 426.422 30.668 424.446 30.6787C424.424 30.6895 424.408 30.6948 424.397 30.6948C422.442 30.6948 421.148 29.814 420.514 28.0522C420.084 26.8813 419.87 24.459 419.87 20.7852C419.87 18.8945 419.929 16.6655 420.047 14.0981H423.962C423.748 17.7075 423.64 20.4844 423.64 22.4287C423.64 23.4062 423.667 24.1689 423.721 24.7168C423.882 26.3926 424.424 27.2305 425.348 27.2305C426.272 27.2305 426.852 26.7954 427.088 25.9253L426.927 14.7427L430.714 14.7104C430.714 19.3296 430.88 24.7114 431.213 30.856L428.249 31.1943ZM432.357 25.4741L436.047 25.2969V25.5063C436.047 27.1606 436.558 27.9985 437.578 28.02H437.643C438.631 28.02 439.125 27.542 439.125 26.5859V26.4731C439.082 25.4204 438.104 24.5718 436.192 23.9272C434.291 23.2827 433.147 22.1978 432.76 20.6724C432.621 20.1353 432.551 19.6196 432.551 19.1255C432.551 18.2231 432.782 17.3853 433.244 16.6118C433.953 15.4302 435.027 14.7534 436.466 14.5815C436.853 14.5386 437.229 14.5171 437.594 14.5171C438.55 14.5171 439.394 14.6836 440.124 15.0166C441.123 15.4785 441.816 16.1392 442.203 16.9985C442.46 17.5894 442.589 18.2446 442.589 18.9644C442.589 19.3081 442.562 19.6626 442.509 20.0278L439.061 20.1084C439.093 19.8398 439.109 19.5928 439.109 19.3672C439.109 18.293 438.765 17.7183 438.078 17.6431C438.002 17.6323 437.927 17.627 437.852 17.627C437.143 17.627 436.665 17.9868 436.418 18.7065C436.332 18.9536 436.289 19.1792 436.289 19.3833C436.289 19.8882 436.525 20.3232 436.998 20.6885C437.664 21.2041 438.647 21.7305 439.947 22.2676C441.257 22.7939 442.138 23.6963 442.589 24.9746C442.75 25.458 442.831 25.9414 442.831 26.4248C442.831 27.2412 442.595 28.063 442.122 28.8901C441.37 30.2114 440.205 30.9795 438.625 31.1943C438.282 31.248 437.943 31.2749 437.61 31.2749C436.429 31.2749 435.333 30.9688 434.323 30.3564C433.034 29.5723 432.379 27.9448 432.357 25.4741ZM453.853 17.1274L453.965 21.9937C455.706 21.9185 456.812 21.4351 457.285 20.5435C457.532 20.0815 457.655 19.625 457.655 19.1738C457.655 18.7979 457.564 18.4219 457.381 18.0459C457.048 17.4014 456.205 17.0791 454.852 17.0791C454.551 17.0791 454.218 17.0952 453.853 17.1274ZM454.126 24.314V28.1167C454.341 28.1167 454.545 28.1167 454.739 28.1167C456.49 28.1167 457.596 27.7354 458.058 26.9727C458.305 26.543 458.429 26.1509 458.429 25.7964C458.429 25.4634 458.311 25.168 458.074 24.9102C457.666 24.4912 456.726 24.2817 455.254 24.2817C454.911 24.2817 454.535 24.2925 454.126 24.314ZM450.243 30.9849C450.275 28.8794 450.292 26.8062 450.292 24.7651C450.292 21.2524 450.238 17.8418 450.13 14.5332C451.72 14.3936 453.117 14.3237 454.32 14.3237C456.522 14.3237 458.053 14.5547 458.912 15.0166C460.223 15.7256 460.964 16.6816 461.136 17.8848C461.168 18.1963 461.184 18.4971 461.184 18.7871C461.184 19.6035 461.012 20.3179 460.668 20.9302C460.196 21.7466 459.347 22.332 458.123 22.6865C459.487 22.8584 460.464 23.2559 461.055 23.8789C461.549 24.4053 461.796 25.1572 461.796 26.1348C461.796 26.3281 461.786 26.5269 461.764 26.731C461.657 28.0093 461.152 28.9653 460.25 29.5991C459.358 30.2329 458.112 30.668 456.511 30.9043C455.62 31.0332 454.567 31.0977 453.353 31.0977C452.408 31.0977 451.371 31.0601 450.243 30.9849ZM469.434 24.5557L473.269 24.7974C473.269 28.6753 471.48 30.6411 467.903 30.6948C467.86 30.7056 467.823 30.7109 467.791 30.7109C464.385 30.7109 462.683 28.1274 462.683 22.9604V22.4771C462.79 16.9341 464.605 14.1357 468.129 14.082H468.258C471.502 14.082 473.124 15.9404 473.124 19.6572C473.124 19.8721 473.119 20.0869 473.108 20.3018L469.644 20.5596V20.1729C469.644 18.2178 469.09 17.2402 467.984 17.2402C466.856 17.2402 466.292 18.8247 466.292 21.9937V22.5254C466.356 25.9521 466.926 27.6655 468 27.6655H468.097C469.031 27.5903 469.499 26.876 469.499 25.5225C469.499 25.2324 469.477 24.9102 469.434 24.5557ZM479.843 14.646C483.571 14.646 485.435 17.1221 485.435 22.0742C485.435 22.6758 485.408 23.3203 485.354 24.0078H478.151C478.151 26.7686 478.683 28.1489 479.747 28.1489H479.859C480.794 28.0737 481.261 27.3594 481.261 26.0059C481.261 25.7158 481.24 25.3936 481.197 25.0391L485.032 24.9585C485.032 29.0513 483.243 31.1245 479.666 31.1782C479.623 31.189 479.585 31.1943 479.553 31.1943C476.148 31.1943 474.445 28.6108 474.445 23.4438V22.9604C474.553 17.4175 476.352 14.646 479.843 14.646ZM477.765 21.043H481.406V20.6562C481.406 18.7012 480.853 17.7236 479.747 17.7236C478.554 17.7236 477.894 18.8301 477.765 21.043ZM495.876 14.3237V17.6108L490.22 17.4336L490.897 30.5981L486.933 30.4531C487.041 28.2617 487.094 26.0596 487.094 23.8467C487.094 20.7852 486.992 17.6914 486.788 14.5654C488.947 14.4902 491.977 14.4097 495.876 14.3237ZM506.333 28.3745C506.419 25.646 506.462 23.229 506.462 21.1235C506.462 19.9849 506.446 18.9482 506.414 18.0137L503.256 18.1104C503.267 18.9697 503.272 19.7754 503.272 20.5273C503.272 24.6094 503.068 27.1606 502.66 28.1812L506.333 28.3745ZM498.325 27.9556C498.357 27.9448 498.39 27.9341 498.422 27.9233C499.088 27.6226 499.421 26.5752 499.421 24.7812V24.5234C499.389 22.5684 499.292 19.4048 499.131 15.0327L499.985 14.9683L499.969 14.5171L510.152 14.3237C510.142 15.3335 510.136 16.3379 510.136 17.3369C510.136 21.0967 510.217 24.8457 510.378 28.584L511.377 28.6323V33.6436L508.541 34.1108L508.154 31.1782L499.953 30.9526V34.2075L496.907 34.3042V27.8911L498.325 27.9556ZM519.031 14.1787C522.565 14.3721 524.332 16.1499 524.332 19.5122V30.9526L520.578 31.0171L520.449 29.4863C519.675 30.3672 518.649 30.8076 517.371 30.8076C516.823 30.8076 516.232 30.7217 515.599 30.5498C513.697 30.0771 512.747 28.6055 512.747 26.1348C512.747 25.834 512.763 25.5117 512.795 25.168C513.01 22.6221 514.82 21.3491 518.225 21.3491C518.88 21.3491 519.6 21.3975 520.384 21.4941V19.625C520.384 18.1104 519.906 17.353 518.95 17.353H518.886C518.811 17.3423 518.741 17.3369 518.676 17.3369C517.634 17.3369 517.113 18.1855 517.113 19.8828V20.1245L513.278 19.8022C513.278 16.0532 515.083 14.1787 518.692 14.1787H519.031ZM520.384 26.9082V24.0723C519.922 23.9756 519.503 23.9272 519.127 23.9272C518.15 23.9272 517.484 24.2549 517.129 24.9102C516.915 25.3076 516.807 25.6782 516.807 26.022C516.807 26.4517 516.979 26.833 517.323 27.166C517.591 27.4238 517.94 27.5527 518.37 27.5527C518.918 27.5527 519.589 27.3379 520.384 26.9082ZM538.238 24.5557L542.073 24.7974C542.073 28.6753 540.284 30.6411 536.707 30.6948C536.664 30.7056 536.626 30.7109 536.594 30.7109C533.189 30.7109 531.486 28.1274 531.486 22.9604V22.4771C531.594 16.9341 533.409 14.1357 536.933 14.082H537.062C540.306 14.082 541.928 15.9404 541.928 19.6572C541.928 19.8721 541.922 20.0869 541.912 20.3018L538.447 20.5596V20.1729C538.447 18.2178 537.894 17.2402 536.788 17.2402C535.66 17.2402 535.096 18.8247 535.096 21.9937V22.5254C535.16 25.9521 535.729 27.6655 536.804 27.6655H536.9C537.835 27.5903 538.302 26.876 538.302 25.5225C538.302 25.2324 538.281 24.9102 538.238 24.5557ZM553.271 17.1274L553.384 21.9937C555.125 21.9185 556.231 21.4351 556.704 20.5435C556.951 20.0815 557.074 19.625 557.074 19.1738C557.074 18.7979 556.983 18.4219 556.8 18.0459C556.467 17.4014 555.624 17.0791 554.271 17.0791C553.97 17.0791 553.637 17.0952 553.271 17.1274ZM553.545 24.314V28.1167C553.76 28.1167 553.964 28.1167 554.158 28.1167C555.909 28.1167 557.015 27.7354 557.477 26.9727C557.724 26.543 557.848 26.1509 557.848 25.7964C557.848 25.4634 557.729 25.168 557.493 24.9102C557.085 24.4912 556.145 24.2817 554.673 24.2817C554.33 24.2817 553.954 24.2925 553.545 24.314ZM549.662 30.9849C549.694 28.8794 549.71 26.8062 549.71 24.7651C549.71 21.2524 549.657 17.8418 549.549 14.5332C551.139 14.3936 552.536 14.3237 553.739 14.3237C555.941 14.3237 557.472 14.5547 558.331 15.0166C559.642 15.7256 560.383 16.6816 560.555 17.8848C560.587 18.1963 560.603 18.4971 560.603 18.7871C560.603 19.6035 560.431 20.3179 560.087 20.9302C559.615 21.7466 558.766 22.332 557.542 22.6865C558.906 22.8584 559.883 23.2559 560.474 23.8789C560.968 24.4053 561.215 25.1572 561.215 26.1348C561.215 26.3281 561.205 26.5269 561.183 26.731C561.076 28.0093 560.571 28.9653 559.668 29.5991C558.777 30.2329 557.531 30.668 555.93 30.9043C555.039 31.0332 553.986 31.0977 552.772 31.0977C551.827 31.0977 550.79 31.0601 549.662 30.9849ZM568.499 14.1787C572.033 14.3721 573.8 16.1499 573.8 19.5122V30.9526L570.045 31.0171L569.917 29.4863C569.143 30.3672 568.117 30.8076 566.839 30.8076C566.291 30.8076 565.7 30.7217 565.066 30.5498C563.165 30.0771 562.214 28.6055 562.214 26.1348C562.214 25.834 562.23 25.5117 562.263 25.168C562.478 22.6221 564.288 21.3491 567.693 21.3491C568.348 21.3491 569.068 21.3975 569.852 21.4941V19.625C569.852 18.1104 569.374 17.353 568.418 17.353H568.354C568.278 17.3423 568.208 17.3369 568.144 17.3369C567.102 17.3369 566.581 18.1855 566.581 19.8828V20.1245L562.746 19.8022C562.746 16.0532 564.551 14.1787 568.16 14.1787H568.499ZM569.852 26.9082V24.0723C569.39 23.9756 568.971 23.9272 568.595 23.9272C567.618 23.9272 566.952 24.2549 566.597 24.9102C566.382 25.3076 566.275 25.6782 566.275 26.022C566.275 26.4517 566.447 26.833 566.791 27.166C567.059 27.4238 567.408 27.5527 567.838 27.5527C568.386 27.5527 569.057 27.3379 569.852 26.9082ZM580.02 14.3237L583.242 26.1831L585.627 15.1938L591.943 15.2583C591.836 17.729 591.782 20.2266 591.782 22.751C591.782 25.5654 591.852 28.4175 591.992 31.3071L587.947 31.5327C587.947 28.4927 587.91 24.7812 587.834 20.3984L585.562 30.4531L581.26 30.6948L578.489 19.8506L578.44 30.8398L575.041 31.0332C575.105 28.5195 575.137 26.0273 575.137 23.5566C575.137 20.4736 575.089 17.4282 574.992 14.4204L580.02 14.3237ZM597.486 14.5332C597.379 17.5625 597.266 20.8335 597.148 24.3462L601.225 14.8071L605.043 14.8394C605.043 15.5054 605.043 16.1714 605.043 16.8374C605.043 21.7681 605.258 26.6504 605.688 31.4844L601.321 31.436C601.493 28.2349 601.595 25.1035 601.627 22.042L597.809 30.9526L593.651 30.7915C593.802 28.02 593.877 25.1572 593.877 22.2031C593.877 19.6465 593.823 17.02 593.716 14.3237L597.486 14.5332ZM609.571 31.2749C608.927 31.2749 608.374 31.0439 607.912 30.582C607.45 30.1201 607.219 29.5669 607.219 28.9224C607.219 28.2671 607.45 27.7085 607.912 27.2466C608.374 26.7847 608.927 26.5537 609.571 26.5537C610.227 26.5537 610.785 26.7847 611.247 27.2466C611.709 27.7085 611.94 28.2671 611.94 28.9224C611.94 29.5669 611.709 30.1201 611.247 30.582C610.785 31.0439 610.227 31.2749 609.571 31.2749Z" fill="#282828"/>
<path d="M13.793 419.088C13.6641 426.317 13.5405 434.105 13.4224 442.452H9.76465V433.058H5.17236V441.695L0.773438 441.679C0.902344 437.736 0.966797 433.88 0.966797 430.109C0.966797 426.35 0.902344 422.676 0.773438 419.088H4.979L4.80176 428.482L9.39404 428.675V418.701L13.793 419.088ZM20.4478 425.646C24.1753 425.646 26.0391 428.122 26.0391 433.074C26.0391 433.676 26.0122 434.32 25.9585 435.008H18.7559C18.7559 437.769 19.2876 439.149 20.3511 439.149H20.4639C21.3984 439.074 21.8657 438.359 21.8657 437.006C21.8657 436.716 21.8442 436.394 21.8013 436.039L25.6362 435.958C25.6362 440.051 23.8477 442.125 20.2705 442.178C20.2275 442.189 20.1899 442.194 20.1577 442.194C16.7524 442.194 15.0498 439.611 15.0498 434.444V433.96C15.1572 428.417 16.9565 425.646 20.4478 425.646ZM18.3691 432.043H22.0107V431.656C22.0107 429.701 21.4575 428.724 20.3511 428.724C19.1587 428.724 18.498 429.83 18.3691 432.043ZM44.6821 425.485C44.5747 430.738 44.4673 436.394 44.3599 442.452H41.2017V435.636H37.2217V441.904L33.4189 441.888C33.5264 439.031 33.5801 436.232 33.5801 433.493C33.5801 430.765 33.5264 428.095 33.4189 425.485H37.0605L36.8994 432.317L40.8794 432.446V425.211L44.6821 425.485ZM46.084 425.582L50.3057 425.243C50.209 428.466 50.1606 431.119 50.1606 433.203C50.1606 433.987 50.1714 434.691 50.1929 435.314C50.2358 437.613 50.7515 438.794 51.7397 438.859C51.8042 438.87 51.8633 438.875 51.917 438.875C52.7979 438.875 53.3564 438.37 53.5928 437.36C53.7217 436.77 53.7861 435.368 53.7861 433.155C53.7861 431.382 53.7432 429.094 53.6572 426.291L57.6211 426C57.6641 429.277 57.6855 432.091 57.6855 434.444C57.6855 437.376 57.6533 439.589 57.5889 441.083C57.4814 443.768 56.7134 445.809 55.2847 447.206C53.9956 448.473 52.1855 449.107 49.8545 449.107C49.5859 449.107 49.312 449.096 49.0327 449.075L48.5815 445.143C48.7856 445.154 48.9844 445.159 49.1777 445.159C50.9824 445.159 52.2178 444.842 52.8838 444.208C53.5713 443.553 53.915 442.5 53.915 441.05V440.792C53.3027 441.759 52.3628 442.243 51.0952 442.243H50.8696C49.4839 442.178 48.4097 441.636 47.647 440.615C46.8843 439.584 46.4653 438.145 46.3901 436.297C46.3257 434.438 46.2236 430.867 46.084 425.582ZM66.9668 432.204C66.9775 430.185 66.9829 428.025 66.9829 425.727L70.3667 425.372L70.3022 432.865C71.8169 430.244 73.2134 427.843 74.4917 425.662L78.2783 425.727C77.0107 427.864 75.2705 430.512 73.0576 433.67C74.1748 435.668 75.856 438.424 78.1011 441.937L73.7988 442.13C72.9717 440.293 71.7471 437.994 70.125 435.233C70.125 437.264 70.125 439.428 70.125 441.727L66.7412 442.082L66.7896 434.573C65.2856 437.205 63.8892 439.611 62.6001 441.792L58.8135 441.727C60.0811 439.589 61.8213 436.941 64.0342 433.783C62.917 431.785 61.2358 429.03 58.9907 425.517L63.293 425.324C64.1201 427.15 65.3447 429.443 66.9668 432.204ZM90.9595 425.485C90.8521 430.738 90.7446 436.394 90.6372 442.452H87.479V435.636H83.499V441.904L79.6963 441.888C79.8037 439.031 79.8574 436.232 79.8574 433.493C79.8574 430.765 79.8037 428.095 79.6963 425.485H83.3379L83.1768 432.317L87.1567 432.446V425.211L90.9595 425.485ZM98.0654 425.646C101.718 425.646 103.544 428.181 103.544 433.251C103.544 433.456 103.539 433.66 103.528 433.864C103.377 439.353 101.433 442.125 97.6948 442.178C97.6519 442.189 97.6089 442.194 97.5659 442.194C94.0103 442.194 92.2324 439.6 92.2324 434.412V433.96C92.3398 428.417 94.2842 425.646 98.0654 425.646ZM97.5337 429.32C96.8569 429.556 96.395 430.432 96.1479 431.946C95.9976 432.849 95.9224 433.756 95.9224 434.669C95.9224 435.282 95.9546 435.899 96.019 436.522C96.1909 438.069 96.7441 438.87 97.6787 438.923H97.7915C98.6616 438.923 99.2578 438.349 99.5801 437.199C99.8486 436.243 99.9829 435.11 99.9829 433.799C99.9829 433.477 99.9775 433.149 99.9668 432.816C99.8809 431.087 99.623 430.007 99.1934 429.578C98.9248 429.32 98.6025 429.191 98.2266 429.191C98.0117 429.191 97.7808 429.234 97.5337 429.32ZM110.602 428.53V425.517C111.891 425.539 113.169 425.549 114.437 425.549C116.402 425.549 118.331 425.517 120.221 425.453L120.334 428.659H117.015C117.015 434.095 117.079 438.402 117.208 441.582L113.502 441.743C113.695 436.318 113.835 431.898 113.921 428.482L110.602 428.53ZM121.849 448.624C121.913 445.003 121.945 441.152 121.945 437.07C121.945 433.354 121.918 429.454 121.865 425.372L125.684 425.356L125.812 427.837C126.607 426.634 127.666 426.033 128.987 426.033C132.285 426.033 133.934 428.638 133.934 433.848V434.17C133.858 439.391 132.215 442.001 129.003 442.001C128.874 442.001 128.745 441.996 128.616 441.985C127.521 441.931 126.634 441.335 125.958 440.196C125.958 442.581 126.017 445.39 126.135 448.624H121.849ZM125.877 431.141L125.958 437.199C126.581 438.048 127.209 438.472 127.843 438.472C128.101 438.472 128.358 438.397 128.616 438.247C129.4 437.817 129.792 436.533 129.792 434.396C129.792 434.138 129.787 433.869 129.776 433.59C129.669 430.969 129.148 429.588 128.213 429.449C128.117 429.438 128.025 429.433 127.939 429.433C127.123 429.433 126.436 430.002 125.877 431.141ZM141.458 425.179C144.993 425.372 146.76 427.15 146.76 430.512V441.953L143.005 442.017L142.876 440.486C142.103 441.367 141.077 441.808 139.799 441.808C139.251 441.808 138.66 441.722 138.026 441.55C136.125 441.077 135.174 439.605 135.174 437.135C135.174 436.834 135.19 436.512 135.223 436.168C135.438 433.622 137.248 432.349 140.653 432.349C141.308 432.349 142.028 432.397 142.812 432.494V430.625C142.812 429.11 142.334 428.353 141.378 428.353H141.313C141.238 428.342 141.168 428.337 141.104 428.337C140.062 428.337 139.541 429.186 139.541 430.883V431.125L135.706 430.802C135.706 427.053 137.511 425.179 141.12 425.179H141.458ZM142.812 437.908V435.072C142.35 434.976 141.931 434.927 141.555 434.927C140.578 434.927 139.912 435.255 139.557 435.91C139.342 436.308 139.235 436.678 139.235 437.022C139.235 437.452 139.407 437.833 139.75 438.166C140.019 438.424 140.368 438.553 140.798 438.553C141.346 438.553 142.017 438.338 142.812 437.908ZM148.178 428.53V425.517C149.467 425.539 150.745 425.549 152.013 425.549C153.979 425.549 155.907 425.517 157.797 425.453L157.91 428.659H154.591C154.591 434.095 154.655 438.402 154.784 441.582L151.078 441.743C151.271 436.318 151.411 431.898 151.497 428.482L148.178 428.53ZM163.292 425.533C163.185 428.562 163.072 431.833 162.954 435.346L167.03 425.807L170.849 425.839C170.849 426.505 170.849 427.171 170.849 427.837C170.849 432.768 171.064 437.65 171.494 442.484L167.127 442.436C167.299 439.235 167.401 436.104 167.433 433.042L163.614 441.953L159.457 441.792C159.607 439.02 159.683 436.157 159.683 433.203C159.683 430.646 159.629 428.02 159.521 425.324L163.292 425.533ZM173.153 428.53V425.517C174.442 425.539 175.721 425.549 176.988 425.549C178.954 425.549 180.882 425.517 182.773 425.453L182.886 428.659H179.566C179.566 434.095 179.631 438.402 179.76 441.582L176.054 441.743C176.247 436.318 176.387 431.898 176.473 428.482L173.153 428.53ZM188.364 425.968C188.257 428.267 188.203 430.265 188.203 431.962C188.729 431.243 189.396 430.818 190.201 430.689C190.341 430.679 190.475 430.673 190.604 430.673C193.848 430.673 195.502 432.478 195.567 436.087V436.281C195.567 439.89 193.843 441.695 190.395 441.695C189.578 441.695 188.799 441.271 188.058 440.422L187.945 442.178L184.417 442.162C184.47 439.369 184.497 436.678 184.497 434.089C184.497 431.253 184.465 428.546 184.4 425.968H188.364ZM188.203 434.105L188.123 438.069C188.638 438.886 189.293 439.294 190.088 439.294C190.174 439.294 190.266 439.289 190.362 439.278C191.275 439.181 191.78 438.236 191.877 436.442C191.888 436.259 191.893 436.087 191.893 435.926C191.893 434.455 191.506 433.579 190.733 433.3C190.497 433.214 190.26 433.171 190.024 433.171C189.401 433.171 188.794 433.482 188.203 434.105ZM206.604 428.127L206.717 432.994C208.458 432.918 209.564 432.435 210.037 431.543C210.284 431.082 210.407 430.625 210.407 430.174C210.407 429.798 210.316 429.422 210.133 429.046C209.8 428.401 208.957 428.079 207.604 428.079C207.303 428.079 206.97 428.095 206.604 428.127ZM206.878 435.314V439.117C207.093 439.117 207.297 439.117 207.491 439.117C209.242 439.117 210.348 438.735 210.81 437.973C211.057 437.543 211.181 437.151 211.181 436.796C211.181 436.463 211.062 436.168 210.826 435.91C210.418 435.491 209.478 435.282 208.006 435.282C207.663 435.282 207.287 435.292 206.878 435.314ZM202.995 441.985C203.027 439.879 203.043 437.806 203.043 435.765C203.043 432.252 202.99 428.842 202.882 425.533C204.472 425.394 205.869 425.324 207.072 425.324C209.274 425.324 210.805 425.555 211.664 426.017C212.975 426.726 213.716 427.682 213.888 428.885C213.92 429.196 213.936 429.497 213.936 429.787C213.936 430.604 213.764 431.318 213.42 431.93C212.948 432.747 212.099 433.332 210.875 433.687C212.239 433.858 213.216 434.256 213.807 434.879C214.301 435.405 214.548 436.157 214.548 437.135C214.548 437.328 214.538 437.527 214.516 437.731C214.409 439.009 213.904 439.965 213.001 440.599C212.11 441.233 210.864 441.668 209.263 441.904C208.372 442.033 207.319 442.098 206.105 442.098C205.16 442.098 204.123 442.06 202.995 441.985ZM215.692 448.624C215.757 445.003 215.789 441.152 215.789 437.07C215.789 433.354 215.762 429.454 215.708 425.372L219.527 425.356L219.656 427.837C220.451 426.634 221.509 426.033 222.831 426.033C226.128 426.033 227.777 428.638 227.777 433.848V434.17C227.702 439.391 226.059 442.001 222.847 442.001C222.718 442.001 222.589 441.996 222.46 441.985C221.364 441.931 220.478 441.335 219.801 440.196C219.801 442.581 219.86 445.39 219.979 448.624H215.692ZM219.721 431.141L219.801 437.199C220.424 438.048 221.053 438.472 221.687 438.472C221.944 438.472 222.202 438.397 222.46 438.247C223.244 437.817 223.636 436.533 223.636 434.396C223.636 434.138 223.631 433.869 223.62 433.59C223.513 430.969 222.992 429.588 222.057 429.449C221.96 429.438 221.869 429.433 221.783 429.433C220.967 429.433 220.279 430.002 219.721 431.141ZM234.303 425.646C238.031 425.646 239.895 428.122 239.895 433.074C239.895 433.676 239.868 434.32 239.814 435.008H232.611C232.611 437.769 233.143 439.149 234.207 439.149H234.319C235.254 439.074 235.721 438.359 235.721 437.006C235.721 436.716 235.7 436.394 235.657 436.039L239.492 435.958C239.492 440.051 237.703 442.125 234.126 442.178C234.083 442.189 234.045 442.194 234.013 442.194C230.608 442.194 228.905 439.611 228.905 434.444V433.96C229.013 428.417 230.812 425.646 234.303 425.646ZM232.225 432.043H235.866V431.656C235.866 429.701 235.313 428.724 234.207 428.724C233.014 428.724 232.354 429.83 232.225 432.043ZM246.05 425.324L249.272 437.183L251.657 426.194L257.974 426.258C257.866 428.729 257.812 431.227 257.812 433.751C257.812 436.565 257.882 439.417 258.022 442.307L253.978 442.533C253.978 439.493 253.94 435.781 253.865 431.398L251.593 441.453L247.291 441.695L244.519 430.851L244.471 441.84L241.071 442.033C241.135 439.52 241.167 437.027 241.167 434.557C241.167 431.474 241.119 428.428 241.022 425.42L246.05 425.324ZM266.175 442.291C266.347 440.196 266.46 437.978 266.514 435.636C266.374 435.615 266.234 435.604 266.095 435.604C265.407 435.604 264.816 435.894 264.322 436.474C263.882 437 263.662 438.424 263.662 440.744C263.662 441.518 263.683 442.388 263.726 443.354L259.682 443.306V442.807C259.682 439.154 259.966 436.877 260.536 435.975C261.137 435.04 262.018 434.503 263.178 434.363C261.513 433.901 260.423 432.827 259.907 431.141C259.757 430.625 259.682 430.12 259.682 429.626C259.682 428.541 260.074 427.547 260.858 426.645C261.696 425.689 263.646 425.211 266.707 425.211C267.803 425.211 269.043 425.27 270.429 425.388C270.3 428.869 270.236 432.317 270.236 435.733C270.236 437.957 270.263 440.169 270.316 442.372L266.175 442.291ZM266.884 428.079C266.551 428.047 266.234 428.031 265.934 428.031C264.655 428.031 263.86 428.358 263.549 429.014C263.366 429.39 263.275 429.771 263.275 430.158C263.275 430.62 263.393 431.087 263.629 431.56C264.081 432.462 265.139 432.945 266.804 433.01L266.884 428.079ZM289.153 425.485C289.045 430.738 288.938 436.394 288.831 442.452H285.672V435.636H281.692V441.904L277.89 441.888C277.997 439.031 278.051 436.232 278.051 433.493C278.051 430.765 277.997 428.095 277.89 425.485H281.531L281.37 432.317L285.35 432.446V425.211L289.153 425.485ZM296.823 425.179C300.357 425.372 302.124 427.15 302.124 430.512V441.953L298.37 442.017L298.241 440.486C297.467 441.367 296.441 441.808 295.163 441.808C294.615 441.808 294.024 441.722 293.391 441.55C291.489 441.077 290.539 439.605 290.539 437.135C290.539 436.834 290.555 436.512 290.587 436.168C290.802 433.622 292.612 432.349 296.017 432.349C296.672 432.349 297.392 432.397 298.176 432.494V430.625C298.176 429.11 297.698 428.353 296.742 428.353H296.678C296.603 428.342 296.533 428.337 296.468 428.337C295.426 428.337 294.905 429.186 294.905 430.883V431.125L291.07 430.802C291.07 427.053 292.875 425.179 296.484 425.179H296.823ZM298.176 437.908V435.072C297.714 434.976 297.295 434.927 296.919 434.927C295.942 434.927 295.276 435.255 294.921 435.91C294.707 436.308 294.599 436.678 294.599 437.022C294.599 437.452 294.771 437.833 295.115 438.166C295.383 438.424 295.732 438.553 296.162 438.553C296.71 438.553 297.381 438.338 298.176 437.908ZM321.734 425.598C321.616 430.818 321.503 436.437 321.396 442.452H317.963V428.756H313.677V441.904L309.568 441.888C309.687 439.052 309.746 436.275 309.746 433.558C309.746 430.84 309.687 428.187 309.568 425.598H313.5L313.339 425.453L317.625 425.598V425.324L321.734 425.598ZM322.717 425.582L326.938 425.243C326.842 428.466 326.793 431.119 326.793 433.203C326.793 433.987 326.804 434.691 326.826 435.314C326.869 437.613 327.384 438.794 328.373 438.859C328.437 438.87 328.496 438.875 328.55 438.875C329.431 438.875 329.989 438.37 330.226 437.36C330.354 436.77 330.419 435.368 330.419 433.155C330.419 431.382 330.376 429.094 330.29 426.291L334.254 426C334.297 429.277 334.318 432.091 334.318 434.444C334.318 437.376 334.286 439.589 334.222 441.083C334.114 443.768 333.346 445.809 331.917 447.206C330.628 448.473 328.818 449.107 326.487 449.107C326.219 449.107 325.945 449.096 325.666 449.075L325.214 445.143C325.418 445.154 325.617 445.159 325.811 445.159C327.615 445.159 328.851 444.842 329.517 444.208C330.204 443.553 330.548 442.5 330.548 441.05V440.792C329.936 441.759 328.996 442.243 327.728 442.243H327.502C326.117 442.178 325.042 441.636 324.28 440.615C323.517 439.584 323.098 438.145 323.023 436.297C322.958 434.438 322.856 430.867 322.717 425.582ZM342.294 435.556L346.129 435.797C346.129 439.675 344.341 441.641 340.764 441.695C340.721 441.706 340.683 441.711 340.651 441.711C337.246 441.711 335.543 439.127 335.543 433.96V433.477C335.65 427.934 337.466 425.136 340.989 425.082H341.118C344.362 425.082 345.984 426.94 345.984 430.657C345.984 430.872 345.979 431.087 345.968 431.302L342.504 431.56V431.173C342.504 429.218 341.951 428.24 340.844 428.24C339.716 428.24 339.152 429.825 339.152 432.994V433.525C339.217 436.952 339.786 438.666 340.86 438.666H340.957C341.892 438.59 342.359 437.876 342.359 436.522C342.359 436.232 342.337 435.91 342.294 435.556ZM347.596 428.53V425.517C348.885 425.539 350.163 425.549 351.431 425.549C353.396 425.549 355.325 425.517 357.215 425.453L357.328 428.659H354.009C354.009 434.095 354.073 438.402 354.202 441.582L350.496 441.743C350.689 436.318 350.829 431.898 350.915 428.482L347.596 428.53ZM365.369 442.291C365.541 440.196 365.653 437.978 365.707 435.636C365.567 435.615 365.428 435.604 365.288 435.604C364.601 435.604 364.01 435.894 363.516 436.474C363.075 437 362.855 438.424 362.855 440.744C362.855 441.518 362.876 442.388 362.919 443.354L358.875 443.306V442.807C358.875 439.154 359.16 436.877 359.729 435.975C360.331 435.04 361.211 434.503 362.372 434.363C360.707 433.901 359.616 432.827 359.101 431.141C358.95 430.625 358.875 430.12 358.875 429.626C358.875 428.541 359.267 427.547 360.051 426.645C360.889 425.689 362.839 425.211 365.9 425.211C366.996 425.211 368.237 425.27 369.623 425.388C369.494 428.869 369.429 432.317 369.429 435.733C369.429 437.957 369.456 440.169 369.51 442.372L365.369 442.291ZM366.078 428.079C365.745 428.047 365.428 428.031 365.127 428.031C363.849 428.031 363.054 428.358 362.742 429.014C362.56 429.39 362.468 429.771 362.468 430.158C362.468 430.62 362.586 431.087 362.823 431.56C363.274 432.462 364.332 432.945 365.997 433.01L366.078 428.079ZM374.875 425.404L374.811 431.753C376.283 429.476 377.674 427.279 378.984 425.163L382.69 425.582C380.746 428.289 379.049 430.851 377.599 433.268C378.823 435.47 380.504 438.333 382.642 441.856L378.646 442.243C377.443 439.632 376.089 437.183 374.585 434.895V441.083L371.057 441.147C371.132 435.432 371.169 430.292 371.169 425.727L374.875 425.404ZM387.911 425.533C387.804 428.562 387.691 431.833 387.573 435.346L391.649 425.807L395.468 425.839C395.468 426.505 395.468 427.171 395.468 427.837C395.468 432.768 395.683 437.65 396.113 442.484L391.746 442.436C391.918 439.235 392.02 436.104 392.052 433.042L388.233 441.953L384.076 441.792C384.227 439.02 384.302 436.157 384.302 433.203C384.302 430.646 384.248 428.02 384.141 425.324L387.911 425.533ZM411.727 428.981V433.01H403.67V428.981H411.727ZM431.336 425.598C431.218 430.818 431.105 436.437 430.998 442.452H427.566V428.756H423.28V441.904L419.171 441.888C419.289 439.052 419.348 436.275 419.348 433.558C419.348 430.84 419.289 428.187 419.171 425.598H423.103L422.941 425.453L427.228 425.598V425.324L431.336 425.598ZM432.448 448.624C432.513 445.003 432.545 441.152 432.545 437.07C432.545 433.354 432.518 429.454 432.464 425.372L436.283 425.356L436.412 427.837C437.207 426.634 438.265 426.033 439.586 426.033C442.884 426.033 444.533 428.638 444.533 433.848V434.17C444.458 439.391 442.814 442.001 439.603 442.001C439.474 442.001 439.345 441.996 439.216 441.985C438.12 441.931 437.234 441.335 436.557 440.196C436.557 442.581 436.616 445.39 436.734 448.624H432.448ZM436.477 431.141L436.557 437.199C437.18 438.048 437.809 438.472 438.442 438.472C438.7 438.472 438.958 438.397 439.216 438.247C440 437.817 440.392 436.533 440.392 434.396C440.392 434.138 440.387 433.869 440.376 433.59C440.269 430.969 439.748 429.588 438.813 429.449C438.716 429.438 438.625 429.433 438.539 429.433C437.723 429.433 437.035 430.002 436.477 431.141ZM451.494 425.646C455.146 425.646 456.973 428.181 456.973 433.251C456.973 433.456 456.967 433.66 456.957 433.864C456.806 439.353 454.862 442.125 451.124 442.178C451.081 442.189 451.038 442.194 450.995 442.194C447.439 442.194 445.661 439.6 445.661 434.412V433.96C445.769 428.417 447.713 425.646 451.494 425.646ZM450.962 429.32C450.286 429.556 449.824 430.432 449.577 431.946C449.426 432.849 449.351 433.756 449.351 434.669C449.351 435.282 449.383 435.899 449.448 436.522C449.62 438.069 450.173 438.87 451.107 438.923H451.22C452.09 438.923 452.687 438.349 453.009 437.199C453.277 436.243 453.412 435.11 453.412 433.799C453.412 433.477 453.406 433.149 453.396 432.816C453.31 431.087 453.052 430.007 452.622 429.578C452.354 429.32 452.031 429.191 451.655 429.191C451.44 429.191 451.209 429.234 450.962 429.32ZM464.465 435.556L468.3 435.797C468.3 439.675 466.512 441.641 462.935 441.695C462.892 441.706 462.854 441.711 462.822 441.711C459.417 441.711 457.714 439.127 457.714 433.96V433.477C457.821 427.934 459.637 425.136 463.16 425.082H463.289C466.533 425.082 468.155 426.94 468.155 430.657C468.155 430.872 468.15 431.087 468.139 431.302L464.675 431.56V431.173C464.675 429.218 464.122 428.24 463.015 428.24C461.887 428.24 461.323 429.825 461.323 432.994V433.525C461.388 436.952 461.957 438.666 463.031 438.666H463.128C464.062 438.59 464.53 437.876 464.53 436.522C464.53 436.232 464.508 435.91 464.465 435.556ZM469.767 428.53V425.517C471.056 425.539 472.334 425.549 473.602 425.549C475.567 425.549 477.496 425.517 479.386 425.453L479.499 428.659H476.18C476.18 434.095 476.244 438.402 476.373 441.582L472.667 441.743C472.86 436.318 473 431.898 473.086 428.482L469.767 428.53ZM486.589 425.646C490.241 425.646 492.067 428.181 492.067 433.251C492.067 433.456 492.062 433.66 492.051 433.864C491.901 439.353 489.957 442.125 486.218 442.178C486.175 442.189 486.132 442.194 486.089 442.194C482.534 442.194 480.756 439.6 480.756 434.412V433.96C480.863 428.417 482.808 425.646 486.589 425.646ZM486.057 429.32C485.38 429.556 484.918 430.432 484.671 431.946C484.521 432.849 484.446 433.756 484.446 434.669C484.446 435.282 484.478 435.899 484.542 436.522C484.714 438.069 485.268 438.87 486.202 438.923H486.315C487.185 438.923 487.781 438.349 488.104 437.199C488.372 436.243 488.506 435.11 488.506 433.799C488.506 433.477 488.501 433.149 488.49 432.816C488.404 431.087 488.146 430.007 487.717 429.578C487.448 429.32 487.126 429.191 486.75 429.191C486.535 429.191 486.304 429.234 486.057 429.32ZM511.291 425.598C511.172 430.818 511.06 436.437 510.952 442.452H507.52V428.756H503.234V441.904L499.125 441.888C499.243 439.052 499.302 436.275 499.302 433.558C499.302 430.84 499.243 428.187 499.125 425.598H503.057L502.896 425.453L507.182 425.598V425.324L511.291 425.598ZM512.273 425.582L516.495 425.243C516.398 428.466 516.35 431.119 516.35 433.203C516.35 433.987 516.361 434.691 516.382 435.314C516.425 437.613 516.941 438.794 517.929 438.859C517.994 438.87 518.053 438.875 518.106 438.875C518.987 438.875 519.546 438.37 519.782 437.36C519.911 436.77 519.976 435.368 519.976 433.155C519.976 431.382 519.933 429.094 519.847 426.291L523.811 426C523.854 429.277 523.875 432.091 523.875 434.444C523.875 437.376 523.843 439.589 523.778 441.083C523.671 443.768 522.903 445.809 521.474 447.206C520.185 448.473 518.375 449.107 516.044 449.107C515.775 449.107 515.501 449.096 515.222 449.075L514.771 445.143C514.975 445.154 515.174 445.159 515.367 445.159C517.172 445.159 518.407 444.842 519.073 444.208C519.761 443.553 520.104 442.5 520.104 441.05V440.792C519.492 441.759 518.552 442.243 517.285 442.243H517.059C515.673 442.178 514.599 441.636 513.836 440.615C513.074 439.584 512.655 438.145 512.58 436.297C512.515 434.438 512.413 430.867 512.273 425.582ZM525.39 428.53V425.517C526.679 425.539 527.957 425.549 529.225 425.549C531.19 425.549 533.119 425.517 535.009 425.453L535.122 428.659H531.803C531.803 434.095 531.867 438.402 531.996 441.582L528.29 441.743C528.483 436.318 528.623 431.898 528.709 428.482L525.39 428.53ZM541.777 425.646C545.504 425.646 547.368 428.122 547.368 433.074C547.368 433.676 547.341 434.32 547.288 435.008H540.085C540.085 437.769 540.617 439.149 541.68 439.149H541.793C542.728 439.074 543.195 438.359 543.195 437.006C543.195 436.716 543.173 436.394 543.13 436.039L546.965 435.958C546.965 440.051 545.177 442.125 541.6 442.178C541.557 442.189 541.519 442.194 541.487 442.194C538.082 442.194 536.379 439.611 536.379 434.444V433.96C536.486 428.417 538.286 425.646 541.777 425.646ZM539.698 432.043H543.34V431.656C543.34 429.701 542.787 428.724 541.68 428.724C540.488 428.724 539.827 429.83 539.698 432.043ZM563.046 442.065L562.982 439.487C562.402 440.723 561.73 441.491 560.968 441.792C560.517 441.963 560.06 442.049 559.598 442.049C559.254 442.049 558.911 442.006 558.567 441.92C557.729 441.706 557.133 440.846 556.778 439.342C556.499 440.513 556.016 441.297 555.328 441.695C554.641 442.082 553.878 442.28 553.04 442.291H552.976C552.159 442.291 551.375 442.092 550.623 441.695C549.86 441.287 549.275 440.524 548.867 439.407C548.469 438.279 548.26 436.737 548.238 434.782V425.42L551.719 425.34C551.579 428.874 551.509 431.882 551.509 434.363C551.509 436.845 551.982 438.182 552.927 438.375C553.067 438.397 553.201 438.408 553.33 438.408C554.082 438.408 554.662 437.924 555.07 436.958C555.135 435.84 555.167 434.535 555.167 433.042C555.167 431.012 555.108 428.643 554.99 425.936L559.018 425.904C558.868 430.061 558.792 433.09 558.792 434.992V435.185C558.803 437.065 559.174 438.053 559.904 438.15H560.114C560.769 438.15 561.403 437.774 562.015 437.022L561.983 425.227L565.786 425.082V427.725C565.786 432.408 565.855 437.086 565.995 441.759L563.046 442.065ZM572.199 425.646C575.926 425.646 577.79 428.122 577.79 433.074C577.79 433.676 577.763 434.32 577.709 435.008H570.507C570.507 437.769 571.039 439.149 572.102 439.149H572.215C573.149 439.074 573.617 438.359 573.617 437.006C573.617 436.716 573.595 436.394 573.552 436.039L577.387 435.958C577.387 440.051 575.599 442.125 572.021 442.178C571.979 442.189 571.941 442.194 571.909 442.194C568.503 442.194 566.801 439.611 566.801 434.444V433.96C566.908 428.417 568.708 425.646 572.199 425.646ZM570.12 432.043H573.762V431.656C573.762 429.701 573.208 428.724 572.102 428.724C570.91 428.724 570.249 429.83 570.12 432.043ZM585.605 435.556L589.44 435.797C589.44 439.675 587.651 441.641 584.074 441.695C584.031 441.706 583.994 441.711 583.961 441.711C580.556 441.711 578.854 439.127 578.854 433.96V433.477C578.961 427.934 580.776 425.136 584.3 425.082H584.429C587.673 425.082 589.295 426.94 589.295 430.657C589.295 430.872 589.29 431.087 589.279 431.302L585.814 431.56V431.173C585.814 429.218 585.261 428.24 584.155 428.24C583.027 428.24 582.463 429.825 582.463 432.994V433.525C582.527 436.952 583.097 438.666 584.171 438.666H584.268C585.202 438.59 585.669 437.876 585.669 436.522C585.669 436.232 585.648 435.91 585.605 435.556ZM590.906 428.53V425.517C592.195 425.539 593.474 425.549 594.741 425.549C596.707 425.549 598.635 425.517 600.526 425.453L600.639 428.659H597.319C597.319 434.095 597.384 438.402 597.513 441.582L593.807 441.743C594 436.318 594.14 431.898 594.226 428.482L590.906 428.53ZM605.892 428.127L606.004 432.994C607.745 432.918 608.851 432.435 609.324 431.543C609.571 431.082 609.694 430.625 609.694 430.174C609.694 429.798 609.603 429.422 609.42 429.046C609.087 428.401 608.244 428.079 606.891 428.079C606.59 428.079 606.257 428.095 605.892 428.127ZM606.166 435.314V439.117C606.38 439.117 606.584 439.117 606.778 439.117C608.529 439.117 609.635 438.735 610.097 437.973C610.344 437.543 610.468 437.151 610.468 436.796C610.468 436.463 610.35 436.168 610.113 435.91C609.705 435.491 608.765 435.282 607.293 435.282C606.95 435.282 606.574 435.292 606.166 435.314ZM602.282 441.985C602.314 439.879 602.331 437.806 602.331 435.765C602.331 432.252 602.277 428.842 602.169 425.533C603.759 425.394 605.156 425.324 606.359 425.324C608.561 425.324 610.092 425.555 610.951 426.017C612.262 426.726 613.003 427.682 613.175 428.885C613.207 429.196 613.223 429.497 613.223 429.787C613.223 430.604 613.051 431.318 612.708 431.93C612.235 432.747 611.386 433.332 610.162 433.687C611.526 433.858 612.503 434.256 613.094 434.879C613.588 435.405 613.835 436.157 613.835 437.135C613.835 437.328 613.825 437.527 613.803 437.731C613.696 439.009 613.191 439.965 612.289 440.599C611.397 441.233 610.151 441.668 608.55 441.904C607.659 442.033 606.606 442.098 605.392 442.098C604.447 442.098 603.41 442.06 602.282 441.985ZM614.851 425.582L619.072 425.243C618.976 428.466 618.927 431.119 618.927 433.203C618.927 433.987 618.938 434.691 618.959 435.314C619.002 437.613 619.518 438.794 620.506 438.859C620.571 438.87 620.63 438.875 620.684 438.875C621.564 438.875 622.123 438.37 622.359 437.36C622.488 436.77 622.553 435.368 622.553 433.155C622.553 431.382 622.51 429.094 622.424 426.291L626.388 426C626.431 429.277 626.452 432.091 626.452 434.444C626.452 437.376 626.42 439.589 626.355 441.083C626.248 443.768 625.48 445.809 624.051 447.206C622.762 448.473 620.952 449.107 618.621 449.107C618.353 449.107 618.079 449.096 617.799 449.075L617.348 445.143C617.552 445.154 617.751 445.159 617.944 445.159C619.749 445.159 620.984 444.842 621.65 444.208C622.338 443.553 622.682 442.5 622.682 441.05V440.792C622.069 441.759 621.129 442.243 619.862 442.243H619.636C618.25 442.178 617.176 441.636 616.414 440.615C615.651 439.584 615.232 438.145 615.157 436.297C615.092 434.438 614.99 430.867 614.851 425.582ZM631.802 425.533C631.694 428.562 631.582 431.833 631.463 435.346L635.54 425.807L639.359 425.839C639.359 426.505 639.359 427.171 639.359 427.837C639.359 432.768 639.574 437.65 640.003 442.484L635.637 442.436C635.809 439.235 635.911 436.104 635.943 433.042L632.124 441.953L627.967 441.792C628.117 439.02 628.192 436.157 628.192 433.203C628.192 430.646 628.139 428.02 628.031 425.324L631.802 425.533ZM629.159 418.024H632.06C632.06 419.313 632.704 419.958 633.993 419.958C635.282 419.958 635.927 419.313 635.927 418.024H638.827C638.827 421.247 637.216 422.858 633.993 422.858C630.771 422.858 629.159 421.247 629.159 418.024ZM641.663 428.53V425.517C642.952 425.539 644.23 425.549 645.498 425.549C647.464 425.549 649.392 425.517 651.283 425.453L651.396 428.659H648.076C648.076 434.095 648.141 438.402 648.27 441.582L644.563 441.743C644.757 436.318 644.896 431.898 644.982 428.482L641.663 428.53ZM658.05 425.646C661.778 425.646 663.642 428.122 663.642 433.074C663.642 433.676 663.615 434.32 663.561 435.008H656.358C656.358 437.769 656.89 439.149 657.954 439.149H658.066C659.001 439.074 659.468 438.359 659.468 437.006C659.468 436.716 659.447 436.394 659.404 436.039L663.239 435.958C663.239 440.051 661.45 442.125 657.873 442.178C657.83 442.189 657.792 442.194 657.76 442.194C654.355 442.194 652.652 439.611 652.652 434.444V433.96C652.76 428.417 654.559 425.646 658.05 425.646ZM655.972 432.043H659.613V431.656C659.613 429.701 659.06 428.724 657.954 428.724C656.761 428.724 656.101 429.83 655.972 432.043ZM667.009 442.275C666.365 442.275 665.812 442.044 665.35 441.582C664.888 441.12 664.657 440.567 664.657 439.922C664.657 439.267 664.888 438.708 665.35 438.247C665.812 437.785 666.365 437.554 667.009 437.554C667.665 437.554 668.223 437.785 668.685 438.247C669.147 438.708 669.378 439.267 669.378 439.922C669.378 440.567 669.147 441.12 668.685 441.582C668.223 442.044 667.665 442.275 667.009 442.275ZM668.991 419.587C668.841 425.055 668.739 430.458 668.685 435.797L665.108 435.878C665 431.302 664.877 425.872 664.737 419.587H668.991Z" fill="#282828"/>
</svg>
