<svg width="277" height="404" viewBox="0 0 277 404" fill="none" xmlns="http://www.w3.org/2000/svg">
<path d="M35.8389 12.854C35.8063 12.4552 35.79 12.0809 35.79 11.731C35.79 10.5265 35.9731 9.5988 36.3394 8.94775C36.8032 8.10954 37.5601 7.59277 38.6099 7.39746C39.1307 7.2998 39.623 7.25098 40.0869 7.25098C40.5671 7.25098 41.0228 7.30387 41.4541 7.40967C42.3005 7.61312 42.9759 8.07292 43.4805 8.78906C43.985 9.49707 44.2536 10.4736 44.2861 11.7188V12.0605C44.2861 13.1348 44.1193 13.9201 43.7856 14.4165C43.4194 14.9699 42.8091 15.3849 41.9546 15.6616C42.6626 15.7674 43.1916 16.0238 43.5415 16.4307C43.8996 16.8376 44.1437 17.3828 44.2739 18.0664C44.3553 18.4489 44.396 18.8639 44.396 19.3115C44.396 19.6859 44.3675 20.0887 44.3105 20.52C44.1966 21.4722 43.8101 22.2941 43.1509 22.9858C42.4998 23.6694 41.4907 24.0275 40.1235 24.0601H39.9404C38.6628 24.0601 37.6414 23.7264 36.8765 23.0591C36.0789 22.3755 35.6802 20.9066 35.6802 18.6523V18.5913L38.6221 18.4204C38.6139 18.5506 38.6099 18.6768 38.6099 18.7988C38.6099 20.3857 39.029 21.2077 39.8672 21.2646C39.9242 21.2728 39.9811 21.2769 40.0381 21.2769C40.8275 21.2769 41.2995 20.8577 41.4541 20.0195C41.5029 19.7835 41.5273 19.5597 41.5273 19.3481C41.5273 18.7541 41.3564 18.2373 41.0146 17.7979C40.5426 17.2038 39.7655 16.9067 38.6831 16.9067L38.5488 14.7461C38.679 14.7542 38.8011 14.7583 38.915 14.7583C39.859 14.7583 40.5101 14.4857 40.8682 13.9404C41.2018 13.4277 41.3687 12.7686 41.3687 11.9629C41.3687 11.8001 41.3605 11.6374 41.3442 11.4746C41.2791 10.498 40.8438 10.0098 40.0381 10.0098H39.8916C39.0941 10.0667 38.6953 10.8643 38.6953 12.4023C38.6953 12.5814 38.6994 12.7767 38.7075 12.9883L35.8389 12.854ZM50.646 11.499C53.3234 11.6455 54.6621 12.9924 54.6621 15.5396V24.2065L51.8179 24.2554L51.7202 23.0957C51.1343 23.763 50.3571 24.0967 49.3887 24.0967C48.9736 24.0967 48.526 24.0316 48.0459 23.9014C46.6055 23.5433 45.8853 22.4284 45.8853 20.5566C45.8853 20.3288 45.8975 20.0846 45.9219 19.8242C46.0846 17.8955 47.4559 16.9312 50.0356 16.9312C50.5321 16.9312 51.0773 16.9678 51.6714 17.041V15.625C51.6714 14.4775 51.3092 13.9038 50.585 13.9038H50.5361C50.4792 13.8957 50.4263 13.8916 50.3774 13.8916C49.5881 13.8916 49.1934 14.5345 49.1934 15.8203V16.0034L46.2881 15.7593C46.2881 12.9191 47.6553 11.499 50.3896 11.499H50.646ZM51.6714 21.1426V18.9941C51.3215 18.9209 51.0041 18.8843 50.7192 18.8843C49.9787 18.8843 49.4741 19.1325 49.2056 19.6289C49.0428 19.93 48.9614 20.2108 48.9614 20.4712C48.9614 20.7967 49.0916 21.0856 49.3521 21.3379C49.5555 21.5332 49.82 21.6309 50.1455 21.6309C50.5605 21.6309 51.0692 21.4681 51.6714 21.1426ZM59.5327 14.6362C59.02 14.8153 58.6701 15.4785 58.4829 16.626C58.369 17.3096 58.312 17.9972 58.312 18.689C58.312 19.1528 58.3364 19.6208 58.3853 20.0928C58.5155 21.2646 58.9346 21.8709 59.6426 21.9116H59.728C60.3872 21.9116 60.8389 21.4762 61.083 20.6055C61.2865 19.8812 61.3882 19.0226 61.3882 18.0298C61.3882 17.7856 61.3841 17.5374 61.376 17.2852C61.3109 15.9749 61.1156 15.1571 60.79 14.8315C60.5866 14.6362 60.3424 14.5386 60.0576 14.5386C59.8949 14.5386 59.7199 14.5711 59.5327 14.6362ZM57.6162 13.1836C58.3975 12.0361 59.1706 11.5926 59.9355 11.853C62.7025 11.853 64.0859 13.7736 64.0859 17.6147C64.0859 17.7694 64.0819 17.924 64.0737 18.0786C63.9598 22.2371 62.4868 24.3368 59.6548 24.3774C59.6222 24.3856 59.5897 24.3896 59.5571 24.3896C56.8634 24.3896 55.5166 22.4243 55.5166 18.4937V18.1519C55.5492 16.4266 55.6265 14.9211 55.7485 13.6353C55.8706 12.3494 56.1066 11.1247 56.4565 9.96094C56.8146 8.78906 57.1686 8.12581 57.5186 7.97119C57.8766 7.80843 58.7189 7.68229 60.0454 7.59277C61.3719 7.49512 62.0026 6.96208 61.9375 5.99365L64.4644 7.44629C63.9435 9.25293 63.1501 10.0138 62.084 9.729C61.0179 9.43604 59.9844 9.40348 58.9834 9.63135C57.9824 9.85107 57.5267 11.0352 57.6162 13.1836ZM64.7451 11.8042L67.9434 11.5479C67.8701 13.9893 67.8335 15.9993 67.8335 17.5781C67.8335 18.1722 67.8416 18.7052 67.8579 19.1772C67.8905 20.9188 68.2811 21.814 69.0298 21.8628C69.0786 21.8709 69.1234 21.875 69.1641 21.875C69.8314 21.875 70.2546 21.4925 70.4336 20.7275C70.5312 20.2799 70.5801 19.2179 70.5801 17.5415C70.5801 16.1987 70.5475 14.4653 70.4824 12.3413L73.4854 12.1216C73.5179 14.6037 73.5342 16.7358 73.5342 18.5181C73.5342 20.7397 73.5098 22.4162 73.4609 23.5474C73.3796 25.5819 72.7977 27.1281 71.7153 28.186C70.7388 29.1463 69.3675 29.6265 67.6016 29.6265C67.3981 29.6265 67.1906 29.6183 66.979 29.6021L66.6372 26.6235C66.7918 26.6317 66.9424 26.6357 67.0889 26.6357C68.4561 26.6357 69.3919 26.3957 69.8965 25.9155C70.4173 25.4191 70.6777 24.6216 70.6777 23.5229V23.3276C70.2139 24.0601 69.5018 24.4263 68.5415 24.4263H68.3706C67.3208 24.3774 66.507 23.9665 65.9292 23.1934C65.3514 22.4121 65.034 21.3216 64.9771 19.9219C64.9282 18.514 64.8509 15.8081 64.7451 11.8042ZM81.6274 22.2534C81.6925 20.1864 81.7251 18.3553 81.7251 16.7603C81.7251 15.8976 81.7129 15.1123 81.6885 14.4043L79.2959 14.4775C79.304 15.1286 79.3081 15.7389 79.3081 16.3086C79.3081 19.401 79.1535 21.3338 78.8442 22.1069L81.6274 22.2534ZM75.5605 21.936C75.585 21.9279 75.6094 21.9198 75.6338 21.9116C76.1383 21.6838 76.3906 20.8903 76.3906 19.5312V19.3359C76.3662 17.8548 76.293 15.4582 76.1709 12.146L76.8179 12.0972L76.8057 11.7554L84.5205 11.6089C84.5124 12.3739 84.5083 13.1348 84.5083 13.8916C84.5083 16.7399 84.5693 19.5801 84.6914 22.4121L85.4482 22.4487V26.2451L83.2998 26.5991L83.0068 24.3774L76.7935 24.2065V26.6724L74.4863 26.7456V21.8872L75.5605 21.936ZM89.5986 12.0972C89.5173 13.8387 89.4766 15.3524 89.4766 16.6382C89.8753 16.0929 90.3799 15.7715 90.9902 15.6738C91.096 15.6657 91.1978 15.6616 91.2954 15.6616C93.7531 15.6616 95.0063 17.0288 95.0552 19.7632V19.9097C95.0552 22.644 93.749 24.0112 91.1367 24.0112C90.5182 24.0112 89.9282 23.6898 89.3667 23.0469L89.2812 24.3774L86.6079 24.3652C86.6486 22.2493 86.6689 20.2108 86.6689 18.2495C86.6689 16.1011 86.6445 14.0503 86.5957 12.0972H89.5986ZM89.4766 18.2617L89.4155 21.2646C89.8062 21.8831 90.3026 22.1924 90.9048 22.1924C90.9699 22.1924 91.0391 22.1883 91.1123 22.1802C91.804 22.1069 92.1865 21.3908 92.2598 20.0317C92.2679 19.8934 92.272 19.7632 92.272 19.6411C92.272 18.5262 91.979 17.863 91.3931 17.6514C91.214 17.5863 91.035 17.5537 90.856 17.5537C90.384 17.5537 89.9242 17.7897 89.4766 18.2617ZM96.0439 14.0381V11.7554C97.0205 11.7716 97.9889 11.7798 98.9492 11.7798C100.438 11.7798 101.899 11.7554 103.332 11.7065L103.417 14.1357H100.902C100.902 18.2536 100.951 21.5169 101.049 23.9258L98.2412 24.0479C98.3877 19.9382 98.4935 16.5894 98.5586 14.0015L96.0439 14.0381ZM108.458 11.853C111.282 11.853 112.694 13.7288 112.694 17.4805C112.694 17.9362 112.674 18.4245 112.633 18.9453H107.177C107.177 21.0368 107.58 22.0825 108.385 22.0825H108.471C109.179 22.0256 109.533 21.4844 109.533 20.459C109.533 20.2393 109.516 19.9951 109.484 19.7266L112.389 19.6655C112.389 22.7661 111.034 24.3368 108.324 24.3774C108.292 24.3856 108.263 24.3896 108.239 24.3896C105.659 24.3896 104.369 22.4325 104.369 18.5181V18.1519C104.451 13.9526 105.814 11.853 108.458 11.853ZM106.884 16.6992H109.643V16.4062C109.643 14.9251 109.223 14.1846 108.385 14.1846C107.482 14.1846 106.981 15.0228 106.884 16.6992ZM122.484 11.853C125.251 11.853 126.635 13.7736 126.635 17.6147C126.635 17.7694 126.631 17.924 126.623 18.0786C126.509 22.2371 125.036 24.3368 122.204 24.3774C122.171 24.3856 122.139 24.3896 122.106 24.3896C119.412 24.3896 118.065 22.4243 118.065 18.4937V18.1519C118.147 13.9526 119.62 11.853 122.484 11.853ZM122.082 14.6362C121.569 14.8153 121.219 15.4785 121.032 16.626C120.918 17.3096 120.861 17.9972 120.861 18.689C120.861 19.1528 120.885 19.6208 120.934 20.0928C121.064 21.2646 121.483 21.8709 122.191 21.9116H122.277C122.936 21.9116 123.388 21.4762 123.632 20.6055C123.835 19.8812 123.937 19.0226 123.937 18.0298C123.937 17.7856 123.933 17.5374 123.925 17.2852C123.86 15.9749 123.664 15.1571 123.339 14.8315C123.135 14.6362 122.891 14.5386 122.606 14.5386C122.444 14.5386 122.269 14.5711 122.082 14.6362ZM140.514 11.731C140.433 15.7104 140.351 19.9951 140.27 24.585H137.877V19.4214H134.862V24.1699L131.981 24.1577C132.063 21.993 132.104 19.873 132.104 17.7979C132.104 15.7308 132.063 13.7085 131.981 11.731H134.74L134.618 16.9067L137.633 17.0044V11.5234L140.514 11.731ZM145.568 11.853C148.392 11.853 149.804 13.7288 149.804 17.4805C149.804 17.9362 149.783 18.4245 149.743 18.9453H144.286C144.286 21.0368 144.689 22.0825 145.495 22.0825H145.58C146.288 22.0256 146.642 21.4844 146.642 20.459C146.642 20.2393 146.626 19.9951 146.593 19.7266L149.499 19.6655C149.499 22.7661 148.144 24.3368 145.434 24.3774C145.401 24.3856 145.373 24.3896 145.348 24.3896C142.768 24.3896 141.479 22.4325 141.479 18.5181V18.1519C141.56 13.9526 142.923 11.853 145.568 11.853ZM143.993 16.6992H146.752V16.4062C146.752 14.9251 146.333 14.1846 145.495 14.1846C144.591 14.1846 144.091 15.0228 143.993 16.6992ZM150.707 11.8042L153.905 11.5479C153.832 13.9893 153.795 15.9993 153.795 17.5781C153.795 18.1722 153.804 18.7052 153.82 19.1772C153.852 20.9188 154.243 21.814 154.992 21.8628C155.041 21.8709 155.085 21.875 155.126 21.875C155.793 21.875 156.216 21.4925 156.396 20.7275C156.493 20.2799 156.542 19.2179 156.542 17.5415C156.542 16.1987 156.509 14.4653 156.444 12.3413L159.447 12.1216C159.48 14.6037 159.496 16.7358 159.496 18.5181C159.496 20.7397 159.472 22.4162 159.423 23.5474C159.341 25.5819 158.76 27.1281 157.677 28.186C156.701 29.1463 155.329 29.6265 153.563 29.6265C153.36 29.6265 153.153 29.6183 152.941 29.6021L152.599 26.6235C152.754 26.6317 152.904 26.6357 153.051 26.6357C154.418 26.6357 155.354 26.3957 155.858 25.9155C156.379 25.4191 156.64 24.6216 156.64 23.5229V23.3276C156.176 24.0601 155.464 24.4263 154.503 24.4263H154.333C153.283 24.3774 152.469 23.9665 151.891 23.1934C151.313 22.4121 150.996 21.3216 150.939 19.9219C150.89 18.514 150.813 15.8081 150.707 11.8042ZM167.589 22.2534C167.654 20.1864 167.687 18.3553 167.687 16.7603C167.687 15.8976 167.675 15.1123 167.65 14.4043L165.258 14.4775C165.266 15.1286 165.27 15.7389 165.27 16.3086C165.27 19.401 165.115 21.3338 164.806 22.1069L167.589 22.2534ZM161.522 21.936C161.547 21.9279 161.571 21.9198 161.596 21.9116C162.1 21.6838 162.353 20.8903 162.353 19.5312V19.3359C162.328 17.8548 162.255 15.4582 162.133 12.146L162.78 12.0972L162.768 11.7554L170.482 11.6089C170.474 12.3739 170.47 13.1348 170.47 13.8916C170.47 16.7399 170.531 19.5801 170.653 22.4121L171.41 22.4487V26.2451L169.262 26.5991L168.969 24.3774L162.755 24.2065V26.6724L160.448 26.7456V21.8872L161.522 21.936ZM176.781 11.853C179.548 11.853 180.932 13.7736 180.932 17.6147C180.932 17.7694 180.928 17.924 180.919 18.0786C180.806 22.2371 179.333 24.3368 176.5 24.3774C176.468 24.3856 176.435 24.3896 176.403 24.3896C173.709 24.3896 172.362 22.4243 172.362 18.4937V18.1519C172.444 13.9526 173.917 11.853 176.781 11.853ZM176.378 14.6362C175.866 14.8153 175.516 15.4785 175.329 16.626C175.215 17.3096 175.158 17.9972 175.158 18.689C175.158 19.1528 175.182 19.6208 175.231 20.0928C175.361 21.2646 175.78 21.8709 176.488 21.9116H176.574C177.233 21.9116 177.685 21.4762 177.929 20.6055C178.132 19.8812 178.234 19.0226 178.234 18.0298C178.234 17.7856 178.23 17.5374 178.222 17.2852C178.157 15.9749 177.961 15.1571 177.636 14.8315C177.432 14.6362 177.188 14.5386 176.903 14.5386C176.741 14.5386 176.566 14.5711 176.378 14.6362ZM185.509 14.6362C184.997 14.8153 184.647 15.4785 184.459 16.626C184.346 17.3096 184.289 17.9972 184.289 18.689C184.289 19.1528 184.313 19.6208 184.362 20.0928C184.492 21.2646 184.911 21.8709 185.619 21.9116H185.705C186.364 21.9116 186.815 21.4762 187.06 20.6055C187.263 19.8812 187.365 19.0226 187.365 18.0298C187.365 17.7856 187.361 17.5374 187.353 17.2852C187.287 15.9749 187.092 15.1571 186.767 14.8315C186.563 14.6362 186.319 14.5386 186.034 14.5386C185.871 14.5386 185.696 14.5711 185.509 14.6362ZM183.593 13.1836C184.374 12.0361 185.147 11.5926 185.912 11.853C188.679 11.853 190.062 13.7736 190.062 17.6147C190.062 17.7694 190.058 17.924 190.05 18.0786C189.936 22.2371 188.463 24.3368 185.631 24.3774C185.599 24.3856 185.566 24.3896 185.534 24.3896C182.84 24.3896 181.493 22.4243 181.493 18.4937V18.1519C181.526 16.4266 181.603 14.9211 181.725 13.6353C181.847 12.3494 182.083 11.1247 182.433 9.96094C182.791 8.78906 183.145 8.12581 183.495 7.97119C183.853 7.80843 184.695 7.68229 186.022 7.59277C187.348 7.49512 187.979 6.96208 187.914 5.99365L190.441 7.44629C189.92 9.25293 189.127 10.0138 188.061 9.729C186.994 9.43604 185.961 9.40348 184.96 9.63135C183.959 9.85107 183.503 11.0352 183.593 13.1836ZM195.739 19.3604L198.644 19.5435C198.644 22.4813 197.289 23.9705 194.579 24.0112C194.547 24.0194 194.518 24.0234 194.494 24.0234C191.914 24.0234 190.624 22.0662 190.624 18.1519V17.7856C190.705 13.5864 192.081 11.4665 194.75 11.4258H194.848C197.305 11.4258 198.534 12.8337 198.534 15.6494C198.534 15.8122 198.53 15.9749 198.522 16.1377L195.897 16.333V16.04C195.897 14.5589 195.478 13.8184 194.64 13.8184C193.786 13.8184 193.358 15.0187 193.358 17.4194V17.8223C193.407 20.4183 193.839 21.7163 194.652 21.7163H194.726C195.434 21.6593 195.788 21.1182 195.788 20.0928C195.788 19.873 195.771 19.6289 195.739 19.3604ZM199.755 14.0381V11.7554C200.731 11.7716 201.7 11.7798 202.66 11.7798C204.149 11.7798 205.61 11.7554 207.042 11.7065L207.128 14.1357H204.613C204.613 18.2536 204.662 21.5169 204.76 23.9258L201.952 24.0479C202.099 19.9382 202.204 16.5894 202.27 14.0015L199.755 14.0381ZM211.107 13.7329L211.193 17.4194C212.511 17.3625 213.349 16.9963 213.708 16.3208C213.895 15.9709 213.988 15.625 213.988 15.2832C213.988 14.9984 213.919 14.7135 213.781 14.4287C213.528 13.9404 212.89 13.6963 211.864 13.6963C211.636 13.6963 211.384 13.7085 211.107 13.7329ZM211.315 19.1772V22.0581C211.478 22.0581 211.632 22.0581 211.779 22.0581C213.105 22.0581 213.944 21.7692 214.293 21.1914C214.481 20.8659 214.574 20.5688 214.574 20.3003C214.574 20.048 214.485 19.8242 214.306 19.6289C213.996 19.3115 213.284 19.1528 212.169 19.1528C211.909 19.1528 211.624 19.161 211.315 19.1772ZM208.373 24.231C208.397 22.6359 208.41 21.0653 208.41 19.519C208.41 16.8579 208.369 14.2741 208.288 11.7676C209.492 11.6618 210.55 11.6089 211.461 11.6089C213.13 11.6089 214.289 11.7839 214.94 12.1338C215.933 12.6709 216.495 13.3952 216.625 14.3066C216.649 14.5426 216.662 14.7705 216.662 14.9902C216.662 15.6087 216.531 16.1499 216.271 16.6138C215.913 17.2323 215.27 17.6758 214.342 17.9443C215.376 18.0745 216.116 18.3757 216.564 18.8477C216.938 19.2464 217.125 19.8161 217.125 20.5566C217.125 20.7031 217.117 20.8537 217.101 21.0083C217.02 21.9767 216.637 22.701 215.954 23.1812C215.278 23.6613 214.334 23.9909 213.122 24.1699C212.446 24.2676 211.649 24.3164 210.729 24.3164C210.013 24.3164 209.228 24.2879 208.373 24.231ZM222.643 11.499C225.32 11.6455 226.659 12.9924 226.659 15.5396V24.2065L223.815 24.2554L223.717 23.0957C223.131 23.763 222.354 24.0967 221.386 24.0967C220.971 24.0967 220.523 24.0316 220.043 23.9014C218.603 23.5433 217.882 22.4284 217.882 20.5566C217.882 20.3288 217.895 20.0846 217.919 19.8242C218.082 17.8955 219.453 16.9312 222.033 16.9312C222.529 16.9312 223.074 16.9678 223.668 17.041V15.625C223.668 14.4775 223.306 13.9038 222.582 13.9038H222.533C222.476 13.8957 222.423 13.8916 222.375 13.8916C221.585 13.8916 221.19 14.5345 221.19 15.8203V16.0034L218.285 15.7593C218.285 12.9191 219.652 11.499 222.387 11.499H222.643ZM223.668 21.1426V18.9941C223.319 18.9209 223.001 18.8843 222.716 18.8843C221.976 18.8843 221.471 19.1325 221.203 19.6289C221.04 19.93 220.958 20.2108 220.958 20.4712C220.958 20.7967 221.089 21.0856 221.349 21.3379C221.553 21.5332 221.817 21.6309 222.143 21.6309C222.558 21.6309 223.066 21.4681 223.668 21.1426ZM230.7 11.6211L231.981 16.4185L233.251 11.5845L236.474 11.9629C235.725 13.5498 234.927 15.4826 234.081 17.7612C234.83 19.7306 235.656 21.7448 236.559 23.8037L233.41 24.1455L231.872 19.4458L230.407 24.1089L227.416 23.7183C228.287 21.7407 229.109 19.7957 229.882 17.8833L227.489 12.1094L230.7 11.6211ZM239.33 24.4507C238.842 24.4507 238.423 24.2757 238.073 23.9258C237.723 23.5758 237.548 23.1567 237.548 22.6685C237.548 22.172 237.723 21.7489 238.073 21.3989C238.423 21.049 238.842 20.874 239.33 20.874C239.826 20.874 240.25 21.049 240.6 21.3989C240.95 21.7489 241.125 22.172 241.125 22.6685C241.125 23.1567 240.95 23.5758 240.6 23.9258C240.25 24.2757 239.826 24.4507 239.33 24.4507ZM26.415 53.9014C27.945 46.9515 29.182 41.0596 30.126 36.2256L34.7036 36.1523C35.8267 41.1816 37.1125 46.9108 38.561 53.3398L35.436 53.9746L34.4473 49.3481H30.6509L29.6255 54.3408L26.415 53.9014ZM34.3496 45.918C33.9264 44.1602 33.2347 42.0565 32.2744 39.6069C31.5339 41.6659 30.9072 43.798 30.3945 46.0034L34.3496 45.918ZM41.0879 41.5356L41.21 43.5254C41.5518 42.4674 42.451 41.9303 43.9077 41.9141H43.9565C45.3888 41.9141 46.3654 42.4756 46.8862 43.5986C47.2443 44.3636 47.4233 46.154 47.4233 48.9697C47.4233 50.3532 47.3786 51.9889 47.2891 53.877H44.335C44.4408 51.3623 44.4937 49.4132 44.4937 48.0298C44.4937 47.3381 44.4814 46.7847 44.457 46.3696C44.3757 45.1489 43.985 44.5386 43.2852 44.5386C42.5853 44.5386 42.1458 44.8641 41.9668 45.5151L42.0889 54.3652L39.2202 54.3896C39.2202 50.6462 39.0941 46.4429 38.8418 41.7798L41.0879 41.5356ZM50.4751 37.959L53.2461 37.7759V41.8164L55.5776 41.7554L55.6143 44.0625L53.2461 44.1724V49.7266C53.2461 51.0205 53.7954 51.6675 54.894 51.6675C55.1219 51.6675 55.3701 51.639 55.6387 51.582L55.5288 54.2676C55.1382 54.3164 54.7679 54.3408 54.418 54.3408C51.8464 54.3408 50.5361 53.0143 50.4873 50.3613V44.3921L48.4854 44.5142L48.4365 41.792L50.4873 41.8164L50.4751 37.959ZM60.9365 41.853C63.7035 41.853 65.0869 43.7736 65.0869 47.6147C65.0869 47.7694 65.0828 47.924 65.0747 48.0786C64.9608 52.2371 63.4878 54.3368 60.6558 54.3774C60.6232 54.3856 60.5907 54.3896 60.5581 54.3896C57.8644 54.3896 56.5176 52.4243 56.5176 48.4937V48.1519C56.599 43.9526 58.0719 41.853 60.9365 41.853ZM60.5337 44.6362C60.021 44.8153 59.6711 45.4785 59.4839 46.626C59.37 47.3096 59.313 47.9972 59.313 48.689C59.313 49.1528 59.3374 49.6208 59.3862 50.0928C59.5164 51.2646 59.9355 51.8709 60.6436 51.9116H60.729C61.3882 51.9116 61.8398 51.4762 62.084 50.6055C62.2874 49.8812 62.3892 49.0226 62.3892 48.0298C62.3892 47.7856 62.3851 47.5374 62.377 47.2852C62.3118 45.9749 62.1165 45.1571 61.791 44.8315C61.5876 44.6362 61.3434 44.5386 61.0586 44.5386C60.8958 44.5386 60.7209 44.5711 60.5337 44.6362ZM68.0166 41.5356L68.1387 43.5254C68.4805 42.4674 69.3797 41.9303 70.8364 41.9141H70.8853C72.3175 41.9141 73.2941 42.4756 73.8149 43.5986C74.173 44.3636 74.3521 46.154 74.3521 48.9697C74.3521 50.3532 74.3073 51.9889 74.2178 53.877H71.2637C71.3695 51.3623 71.4224 49.4132 71.4224 48.0298C71.4224 47.3381 71.4102 46.7847 71.3857 46.3696C71.3044 45.1489 70.9137 44.5386 70.2139 44.5386C69.514 44.5386 69.0745 44.8641 68.8955 45.5151L69.0176 54.3652L66.1489 54.3896C66.1489 50.6462 66.0228 46.4429 65.7705 41.7798L68.0166 41.5356ZM78.7832 39.0454C78.7832 39.5418 78.6082 39.965 78.2583 40.3149C77.9084 40.6649 77.4852 40.8398 76.9888 40.8398C76.5005 40.8398 76.0814 40.6649 75.7314 40.3149C75.3815 39.965 75.2065 39.5418 75.2065 39.0454C75.2065 38.5571 75.3815 38.138 75.7314 37.7881C76.0814 37.4382 76.5005 37.2632 76.9888 37.2632C77.4852 37.2632 77.9084 37.4382 78.2583 37.7881C78.6082 38.138 78.7832 38.5571 78.7832 39.0454ZM75.5117 54.4507C75.4548 49.6899 75.4263 45.5762 75.4263 42.1094L78.5024 41.9263C78.4048 45.2466 78.356 48.5465 78.356 51.8262C78.356 52.7051 78.36 53.5799 78.3682 54.4507H75.5117ZM83.7637 41.853C86.5306 41.853 87.9141 43.7736 87.9141 47.6147C87.9141 47.7694 87.91 47.924 87.9019 48.0786C87.7879 52.2371 86.3149 54.3368 83.4829 54.3774C83.4504 54.3856 83.4178 54.3896 83.3853 54.3896C80.6916 54.3896 79.3447 52.4243 79.3447 48.4937V48.1519C79.4261 43.9526 80.8991 41.853 83.7637 41.853ZM83.3608 44.6362C82.8481 44.8153 82.4982 45.4785 82.311 46.626C82.1971 47.3096 82.1401 47.9972 82.1401 48.689C82.1401 49.1528 82.1646 49.6208 82.2134 50.0928C82.3436 51.2646 82.7627 51.8709 83.4707 51.9116H83.5562C84.2153 51.9116 84.667 51.4762 84.9111 50.6055C85.1146 49.8812 85.2163 49.0226 85.2163 48.0298C85.2163 47.7856 85.2122 47.5374 85.2041 47.2852C85.139 45.9749 84.9437 45.1571 84.6182 44.8315C84.4147 44.6362 84.1706 44.5386 83.8857 44.5386C83.723 44.5386 83.548 44.5711 83.3608 44.6362ZM96.4834 39.021L96.5688 44.2578C98.0825 44.1764 99.0428 43.6597 99.4497 42.7075C99.6694 42.203 99.7793 41.7065 99.7793 41.2183C99.7793 40.8114 99.6979 40.4085 99.5352 40.0098C99.2503 39.318 98.522 38.9722 97.3501 38.9722C97.0897 38.9722 96.8008 38.9884 96.4834 39.021ZM96.7153 46.7725V50.8618C96.9025 50.87 97.0815 50.874 97.2524 50.874C98.7661 50.874 99.7223 50.459 100.121 49.6289C100.341 49.165 100.451 48.7459 100.451 48.3716C100.451 48.0054 100.345 47.6839 100.133 47.4072C99.7834 46.9596 98.9696 46.7358 97.6919 46.7358C97.3908 46.7358 97.0653 46.748 96.7153 46.7725ZM93.3462 53.9624C93.3787 51.6919 93.395 49.458 93.395 47.2607C93.395 43.4684 93.3462 39.786 93.2485 36.2134C94.632 36.0669 95.8446 35.9937 96.8862 35.9937C98.7987 35.9937 100.125 36.2419 100.866 36.7383C102.005 37.5033 102.648 38.5368 102.794 39.8389C102.827 40.1725 102.843 40.494 102.843 40.8032C102.843 41.6903 102.693 42.4593 102.392 43.1104C101.977 43.9974 101.24 44.6322 100.182 45.0146C101.362 45.1937 102.208 45.6209 102.721 46.2964C103.153 46.866 103.368 47.6799 103.368 48.7378C103.368 48.9412 103.36 49.1528 103.344 49.3726C103.246 50.756 102.807 51.7896 102.025 52.4731C101.252 53.1567 100.174 53.6247 98.7905 53.877C98.0093 54.0153 97.0938 54.0845 96.0439 54.0845C95.222 54.0845 94.3228 54.0438 93.3462 53.9624ZM110.705 54.3896L110.583 52.3999C110.241 53.4578 109.321 53.9909 107.824 53.999C107.807 54.0072 107.795 54.0112 107.787 54.0112C106.306 54.0112 105.325 53.3439 104.845 52.0093C104.52 51.1222 104.357 49.2871 104.357 46.5039C104.357 45.0716 104.402 43.383 104.491 41.438H107.458C107.295 44.1724 107.213 46.276 107.213 47.749C107.213 48.4896 107.234 49.0674 107.274 49.4824C107.396 50.752 107.807 51.3867 108.507 51.3867C109.207 51.3867 109.647 51.0571 109.826 50.3979L109.704 41.9263L112.572 41.9019C112.572 45.4012 112.698 49.4784 112.951 54.1333L110.705 54.3896ZM113.817 50.0562L116.613 49.9219V50.0806C116.613 51.3338 116.999 51.9686 117.772 51.9849H117.821C118.57 51.9849 118.944 51.6227 118.944 50.8984V50.813C118.912 50.0155 118.171 49.3726 116.723 48.8843C115.282 48.396 114.416 47.5741 114.123 46.4185C114.017 46.0116 113.964 45.6209 113.964 45.2466C113.964 44.563 114.139 43.9282 114.489 43.3423C115.026 42.4471 115.84 41.9344 116.93 41.8042C117.223 41.7716 117.508 41.7554 117.785 41.7554C118.509 41.7554 119.148 41.8815 119.701 42.1338C120.458 42.4837 120.983 42.9842 121.276 43.6353C121.471 44.0828 121.569 44.5793 121.569 45.1245C121.569 45.3849 121.549 45.6535 121.508 45.9302L118.896 45.9912C118.92 45.7878 118.932 45.6006 118.932 45.4297C118.932 44.6159 118.672 44.1805 118.151 44.1235C118.094 44.1154 118.037 44.1113 117.98 44.1113C117.443 44.1113 117.081 44.384 116.894 44.9292C116.828 45.1164 116.796 45.2873 116.796 45.4419C116.796 45.8244 116.975 46.154 117.333 46.4307C117.838 46.8213 118.582 47.2201 119.567 47.627C120.56 48.0257 121.227 48.7093 121.569 49.6777C121.691 50.0439 121.752 50.4102 121.752 50.7764C121.752 51.3949 121.573 52.0174 121.215 52.644C120.645 53.645 119.762 54.2269 118.566 54.3896C118.306 54.4303 118.049 54.4507 117.797 54.4507C116.902 54.4507 116.072 54.2188 115.307 53.7549C114.33 53.1608 113.834 51.9279 113.817 50.0562ZM130.102 43.7329L130.187 47.4194C131.505 47.3625 132.344 46.9963 132.702 46.3208C132.889 45.9709 132.982 45.625 132.982 45.2832C132.982 44.9984 132.913 44.7135 132.775 44.4287C132.523 43.9404 131.884 43.6963 130.858 43.6963C130.631 43.6963 130.378 43.7085 130.102 43.7329ZM130.309 49.1772V52.0581C130.472 52.0581 130.626 52.0581 130.773 52.0581C132.099 52.0581 132.938 51.7692 133.288 51.1914C133.475 50.8659 133.568 50.5688 133.568 50.3003C133.568 50.048 133.479 49.8242 133.3 49.6289C132.991 49.3115 132.278 49.1528 131.164 49.1528C130.903 49.1528 130.618 49.161 130.309 49.1772ZM127.367 54.231C127.392 52.6359 127.404 51.0653 127.404 49.519C127.404 46.8579 127.363 44.2741 127.282 41.7676C128.486 41.6618 129.544 41.6089 130.456 41.6089C132.124 41.6089 133.284 41.7839 133.935 42.1338C134.927 42.6709 135.489 43.3952 135.619 44.3066C135.644 44.5426 135.656 44.7705 135.656 44.9902C135.656 45.6087 135.526 46.1499 135.265 46.6138C134.907 47.2323 134.264 47.6758 133.336 47.9443C134.37 48.0745 135.111 48.3757 135.558 48.8477C135.932 49.2464 136.12 49.8161 136.12 50.5566C136.12 50.7031 136.111 50.8537 136.095 51.0083C136.014 51.9767 135.631 52.701 134.948 53.1812C134.272 53.6613 133.328 53.9909 132.116 54.1699C131.44 54.2676 130.643 54.3164 129.723 54.3164C129.007 54.3164 128.222 54.2879 127.367 54.231ZM141.906 49.3604L144.811 49.5435C144.811 52.4813 143.456 53.9705 140.746 54.0112C140.714 54.0194 140.685 54.0234 140.661 54.0234C138.081 54.0234 136.791 52.0662 136.791 48.1519V47.7856C136.872 43.5864 138.248 41.4665 140.917 41.4258H141.015C143.472 41.4258 144.701 42.8337 144.701 45.6494C144.701 45.8122 144.697 45.9749 144.689 46.1377L142.064 46.333V46.04C142.064 44.5589 141.645 43.8184 140.807 43.8184C139.953 43.8184 139.525 45.0187 139.525 47.4194V47.8223C139.574 50.4183 140.006 51.7163 140.819 51.7163H140.893C141.601 51.6593 141.955 51.1182 141.955 50.0928C141.955 49.873 141.938 49.6289 141.906 49.3604ZM149.792 41.853C152.615 41.853 154.027 43.7288 154.027 47.4805C154.027 47.9362 154.007 48.4245 153.966 48.9453H148.51C148.51 51.0368 148.913 52.0825 149.718 52.0825H149.804C150.512 52.0256 150.866 51.4844 150.866 50.459C150.866 50.2393 150.849 49.9951 150.817 49.7266L153.722 49.6655C153.722 52.7661 152.367 54.3368 149.657 54.3774C149.625 54.3856 149.596 54.3896 149.572 54.3896C146.992 54.3896 145.702 52.4325 145.702 48.5181V48.1519C145.784 43.9526 147.147 41.853 149.792 41.853ZM148.217 46.6992H150.976V46.4062C150.976 44.9251 150.556 44.1846 149.718 44.1846C148.815 44.1846 148.314 45.0228 148.217 46.6992ZM161.938 41.6089V44.0991L157.653 43.9648L158.166 53.938L155.163 53.8281C155.244 52.168 155.285 50.4997 155.285 48.8232C155.285 46.5039 155.207 44.1602 155.053 41.792C156.688 41.735 158.983 41.674 161.938 41.6089ZM169.86 52.2534C169.925 50.1864 169.958 48.3553 169.958 46.7603C169.958 45.8976 169.945 45.1123 169.921 44.4043L167.528 44.4775C167.536 45.1286 167.541 45.7389 167.541 46.3086C167.541 49.401 167.386 51.3338 167.077 52.1069L169.86 52.2534ZM163.793 51.936C163.817 51.9279 163.842 51.9198 163.866 51.9116C164.371 51.6838 164.623 50.8903 164.623 49.5312V49.3359C164.599 47.8548 164.525 45.4582 164.403 42.146L165.05 42.0972L165.038 41.7554L172.753 41.6089C172.745 42.3739 172.741 43.1348 172.741 43.8916C172.741 46.7399 172.802 49.5801 172.924 52.4121L173.681 52.4487V56.2451L171.532 56.5991L171.239 54.3774L165.026 54.2065V56.6724L162.719 56.7456V51.8872L163.793 51.936ZM179.479 41.499C182.156 41.6455 183.495 42.9924 183.495 45.5396V54.2065L180.651 54.2554L180.553 53.0957C179.967 53.763 179.19 54.0967 178.222 54.0967C177.807 54.0967 177.359 54.0316 176.879 53.9014C175.438 53.5433 174.718 52.4284 174.718 50.5566C174.718 50.3288 174.73 50.0846 174.755 49.8242C174.918 47.8955 176.289 46.9312 178.869 46.9312C179.365 46.9312 179.91 46.9678 180.504 47.041V45.625C180.504 44.4775 180.142 43.9038 179.418 43.9038H179.369C179.312 43.8957 179.259 43.8916 179.21 43.8916C178.421 43.8916 178.026 44.5345 178.026 45.8203V46.0034L175.121 45.7593C175.121 42.9191 176.488 41.499 179.223 41.499H179.479ZM180.504 51.1426V48.9941C180.154 48.9209 179.837 48.8843 179.552 48.8843C178.812 48.8843 178.307 49.1325 178.039 49.6289C177.876 49.93 177.794 50.2108 177.794 50.4712C177.794 50.7967 177.925 51.0856 178.185 51.3379C178.389 51.5332 178.653 51.6309 178.979 51.6309C179.394 51.6309 179.902 51.4681 180.504 51.1426ZM194.03 49.3604L196.935 49.5435C196.935 52.4813 195.58 53.9705 192.87 54.0112C192.838 54.0194 192.809 54.0234 192.785 54.0234C190.205 54.0234 188.915 52.0662 188.915 48.1519V47.7856C188.996 43.5864 190.372 41.4665 193.041 41.4258H193.139C195.596 41.4258 196.825 42.8337 196.825 45.6494C196.825 45.8122 196.821 45.9749 196.813 46.1377L194.188 46.333V46.04C194.188 44.5589 193.769 43.8184 192.931 43.8184C192.077 43.8184 191.649 45.0187 191.649 47.4194V47.8223C191.698 50.4183 192.13 51.7163 192.943 51.7163H193.017C193.725 51.6593 194.079 51.1182 194.079 50.0928C194.079 49.873 194.062 49.6289 194.03 49.3604ZM205.419 43.7329L205.504 47.4194C206.823 47.3625 207.661 46.9963 208.019 46.3208C208.206 45.9709 208.3 45.625 208.3 45.2832C208.3 44.9984 208.231 44.7135 208.092 44.4287C207.84 43.9404 207.201 43.6963 206.176 43.6963C205.948 43.6963 205.696 43.7085 205.419 43.7329ZM205.626 49.1772V52.0581C205.789 52.0581 205.944 52.0581 206.09 52.0581C207.417 52.0581 208.255 51.7692 208.605 51.1914C208.792 50.8659 208.886 50.5688 208.886 50.3003C208.886 50.048 208.796 49.8242 208.617 49.6289C208.308 49.3115 207.596 49.1528 206.481 49.1528C206.221 49.1528 205.936 49.161 205.626 49.1772ZM202.685 54.231C202.709 52.6359 202.721 51.0653 202.721 49.519C202.721 46.8579 202.681 44.2741 202.599 41.7676C203.804 41.6618 204.861 41.6089 205.773 41.6089C207.441 41.6089 208.601 41.7839 209.252 42.1338C210.245 42.6709 210.806 43.3952 210.937 44.3066C210.961 44.5426 210.973 44.7705 210.973 44.9902C210.973 45.6087 210.843 46.1499 210.583 46.6138C210.224 47.2323 209.582 47.6758 208.654 47.9443C209.687 48.0745 210.428 48.3757 210.875 48.8477C211.25 49.2464 211.437 49.8161 211.437 50.5566C211.437 50.7031 211.429 50.8537 211.413 51.0083C211.331 51.9767 210.949 52.701 210.265 53.1812C209.59 53.6613 208.646 53.9909 207.433 54.1699C206.758 54.2676 205.96 54.3164 205.041 54.3164C204.324 54.3164 203.539 54.2879 202.685 54.231ZM216.955 41.499C219.632 41.6455 220.971 42.9924 220.971 45.5396V54.2065L218.126 54.2554L218.029 53.0957C217.443 53.763 216.666 54.0967 215.697 54.0967C215.282 54.0967 214.835 54.0316 214.354 53.9014C212.914 53.5433 212.194 52.4284 212.194 50.5566C212.194 50.3288 212.206 50.0846 212.23 49.8242C212.393 47.8955 213.764 46.9312 216.344 46.9312C216.841 46.9312 217.386 46.9678 217.98 47.041V45.625C217.98 44.4775 217.618 43.9038 216.894 43.9038H216.845C216.788 43.8957 216.735 43.8916 216.686 43.8916C215.897 43.8916 215.502 44.5345 215.502 45.8203V46.0034L212.597 45.7593C212.597 42.9191 213.964 41.499 216.698 41.499H216.955ZM217.98 51.1426V48.9941C217.63 48.9209 217.313 48.8843 217.028 48.8843C216.287 48.8843 215.783 49.1325 215.514 49.6289C215.351 49.93 215.27 50.2108 215.27 50.4712C215.27 50.7967 215.4 51.0856 215.661 51.3379C215.864 51.5332 216.129 51.6309 216.454 51.6309C216.869 51.6309 217.378 51.4681 217.98 51.1426ZM225.683 41.6089L228.124 50.5933L229.931 42.2681L234.716 42.3169C234.634 44.1886 234.594 46.0807 234.594 47.9932C234.594 50.1253 234.647 52.286 234.752 54.4751L231.688 54.646C231.688 52.3429 231.66 49.5312 231.603 46.2109L229.882 53.8281L226.623 54.0112L224.523 45.7959L224.486 54.1211L221.911 54.2676C221.959 52.3633 221.984 50.4753 221.984 48.6035C221.984 46.2679 221.947 43.9608 221.874 41.6821L225.683 41.6089ZM238.915 41.7676C238.834 44.0625 238.748 46.5405 238.659 49.2017L241.747 41.9751L244.64 41.9995C244.64 42.5041 244.64 43.0086 244.64 43.5132C244.64 47.2485 244.803 50.9473 245.128 54.6094L241.82 54.5728C241.951 52.1476 242.028 49.7754 242.052 47.4561L239.159 54.2065L236.01 54.0845C236.124 51.9849 236.181 49.8161 236.181 47.5781C236.181 45.6413 236.14 43.6515 236.059 41.6089L238.915 41.7676ZM248.07 54.4507C247.582 54.4507 247.163 54.2757 246.813 53.9258C246.463 53.5758 246.288 53.1567 246.288 52.6685C246.288 52.172 246.463 51.7489 246.813 51.3989C247.163 51.049 247.582 50.874 248.07 50.874C248.567 50.874 248.99 51.049 249.34 51.3989C249.69 51.7489 249.865 52.172 249.865 52.6685C249.865 53.1567 249.69 53.5758 249.34 53.9258C248.99 54.2757 248.567 54.4507 248.07 54.4507Z" fill="#282828"/>
<path d="M34.2642 350.885C34.1665 356.362 34.0729 362.262 33.9834 368.585H31.2124V361.468H27.7334V368.011L24.4009 367.999C24.4985 365.012 24.5474 362.091 24.5474 359.234C24.5474 356.386 24.4985 353.603 24.4009 350.885H27.5869L27.4526 358.001L30.9316 358.148V350.592L34.2642 350.885ZM39.3057 355.853C42.1296 355.853 43.5415 357.729 43.5415 361.48C43.5415 361.936 43.5212 362.424 43.4805 362.945H38.0239C38.0239 365.037 38.4268 366.083 39.2324 366.083H39.3179C40.0259 366.026 40.3799 365.484 40.3799 364.459C40.3799 364.239 40.3636 363.995 40.3311 363.727L43.2363 363.666C43.2363 366.766 41.8813 368.337 39.1714 368.377C39.1388 368.386 39.1104 368.39 39.0859 368.39C36.5062 368.39 35.2163 366.432 35.2163 362.518V362.152C35.2977 357.953 36.6608 355.853 39.3057 355.853ZM37.731 360.699H40.4897V360.406C40.4897 358.925 40.0706 358.185 39.2324 358.185C38.3291 358.185 37.8286 359.023 37.731 360.699ZM57.665 355.731C57.5837 359.71 57.5023 363.995 57.4209 368.585H55.0283V363.421H52.0132V368.17L49.1323 368.158C49.2137 365.993 49.2544 363.873 49.2544 361.798C49.2544 359.731 49.2137 357.708 49.1323 355.731H51.8911L51.769 360.907L54.7842 361.004V355.523L57.665 355.731ZM58.7271 355.804L61.9253 355.548C61.8521 357.989 61.8154 359.999 61.8154 361.578C61.8154 362.172 61.8236 362.705 61.8398 363.177C61.8724 364.919 62.263 365.814 63.0117 365.863C63.0605 365.871 63.1053 365.875 63.146 365.875C63.8133 365.875 64.2365 365.493 64.4155 364.728C64.5132 364.28 64.562 363.218 64.562 361.542C64.562 360.199 64.5295 358.465 64.4644 356.341L67.4673 356.122C67.4998 358.604 67.5161 360.736 67.5161 362.518C67.5161 364.74 67.4917 366.416 67.4429 367.547C67.3615 369.582 66.7796 371.128 65.6973 372.186C64.7207 373.146 63.3494 373.626 61.5835 373.626C61.38 373.626 61.1725 373.618 60.9609 373.602L60.6191 370.624C60.7738 370.632 60.9243 370.636 61.0708 370.636C62.438 370.636 63.3739 370.396 63.8784 369.916C64.3993 369.419 64.6597 368.622 64.6597 367.523V367.328C64.1958 368.06 63.4837 368.426 62.5234 368.426H62.3525C61.3027 368.377 60.4889 367.966 59.9111 367.193C59.3333 366.412 59.016 365.322 58.959 363.922C58.9102 362.514 58.8328 359.808 58.7271 355.804ZM74.5474 360.821C74.5555 359.291 74.5596 357.656 74.5596 355.914L77.123 355.646L77.0742 361.322C78.2217 359.336 79.2796 357.517 80.248 355.865L83.1167 355.914C82.1564 357.534 80.8381 359.54 79.1616 361.932C80.008 363.446 81.2816 365.533 82.9824 368.194L79.7231 368.341C79.0965 366.949 78.1688 365.208 76.9399 363.116C76.9399 364.654 76.9399 366.294 76.9399 368.036L74.3765 368.304L74.4131 362.616C73.2738 364.61 72.2158 366.432 71.2393 368.084L68.3706 368.036C69.3309 366.416 70.6493 364.41 72.3257 362.018C71.4793 360.504 70.2057 358.417 68.5049 355.755L71.7642 355.609C72.3908 356.992 73.3185 358.73 74.5474 360.821ZM92.7236 355.731C92.6423 359.71 92.5609 363.995 92.4795 368.585H90.0869V363.421H87.0718V368.17L84.1909 368.158C84.2723 365.993 84.313 363.873 84.313 361.798C84.313 359.731 84.2723 357.708 84.1909 355.731H86.9497L86.8276 360.907L89.8428 361.004V355.523L92.7236 355.731ZM98.1069 355.853C100.874 355.853 102.257 357.774 102.257 361.615C102.257 361.769 102.253 361.924 102.245 362.079C102.131 366.237 100.658 368.337 97.8262 368.377C97.7936 368.386 97.7611 368.39 97.7285 368.39C95.0348 368.39 93.688 366.424 93.688 362.494V362.152C93.7694 357.953 95.2424 355.853 98.1069 355.853ZM97.7041 358.636C97.1914 358.815 96.8415 359.479 96.6543 360.626C96.5404 361.31 96.4834 361.997 96.4834 362.689C96.4834 363.153 96.5078 363.621 96.5566 364.093C96.6868 365.265 97.106 365.871 97.814 365.912H97.8994C98.5586 365.912 99.0103 365.476 99.2544 364.605C99.4578 363.881 99.5596 363.023 99.5596 362.03C99.5596 361.786 99.5555 361.537 99.5474 361.285C99.4823 359.975 99.2869 359.157 98.9614 358.832C98.758 358.636 98.5138 358.539 98.229 358.539C98.0662 358.539 97.8913 358.571 97.7041 358.636ZM107.604 358.038V355.755C108.581 355.772 109.549 355.78 110.509 355.78C111.999 355.78 113.459 355.755 114.892 355.707L114.977 358.136H112.462C112.462 362.254 112.511 365.517 112.609 367.926L109.801 368.048C109.948 363.938 110.054 360.589 110.119 358.001L107.604 358.038ZM116.125 373.26C116.173 370.518 116.198 367.6 116.198 364.508C116.198 361.692 116.177 358.738 116.137 355.646L119.03 355.633L119.127 357.513C119.73 356.602 120.531 356.146 121.532 356.146C124.031 356.146 125.28 358.119 125.28 362.066V362.311C125.223 366.266 123.978 368.243 121.544 368.243C121.447 368.243 121.349 368.239 121.251 368.231C120.421 368.19 119.75 367.739 119.237 366.876C119.237 368.683 119.282 370.811 119.372 373.26H116.125ZM119.176 360.016L119.237 364.605C119.709 365.248 120.185 365.57 120.666 365.57C120.861 365.57 121.056 365.513 121.251 365.399C121.846 365.073 122.143 364.101 122.143 362.481C122.143 362.286 122.139 362.083 122.13 361.871C122.049 359.885 121.654 358.84 120.946 358.734C120.873 358.726 120.804 358.722 120.739 358.722C120.12 358.722 119.599 359.153 119.176 360.016ZM130.98 355.499C133.658 355.646 134.997 356.992 134.997 359.54V368.207L132.152 368.255L132.055 367.096C131.469 367.763 130.692 368.097 129.723 368.097C129.308 368.097 128.861 368.032 128.38 367.901C126.94 367.543 126.22 366.428 126.22 364.557C126.22 364.329 126.232 364.085 126.256 363.824C126.419 361.896 127.79 360.931 130.37 360.931C130.867 360.931 131.412 360.968 132.006 361.041V359.625C132.006 358.478 131.644 357.904 130.919 357.904H130.871C130.814 357.896 130.761 357.892 130.712 357.892C129.923 357.892 129.528 358.535 129.528 359.82V360.003L126.623 359.759C126.623 356.919 127.99 355.499 130.724 355.499H130.98ZM132.006 365.143V362.994C131.656 362.921 131.339 362.884 131.054 362.884C130.313 362.884 129.809 363.132 129.54 363.629C129.377 363.93 129.296 364.211 129.296 364.471C129.296 364.797 129.426 365.086 129.687 365.338C129.89 365.533 130.154 365.631 130.48 365.631C130.895 365.631 131.404 365.468 132.006 365.143ZM136.071 358.038V355.755C137.047 355.772 138.016 355.78 138.976 355.78C140.465 355.78 141.926 355.755 143.358 355.707L143.444 358.136H140.929C140.929 362.254 140.978 365.517 141.076 367.926L138.268 368.048C138.415 363.938 138.52 360.589 138.585 358.001L136.071 358.038ZM147.521 355.768C147.44 358.062 147.354 360.541 147.265 363.202L150.353 355.975L153.246 356C153.246 356.504 153.246 357.009 153.246 357.513C153.246 361.249 153.409 364.947 153.734 368.609L150.426 368.573C150.556 366.148 150.634 363.775 150.658 361.456L147.765 368.207L144.616 368.084C144.73 365.985 144.787 363.816 144.787 361.578C144.787 359.641 144.746 357.652 144.665 355.609L147.521 355.768ZM154.992 358.038V355.755C155.968 355.772 156.937 355.78 157.897 355.78C159.386 355.78 160.847 355.755 162.279 355.707L162.365 358.136H159.85C159.85 362.254 159.899 365.517 159.997 367.926L157.189 368.048C157.335 363.938 157.441 360.589 157.506 358.001L154.992 358.038ZM166.515 356.097C166.434 357.839 166.393 359.352 166.393 360.638C166.792 360.093 167.296 359.771 167.907 359.674C168.013 359.666 168.114 359.662 168.212 359.662C170.67 359.662 171.923 361.029 171.972 363.763V363.91C171.972 366.644 170.666 368.011 168.053 368.011C167.435 368.011 166.845 367.69 166.283 367.047L166.198 368.377L163.524 368.365C163.565 366.249 163.585 364.211 163.585 362.25C163.585 360.101 163.561 358.05 163.512 356.097H166.515ZM166.393 362.262L166.332 365.265C166.723 365.883 167.219 366.192 167.821 366.192C167.886 366.192 167.956 366.188 168.029 366.18C168.721 366.107 169.103 365.391 169.176 364.032C169.184 363.893 169.188 363.763 169.188 363.641C169.188 362.526 168.896 361.863 168.31 361.651C168.131 361.586 167.951 361.554 167.772 361.554C167.3 361.554 166.841 361.79 166.393 362.262ZM180.333 357.733L180.419 361.419C181.737 361.362 182.576 360.996 182.934 360.321C183.121 359.971 183.214 359.625 183.214 359.283C183.214 358.998 183.145 358.714 183.007 358.429C182.755 357.94 182.116 357.696 181.09 357.696C180.862 357.696 180.61 357.708 180.333 357.733ZM180.541 363.177V366.058C180.704 366.058 180.858 366.058 181.005 366.058C182.331 366.058 183.17 365.769 183.52 365.191C183.707 364.866 183.8 364.569 183.8 364.3C183.8 364.048 183.711 363.824 183.532 363.629C183.222 363.312 182.51 363.153 181.396 363.153C181.135 363.153 180.85 363.161 180.541 363.177ZM177.599 368.231C177.624 366.636 177.636 365.065 177.636 363.519C177.636 360.858 177.595 358.274 177.514 355.768C178.718 355.662 179.776 355.609 180.688 355.609C182.356 355.609 183.515 355.784 184.167 356.134C185.159 356.671 185.721 357.395 185.851 358.307C185.875 358.543 185.888 358.771 185.888 358.99C185.888 359.609 185.757 360.15 185.497 360.614C185.139 361.232 184.496 361.676 183.568 361.944C184.602 362.075 185.342 362.376 185.79 362.848C186.164 363.246 186.352 363.816 186.352 364.557C186.352 364.703 186.343 364.854 186.327 365.008C186.246 365.977 185.863 366.701 185.18 367.181C184.504 367.661 183.56 367.991 182.348 368.17C181.672 368.268 180.875 368.316 179.955 368.316C179.239 368.316 178.454 368.288 177.599 368.231ZM187.218 373.26C187.267 370.518 187.292 367.6 187.292 364.508C187.292 361.692 187.271 358.738 187.23 355.646L190.124 355.633L190.221 357.513C190.823 356.602 191.625 356.146 192.626 356.146C195.124 356.146 196.374 358.119 196.374 362.066V362.311C196.317 366.266 195.071 368.243 192.638 368.243C192.541 368.243 192.443 368.239 192.345 368.231C191.515 368.19 190.844 367.739 190.331 366.876C190.331 368.683 190.376 370.811 190.465 373.26H187.218ZM190.27 360.016L190.331 364.605C190.803 365.248 191.279 365.57 191.759 365.57C191.955 365.57 192.15 365.513 192.345 365.399C192.939 365.073 193.236 364.101 193.236 362.481C193.236 362.286 193.232 362.083 193.224 361.871C193.143 359.885 192.748 358.84 192.04 358.734C191.967 358.726 191.898 358.722 191.833 358.722C191.214 358.722 190.693 359.153 190.27 360.016ZM201.317 355.853C204.141 355.853 205.553 357.729 205.553 361.48C205.553 361.936 205.533 362.424 205.492 362.945H200.036C200.036 365.037 200.438 366.083 201.244 366.083H201.33C202.038 366.026 202.392 365.484 202.392 364.459C202.392 364.239 202.375 363.995 202.343 363.727L205.248 363.666C205.248 366.766 203.893 368.337 201.183 368.377C201.151 368.386 201.122 368.39 201.098 368.39C198.518 368.39 197.228 366.432 197.228 362.518V362.152C197.309 357.953 198.673 355.853 201.317 355.853ZM199.743 360.699H202.501V360.406C202.501 358.925 202.082 358.185 201.244 358.185C200.341 358.185 199.84 359.023 199.743 360.699ZM210.216 355.609L212.658 364.593L214.464 356.268L219.25 356.317C219.168 358.189 219.127 360.081 219.127 361.993C219.127 364.125 219.18 366.286 219.286 368.475L216.222 368.646C216.222 366.343 216.194 363.531 216.137 360.211L214.416 367.828L211.156 368.011L209.057 359.796L209.02 368.121L206.444 368.268C206.493 366.363 206.518 364.475 206.518 362.604C206.518 360.268 206.481 357.961 206.408 355.682L210.216 355.609ZM225.463 368.463C225.593 366.876 225.679 365.195 225.719 363.421C225.613 363.405 225.508 363.397 225.402 363.397C224.881 363.397 224.433 363.617 224.059 364.056C223.725 364.455 223.559 365.533 223.559 367.291C223.559 367.877 223.575 368.536 223.607 369.269L220.543 369.232V368.854C220.543 366.087 220.759 364.361 221.19 363.678C221.646 362.97 222.313 362.563 223.192 362.457C221.931 362.107 221.105 361.293 220.714 360.016C220.6 359.625 220.543 359.243 220.543 358.868C220.543 358.046 220.84 357.293 221.435 356.61C222.069 355.886 223.546 355.523 225.866 355.523C226.696 355.523 227.636 355.568 228.686 355.658C228.588 358.294 228.539 360.907 228.539 363.495C228.539 365.179 228.559 366.856 228.6 368.524L225.463 368.463ZM226 357.696C225.748 357.672 225.508 357.66 225.28 357.66C224.311 357.66 223.709 357.908 223.473 358.404C223.335 358.689 223.266 358.978 223.266 359.271C223.266 359.621 223.355 359.975 223.534 360.333C223.876 361.017 224.678 361.383 225.939 361.432L226 357.696ZM242.87 355.731C242.789 359.71 242.707 363.995 242.626 368.585H240.233V363.421H237.218V368.17L234.337 368.158C234.419 365.993 234.459 363.873 234.459 361.798C234.459 359.731 234.419 357.708 234.337 355.731H237.096L236.974 360.907L239.989 361.004V355.523L242.87 355.731ZM248.681 355.499C251.358 355.646 252.697 356.992 252.697 359.54V368.207L249.853 368.255L249.755 367.096C249.169 367.763 248.392 368.097 247.423 368.097C247.008 368.097 246.561 368.032 246.081 367.901C244.64 367.543 243.92 366.428 243.92 364.557C243.92 364.329 243.932 364.085 243.957 363.824C244.119 361.896 245.491 360.931 248.07 360.931C248.567 360.931 249.112 360.968 249.706 361.041V359.625C249.706 358.478 249.344 357.904 248.62 357.904H248.571C248.514 357.896 248.461 357.892 248.412 357.892C247.623 357.892 247.228 358.535 247.228 359.82V360.003L244.323 359.759C244.323 356.919 245.69 355.499 248.424 355.499H248.681ZM249.706 365.143V362.994C249.356 362.921 249.039 362.884 248.754 362.884C248.013 362.884 247.509 363.132 247.24 363.629C247.077 363.93 246.996 364.211 246.996 364.471C246.996 364.797 247.126 365.086 247.387 365.338C247.59 365.533 247.855 365.631 248.18 365.631C248.595 365.631 249.104 365.468 249.706 365.143ZM11.6201 385.816C11.5306 389.771 11.4451 394.028 11.3638 398.585H8.76367V388.209H5.5166V398.17L2.40381 398.158C2.49333 396.009 2.53809 393.906 2.53809 391.847C2.53809 389.788 2.49333 387.778 2.40381 385.816H5.38232L5.26025 385.707L8.50732 385.816V385.609L11.6201 385.816ZM12.3647 385.804L15.563 385.548C15.4897 387.989 15.4531 389.999 15.4531 391.578C15.4531 392.172 15.4613 392.705 15.4775 393.177C15.5101 394.919 15.9007 395.814 16.6494 395.863C16.6982 395.871 16.743 395.875 16.7837 395.875C17.451 395.875 17.8742 395.493 18.0532 394.728C18.1509 394.28 18.1997 393.218 18.1997 391.542C18.1997 390.199 18.1672 388.465 18.1021 386.341L21.105 386.122C21.1375 388.604 21.1538 390.736 21.1538 392.518C21.1538 394.74 21.1294 396.416 21.0806 397.547C20.9992 399.582 20.4173 401.128 19.335 402.186C18.3584 403.146 16.9871 403.626 15.2212 403.626C15.0177 403.626 14.8102 403.618 14.5986 403.602L14.2568 400.624C14.4115 400.632 14.562 400.636 14.7085 400.636C16.0757 400.636 17.0116 400.396 17.5161 399.916C18.0369 399.419 18.2974 398.622 18.2974 397.523V397.328C17.8335 398.06 17.1214 398.426 16.1611 398.426H15.9902C14.9404 398.377 14.1266 397.966 13.5488 397.193C12.971 396.412 12.6536 395.322 12.5967 393.922C12.5479 392.514 12.4705 389.808 12.3647 385.804ZM27.1963 393.36L30.1016 393.543C30.1016 396.481 28.7466 397.971 26.0366 398.011C26.0041 398.019 25.9756 398.023 25.9512 398.023C23.3714 398.023 22.0815 396.066 22.0815 392.152V391.786C22.1629 387.586 23.5382 385.466 26.2075 385.426H26.3052C28.7629 385.426 29.9917 386.834 29.9917 389.649C29.9917 389.812 29.9876 389.975 29.9795 390.138L27.355 390.333V390.04C27.355 388.559 26.9359 387.818 26.0977 387.818C25.2432 387.818 24.8159 389.019 24.8159 391.419V391.822C24.8647 394.418 25.2961 395.716 26.1099 395.716H26.1831C26.8911 395.659 27.2451 395.118 27.2451 394.093C27.2451 393.873 27.2288 393.629 27.1963 393.36ZM31.2124 388.038V385.755C32.189 385.772 33.1574 385.78 34.1177 385.78C35.6069 385.78 37.0677 385.755 38.5 385.707L38.5854 388.136H36.0708C36.0708 392.254 36.1196 395.517 36.2173 397.926L33.4097 398.048C33.5562 393.938 33.6619 390.589 33.7271 388.001L31.2124 388.038ZM44.6768 398.463C44.807 396.876 44.8924 395.195 44.9331 393.421C44.8273 393.405 44.7215 393.397 44.6157 393.397C44.0949 393.397 43.6473 393.617 43.2729 394.056C42.9393 394.455 42.7725 395.533 42.7725 397.291C42.7725 397.877 42.7887 398.536 42.8213 399.269L39.7573 399.232V398.854C39.7573 396.087 39.973 394.361 40.4043 393.678C40.86 392.97 41.5273 392.563 42.4062 392.457C41.1449 392.107 40.3188 391.293 39.9282 390.016C39.8143 389.625 39.7573 389.243 39.7573 388.868C39.7573 388.046 40.0544 387.293 40.6484 386.61C41.2832 385.886 42.7603 385.523 45.0796 385.523C45.9097 385.523 46.8496 385.568 47.8994 385.658C47.8018 388.294 47.7529 390.907 47.7529 393.495C47.7529 395.179 47.7733 396.856 47.814 398.524L44.6768 398.463ZM45.2139 387.696C44.9616 387.672 44.7215 387.66 44.4937 387.66C43.5252 387.66 42.923 387.908 42.687 388.404C42.5487 388.689 42.4795 388.978 42.4795 389.271C42.4795 389.621 42.569 389.975 42.748 390.333C43.0898 391.017 43.8914 391.383 45.1528 391.432L45.2139 387.696ZM51.8789 385.67L51.8301 390.479C52.945 388.754 53.9989 387.09 54.9917 385.487L57.7993 385.804C56.3263 387.855 55.0405 389.796 53.9419 391.627C54.8696 393.295 56.1432 395.464 57.7627 398.133L54.7354 398.426C53.8239 396.449 52.7985 394.593 51.6592 392.86V397.547L48.9858 397.596C49.0428 393.267 49.0713 389.373 49.0713 385.914L51.8789 385.67ZM61.7544 385.768C61.673 388.062 61.5876 390.541 61.498 393.202L64.5864 385.975L67.4795 386C67.4795 386.504 67.4795 387.009 67.4795 387.513C67.4795 391.249 67.6423 394.947 67.9678 398.609L64.6597 398.573C64.7899 396.148 64.8672 393.775 64.8916 391.456L61.9985 398.207L58.8491 398.084C58.9631 395.985 59.02 393.816 59.02 391.578C59.02 389.641 58.9793 387.652 58.8979 385.609L61.7544 385.768ZM79.7964 388.38V391.432H73.6929V388.38H79.7964ZM94.6523 385.816C94.5628 389.771 94.4774 394.028 94.396 398.585H91.7959V388.209H88.5488V398.17L85.436 398.158C85.5256 396.009 85.5703 393.906 85.5703 391.847C85.5703 389.788 85.5256 387.778 85.436 385.816H88.4146L88.2925 385.707L91.5396 385.816V385.609L94.6523 385.816ZM95.4946 403.26C95.5435 400.518 95.5679 397.6 95.5679 394.508C95.5679 391.692 95.5475 388.738 95.5068 385.646L98.3999 385.633L98.4976 387.513C99.0998 386.602 99.9014 386.146 100.902 386.146C103.401 386.146 104.65 388.119 104.65 392.066V392.311C104.593 396.266 103.348 398.243 100.915 398.243C100.817 398.243 100.719 398.239 100.622 398.231C99.7915 398.19 99.1201 397.739 98.6074 396.876C98.6074 398.683 98.6522 400.811 98.7417 403.26H95.4946ZM98.5464 390.016L98.6074 394.605C99.0794 395.248 99.5555 395.57 100.036 395.57C100.231 395.57 100.426 395.513 100.622 395.399C101.216 395.073 101.513 394.101 101.513 392.481C101.513 392.286 101.509 392.083 101.5 391.871C101.419 389.885 101.024 388.84 100.316 388.734C100.243 388.726 100.174 388.722 100.109 388.722C99.4904 388.722 98.9696 389.153 98.5464 390.016ZM109.923 385.853C112.69 385.853 114.074 387.774 114.074 391.615C114.074 391.769 114.07 391.924 114.062 392.079C113.948 396.237 112.475 398.337 109.643 398.377C109.61 398.386 109.577 398.39 109.545 398.39C106.851 398.39 105.504 396.424 105.504 392.494V392.152C105.586 387.953 107.059 385.853 109.923 385.853ZM109.521 388.636C109.008 388.815 108.658 389.479 108.471 390.626C108.357 391.31 108.3 391.997 108.3 392.689C108.3 393.153 108.324 393.621 108.373 394.093C108.503 395.265 108.922 395.871 109.63 395.912H109.716C110.375 395.912 110.827 395.476 111.071 394.605C111.274 393.881 111.376 393.023 111.376 392.03C111.376 391.786 111.372 391.537 111.364 391.285C111.299 389.975 111.103 389.157 110.778 388.832C110.574 388.636 110.33 388.539 110.045 388.539C109.883 388.539 109.708 388.571 109.521 388.636ZM119.75 393.36L122.655 393.543C122.655 396.481 121.3 397.971 118.59 398.011C118.558 398.019 118.529 398.023 118.505 398.023C115.925 398.023 114.635 396.066 114.635 392.152V391.786C114.717 387.586 116.092 385.466 118.761 385.426H118.859C121.317 385.426 122.545 386.834 122.545 389.649C122.545 389.812 122.541 389.975 122.533 390.138L119.909 390.333V390.04C119.909 388.559 119.49 387.818 118.651 387.818C117.797 387.818 117.37 389.019 117.37 391.419V391.822C117.418 394.418 117.85 395.716 118.664 395.716H118.737C119.445 395.659 119.799 395.118 119.799 394.093C119.799 393.873 119.783 393.629 119.75 393.36ZM123.766 388.038V385.755C124.743 385.772 125.711 385.78 126.671 385.78C128.161 385.78 129.621 385.755 131.054 385.707L131.139 388.136H128.625C128.625 392.254 128.673 395.517 128.771 397.926L125.963 398.048C126.11 393.938 126.216 390.589 126.281 388.001L123.766 388.038ZM136.51 385.853C139.277 385.853 140.661 387.774 140.661 391.615C140.661 391.769 140.657 391.924 140.648 392.079C140.535 396.237 139.062 398.337 136.229 398.377C136.197 398.386 136.164 398.39 136.132 398.39C133.438 398.39 132.091 396.424 132.091 392.494V392.152C132.173 387.953 133.646 385.853 136.51 385.853ZM136.107 388.636C135.595 388.815 135.245 389.479 135.058 390.626C134.944 391.31 134.887 391.997 134.887 392.689C134.887 393.153 134.911 393.621 134.96 394.093C135.09 395.265 135.509 395.871 136.217 395.912H136.303C136.962 395.912 137.414 395.476 137.658 394.605C137.861 393.881 137.963 393.023 137.963 392.03C137.963 391.786 137.959 391.537 137.951 391.285C137.886 389.975 137.69 389.157 137.365 388.832C137.161 388.636 136.917 388.539 136.632 388.539C136.47 388.539 136.295 388.571 136.107 388.636ZM155.224 385.816C155.134 389.771 155.049 394.028 154.967 398.585H152.367V388.209H149.12V398.17L146.007 398.158C146.097 396.009 146.142 393.906 146.142 391.847C146.142 389.788 146.097 387.778 146.007 385.816H148.986L148.864 385.707L152.111 385.816V385.609L155.224 385.816ZM155.968 385.804L159.167 385.548C159.093 387.989 159.057 389.999 159.057 391.578C159.057 392.172 159.065 392.705 159.081 393.177C159.114 394.919 159.504 395.814 160.253 395.863C160.302 395.871 160.347 395.875 160.387 395.875C161.055 395.875 161.478 395.493 161.657 394.728C161.754 394.28 161.803 393.218 161.803 391.542C161.803 390.199 161.771 388.465 161.706 386.341L164.708 386.122C164.741 388.604 164.757 390.736 164.757 392.518C164.757 394.74 164.733 396.416 164.684 397.547C164.603 399.582 164.021 401.128 162.938 402.186C161.962 403.146 160.591 403.626 158.825 403.626C158.621 403.626 158.414 403.618 158.202 403.602L157.86 400.624C158.015 400.632 158.166 400.636 158.312 400.636C159.679 400.636 160.615 400.396 161.12 399.916C161.64 399.419 161.901 398.622 161.901 397.523V397.328C161.437 398.06 160.725 398.426 159.765 398.426H159.594C158.544 398.377 157.73 397.966 157.152 397.193C156.575 396.412 156.257 395.322 156.2 393.922C156.151 392.514 156.074 389.808 155.968 385.804ZM165.905 388.038V385.755C166.881 385.772 167.85 385.78 168.81 385.78C170.299 385.78 171.76 385.755 173.192 385.707L173.278 388.136H170.763C170.763 392.254 170.812 395.517 170.91 397.926L168.102 398.048C168.249 393.938 168.354 390.589 168.419 388.001L165.905 388.038ZM178.319 385.853C181.143 385.853 182.555 387.729 182.555 391.48C182.555 391.936 182.535 392.424 182.494 392.945H177.038C177.038 395.037 177.44 396.083 178.246 396.083H178.332C179.04 396.026 179.394 395.484 179.394 394.459C179.394 394.239 179.377 393.995 179.345 393.727L182.25 393.666C182.25 396.766 180.895 398.337 178.185 398.377C178.153 398.386 178.124 398.39 178.1 398.39C175.52 398.39 174.23 396.432 174.23 392.518V392.152C174.311 387.953 175.674 385.853 178.319 385.853ZM176.745 390.699H179.503V390.406C179.503 388.925 179.084 388.185 178.246 388.185C177.343 388.185 176.842 389.023 176.745 390.699ZM194.433 398.292L194.384 396.339C193.944 397.275 193.436 397.857 192.858 398.084C192.516 398.215 192.17 398.28 191.82 398.28C191.56 398.28 191.299 398.247 191.039 398.182C190.404 398.019 189.953 397.368 189.684 396.229C189.472 397.116 189.106 397.71 188.585 398.011C188.065 398.304 187.487 398.455 186.852 398.463H186.803C186.185 398.463 185.591 398.312 185.021 398.011C184.443 397.702 184 397.124 183.69 396.278C183.389 395.423 183.231 394.256 183.214 392.774V385.682L185.851 385.621C185.745 388.299 185.692 390.577 185.692 392.457C185.692 394.337 186.05 395.35 186.767 395.497C186.872 395.513 186.974 395.521 187.072 395.521C187.641 395.521 188.081 395.155 188.39 394.422C188.439 393.576 188.463 392.587 188.463 391.456C188.463 389.918 188.419 388.124 188.329 386.073L191.381 386.048C191.267 389.198 191.21 391.493 191.21 392.933V393.08C191.218 394.504 191.499 395.252 192.052 395.326H192.211C192.707 395.326 193.188 395.041 193.651 394.471L193.627 385.536L196.508 385.426V387.428C196.508 390.976 196.561 394.52 196.667 398.06L194.433 398.292ZM201.366 385.853C204.19 385.853 205.602 387.729 205.602 391.48C205.602 391.936 205.582 392.424 205.541 392.945H200.084C200.084 395.037 200.487 396.083 201.293 396.083H201.378C202.086 396.026 202.44 395.484 202.44 394.459C202.44 394.239 202.424 393.995 202.392 393.727L205.297 393.666C205.297 396.766 203.942 398.337 201.232 398.377C201.199 398.386 201.171 398.39 201.146 398.39C198.567 398.39 197.277 396.432 197.277 392.518V392.152C197.358 387.953 198.721 385.853 201.366 385.853ZM199.792 390.699H202.55V390.406C202.55 388.925 202.131 388.185 201.293 388.185C200.39 388.185 199.889 389.023 199.792 390.699ZM211.522 393.36L214.428 393.543C214.428 396.481 213.073 397.971 210.363 398.011C210.33 398.019 210.302 398.023 210.277 398.023C207.698 398.023 206.408 396.066 206.408 392.152V391.786C206.489 387.586 207.864 385.466 210.534 385.426H210.631C213.089 385.426 214.318 386.834 214.318 389.649C214.318 389.812 214.314 389.975 214.306 390.138L211.681 390.333V390.04C211.681 388.559 211.262 387.818 210.424 387.818C209.569 387.818 209.142 389.019 209.142 391.419V391.822C209.191 394.418 209.622 395.716 210.436 395.716H210.509C211.217 395.659 211.571 395.118 211.571 394.093C211.571 393.873 211.555 393.629 211.522 393.36ZM215.539 388.038V385.755C216.515 385.772 217.484 385.78 218.444 385.78C219.933 385.78 221.394 385.755 222.826 385.707L222.912 388.136H220.397C220.397 392.254 220.446 395.517 220.543 397.926L217.736 398.048C217.882 393.938 217.988 390.589 218.053 388.001L215.539 388.038ZM226.891 387.733L226.977 391.419C228.295 391.362 229.133 390.996 229.491 390.321C229.678 389.971 229.772 389.625 229.772 389.283C229.772 388.998 229.703 388.714 229.564 388.429C229.312 387.94 228.673 387.696 227.648 387.696C227.42 387.696 227.168 387.708 226.891 387.733ZM227.099 393.177V396.058C227.261 396.058 227.416 396.058 227.562 396.058C228.889 396.058 229.727 395.769 230.077 395.191C230.264 394.866 230.358 394.569 230.358 394.3C230.358 394.048 230.268 393.824 230.089 393.629C229.78 393.312 229.068 393.153 227.953 393.153C227.693 393.153 227.408 393.161 227.099 393.177ZM224.157 398.231C224.181 396.636 224.193 395.065 224.193 393.519C224.193 390.858 224.153 388.274 224.071 385.768C225.276 385.662 226.334 385.609 227.245 385.609C228.913 385.609 230.073 385.784 230.724 386.134C231.717 386.671 232.278 387.395 232.409 388.307C232.433 388.543 232.445 388.771 232.445 388.99C232.445 389.609 232.315 390.15 232.055 390.614C231.697 391.232 231.054 391.676 230.126 391.944C231.16 392.075 231.9 392.376 232.348 392.848C232.722 393.246 232.909 393.816 232.909 394.557C232.909 394.703 232.901 394.854 232.885 395.008C232.803 395.977 232.421 396.701 231.737 397.181C231.062 397.661 230.118 397.991 228.905 398.17C228.23 398.268 227.432 398.316 226.513 398.316C225.797 398.316 225.011 398.288 224.157 398.231ZM233.678 385.804L236.876 385.548C236.803 387.989 236.767 389.999 236.767 391.578C236.767 392.172 236.775 392.705 236.791 393.177C236.824 394.919 237.214 395.814 237.963 395.863C238.012 395.871 238.056 395.875 238.097 395.875C238.764 395.875 239.188 395.493 239.367 394.728C239.464 394.28 239.513 393.218 239.513 391.542C239.513 390.199 239.481 388.465 239.416 386.341L242.418 386.122C242.451 388.604 242.467 390.736 242.467 392.518C242.467 394.74 242.443 396.416 242.394 397.547C242.313 399.582 241.731 401.128 240.648 402.186C239.672 403.146 238.301 403.626 236.535 403.626C236.331 403.626 236.124 403.618 235.912 403.602L235.57 400.624C235.725 400.632 235.875 400.636 236.022 400.636C237.389 400.636 238.325 400.396 238.83 399.916C239.35 399.419 239.611 398.622 239.611 397.523V397.328C239.147 398.06 238.435 398.426 237.475 398.426H237.304C236.254 398.377 235.44 397.966 234.862 397.193C234.285 396.412 233.967 395.322 233.91 393.922C233.861 392.514 233.784 389.808 233.678 385.804ZM246.52 385.768C246.439 388.062 246.353 390.541 246.264 393.202L249.352 385.975L252.245 386C252.245 386.504 252.245 387.009 252.245 387.513C252.245 391.249 252.408 394.947 252.733 398.609L249.425 398.573C249.556 396.148 249.633 393.775 249.657 391.456L246.764 398.207L243.615 398.084C243.729 395.985 243.786 393.816 243.786 391.578C243.786 389.641 243.745 387.652 243.664 385.609L246.52 385.768ZM244.518 380.079H246.715C246.715 381.056 247.204 381.544 248.18 381.544C249.157 381.544 249.645 381.056 249.645 380.079H251.842C251.842 382.521 250.622 383.741 248.18 383.741C245.739 383.741 244.518 382.521 244.518 380.079ZM253.991 388.038V385.755C254.967 385.772 255.936 385.78 256.896 385.78C258.385 385.78 259.846 385.755 261.278 385.707L261.364 388.136H258.849C258.849 392.254 258.898 395.517 258.996 397.926L256.188 398.048C256.334 393.938 256.44 390.589 256.505 388.001L253.991 388.038ZM266.405 385.853C269.229 385.853 270.641 387.729 270.641 391.48C270.641 391.936 270.621 392.424 270.58 392.945H265.124C265.124 395.037 265.526 396.083 266.332 396.083H266.417C267.125 396.026 267.479 395.484 267.479 394.459C267.479 394.239 267.463 393.995 267.431 393.727L270.336 393.666C270.336 396.766 268.981 398.337 266.271 398.377C266.238 398.386 266.21 398.39 266.186 398.39C263.606 398.39 262.316 396.432 262.316 392.518V392.152C262.397 387.953 263.76 385.853 266.405 385.853ZM264.831 390.699H267.589V390.406C267.589 388.925 267.17 388.185 266.332 388.185C265.429 388.185 264.928 389.023 264.831 390.699ZM273.192 398.451C272.704 398.451 272.285 398.276 271.935 397.926C271.585 397.576 271.41 397.157 271.41 396.668C271.41 396.172 271.585 395.749 271.935 395.399C272.285 395.049 272.704 394.874 273.192 394.874C273.689 394.874 274.112 395.049 274.462 395.399C274.812 395.749 274.987 396.172 274.987 396.668C274.987 397.157 274.812 397.576 274.462 397.926C274.112 398.276 273.689 398.451 273.192 398.451ZM274.694 381.263C274.58 385.405 274.503 389.499 274.462 393.543L271.752 393.604C271.671 390.138 271.577 386.024 271.471 381.263H274.694Z" fill="#282828"/>
</svg>
