<svg width="1065" height="509" viewBox="0 0 1065 509" fill="none" xmlns="http://www.w3.org/2000/svg">
<path d="M0.612305 15.9673C0.569336 15.4409 0.547852 14.9468 0.547852 14.4849C0.547852 12.895 0.789551 11.6704 1.27295 10.811C1.88525 9.70459 2.88428 9.02246 4.27002 8.76465C4.95752 8.63574 5.60742 8.57129 6.21973 8.57129C6.85352 8.57129 7.45508 8.64111 8.02441 8.78076C9.1416 9.04932 10.0332 9.65625 10.6992 10.6016C11.3652 11.5361 11.7197 12.8252 11.7627 14.4688V14.9199C11.7627 16.3379 11.5425 17.3745 11.1021 18.0298C10.6187 18.7603 9.81299 19.3081 8.68506 19.6733C9.61963 19.813 10.3179 20.1514 10.7798 20.6885C11.2524 21.2256 11.5747 21.9453 11.7466 22.8477C11.854 23.3525 11.9077 23.9004 11.9077 24.4912C11.9077 24.9854 11.8701 25.5171 11.7949 26.0864C11.6445 27.3433 11.1343 28.4282 10.2642 29.3413C9.40479 30.2437 8.07275 30.7163 6.26807 30.7593H6.02637C4.33984 30.7593 2.9917 30.3188 1.98193 29.438C0.929199 28.5356 0.402832 26.5967 0.402832 23.6211V23.5405L4.28613 23.3149C4.27539 23.4868 4.27002 23.6533 4.27002 23.8145C4.27002 25.9092 4.82324 26.9941 5.92969 27.0693C6.00488 27.0801 6.08008 27.0854 6.15527 27.0854C7.19727 27.0854 7.82031 26.5322 8.02441 25.4258C8.08887 25.1143 8.12109 24.8188 8.12109 24.5396C8.12109 23.7554 7.89551 23.0732 7.44434 22.4932C6.82129 21.709 5.79541 21.3169 4.3667 21.3169L4.18945 18.4648C4.36133 18.4756 4.52246 18.481 4.67285 18.481C5.91895 18.481 6.77832 18.1211 7.25098 17.4014C7.69141 16.7246 7.91162 15.8545 7.91162 14.791C7.91162 14.5762 7.90088 14.3613 7.87939 14.1465C7.79346 12.8574 7.21875 12.2129 6.15527 12.2129H5.96191C4.90918 12.2881 4.38281 13.3408 4.38281 15.3711C4.38281 15.6074 4.38818 15.8652 4.39893 16.1445L0.612305 15.9673ZM20.1577 14.1787C23.6919 14.3721 25.459 16.1499 25.459 19.5122V30.9526L21.7046 31.0171L21.5757 29.4863C20.8022 30.3672 19.7764 30.8076 18.498 30.8076C17.9502 30.8076 17.3594 30.7217 16.7256 30.5498C14.8242 30.0771 13.8735 28.6055 13.8735 26.1348C13.8735 25.834 13.8896 25.5117 13.9219 25.168C14.1367 22.6221 15.9468 21.3491 19.3521 21.3491C20.0073 21.3491 20.7271 21.3975 21.5112 21.4941V19.625C21.5112 18.1104 21.0332 17.353 20.0771 17.353H20.0127C19.9375 17.3423 19.8677 17.3369 19.8032 17.3369C18.7612 17.3369 18.2402 18.1855 18.2402 19.8828V20.1245L14.4053 19.8022C14.4053 16.0532 16.21 14.1787 19.8193 14.1787H20.1577ZM21.5112 26.9082V24.0723C21.0493 23.9756 20.6304 23.9272 20.2544 23.9272C19.2769 23.9272 18.6108 24.2549 18.2563 24.9102C18.0415 25.3076 17.9341 25.6782 17.9341 26.022C17.9341 26.4517 18.106 26.833 18.4497 27.166C18.7183 27.4238 19.0674 27.5527 19.4971 27.5527C20.0449 27.5527 20.7163 27.3379 21.5112 26.9082ZM31.8882 18.3198C31.2114 18.5562 30.7495 19.4316 30.5024 20.9463C30.3521 21.8486 30.2769 22.7563 30.2769 23.6694C30.2769 24.2817 30.3091 24.8994 30.3735 25.5225C30.5454 27.0693 31.0986 27.8696 32.0332 27.9233H32.146C33.0161 27.9233 33.6123 27.3486 33.9346 26.1992C34.2031 25.2432 34.3374 24.1099 34.3374 22.7993C34.3374 22.4771 34.332 22.1494 34.3213 21.8164C34.2354 20.0869 33.9775 19.0073 33.5479 18.5776C33.2793 18.3198 32.957 18.1909 32.5811 18.1909C32.3662 18.1909 32.1353 18.2339 31.8882 18.3198ZM29.3584 16.4023C30.3896 14.8877 31.4102 14.3022 32.4199 14.646C36.0723 14.646 37.8984 17.1812 37.8984 22.2515C37.8984 22.4556 37.8931 22.6597 37.8823 22.8638C37.7319 28.353 35.7876 31.1245 32.0493 31.1782C32.0063 31.189 31.9634 31.1943 31.9204 31.1943C28.3647 31.1943 26.5869 28.6001 26.5869 23.4116V22.9604C26.6299 20.6831 26.7319 18.6958 26.8931 16.9985C27.0542 15.3013 27.3657 13.6846 27.8276 12.1484C28.3003 10.6016 28.7676 9.72607 29.2295 9.52197C29.7021 9.30713 30.814 9.14062 32.5649 9.02246C34.3159 8.89355 35.1484 8.18994 35.0625 6.91162L38.3979 8.8291C37.7104 11.2139 36.6631 12.2183 35.2559 11.8423C33.8486 11.4556 32.4844 11.4126 31.1631 11.7134C29.8418 12.0034 29.2402 13.5664 29.3584 16.4023ZM38.7686 14.5815L42.9902 14.2432C42.8936 17.4658 42.8452 20.1191 42.8452 22.2031C42.8452 22.9873 42.856 23.6909 42.8774 24.314C42.9204 26.6128 43.436 27.7944 44.4243 27.8589C44.4888 27.8696 44.5479 27.875 44.6016 27.875C45.4824 27.875 46.041 27.3701 46.2773 26.3604C46.4062 25.7695 46.4707 24.3677 46.4707 22.1548C46.4707 20.3823 46.4277 18.0942 46.3418 15.2905L50.3057 15.0005C50.3486 18.2769 50.3701 21.0913 50.3701 23.4438C50.3701 26.3765 50.3379 28.5894 50.2734 30.0825C50.166 32.7681 49.3979 34.8091 47.9692 36.2056C46.6802 37.4731 44.8701 38.1069 42.5391 38.1069C42.2705 38.1069 41.9966 38.0962 41.7173 38.0747L41.2661 34.1431C41.4702 34.1538 41.6689 34.1592 41.8623 34.1592C43.667 34.1592 44.9023 33.8423 45.5684 33.2085C46.2559 32.5532 46.5996 31.5005 46.5996 30.0503V29.7925C45.9873 30.7593 45.0474 31.2427 43.7798 31.2427H43.5542C42.1685 31.1782 41.0942 30.6357 40.3315 29.6152C39.5688 28.584 39.1499 27.1445 39.0747 25.2969C39.0103 23.4385 38.9082 19.8667 38.7686 14.5815ZM61.0532 28.3745C61.1392 25.646 61.1821 23.229 61.1821 21.1235C61.1821 19.9849 61.166 18.9482 61.1338 18.0137L57.9756 18.1104C57.9863 18.9697 57.9917 19.7754 57.9917 20.5273C57.9917 24.6094 57.7876 27.1606 57.3794 28.1812L61.0532 28.3745ZM53.0449 27.9556C53.0771 27.9448 53.1094 27.9341 53.1416 27.9233C53.8076 27.6226 54.1406 26.5752 54.1406 24.7812V24.5234C54.1084 22.5684 54.0117 19.4048 53.8506 15.0327L54.7046 14.9683L54.6885 14.5171L64.8721 14.3237C64.8613 15.3335 64.856 16.3379 64.856 17.3369C64.856 21.0967 64.9365 24.8457 65.0977 28.584L66.0967 28.6323V33.6436L63.2607 34.1108L62.874 31.1782L54.6724 30.9526V34.2075L51.627 34.3042V27.8911L53.0449 27.9556ZM71.5752 14.9683C71.4678 17.2671 71.4141 19.2651 71.4141 20.9624C71.9404 20.2427 72.6064 19.8184 73.4121 19.6895C73.5518 19.6787 73.686 19.6733 73.8149 19.6733C77.0591 19.6733 78.7134 21.478 78.7778 25.0874V25.2808C78.7778 28.8901 77.0537 30.6948 73.6055 30.6948C72.7891 30.6948 72.0103 30.2705 71.269 29.4219L71.1562 31.1782L67.6274 31.1621C67.6812 28.3691 67.708 25.6782 67.708 23.0894C67.708 20.2534 67.6758 17.5464 67.6113 14.9683H71.5752ZM71.4141 23.1055L71.3335 27.0693C71.8491 27.8857 72.5044 28.2939 73.2993 28.2939C73.3853 28.2939 73.4766 28.2886 73.5732 28.2778C74.4863 28.1812 74.9912 27.2358 75.0879 25.4419C75.0986 25.2593 75.104 25.0874 75.104 24.9263C75.104 23.4546 74.7173 22.5791 73.9438 22.2998C73.7075 22.2139 73.4712 22.1709 73.2349 22.1709C72.6118 22.1709 72.0049 22.4824 71.4141 23.1055ZM80.083 17.5303V14.5171C81.3721 14.5386 82.6504 14.5493 83.918 14.5493C85.8838 14.5493 87.812 14.5171 89.7026 14.4526L89.8154 17.6592H86.4961C86.4961 23.0947 86.5605 27.4023 86.6895 30.582L82.9834 30.7432C83.1768 25.3184 83.3164 20.8979 83.4023 17.4819L80.083 17.5303ZM96.4702 14.646C100.198 14.646 102.062 17.1221 102.062 22.0742C102.062 22.6758 102.035 23.3203 101.981 24.0078H94.7783C94.7783 26.7686 95.3101 28.1489 96.3735 28.1489H96.4863C97.4209 28.0737 97.8882 27.3594 97.8882 26.0059C97.8882 25.7158 97.8667 25.3936 97.8237 25.0391L101.659 24.9585C101.659 29.0513 99.8701 31.1245 96.293 31.1782C96.25 31.189 96.2124 31.1943 96.1802 31.1943C92.7749 31.1943 91.0723 28.6108 91.0723 23.4438V22.9604C91.1797 17.4175 92.979 14.646 96.4702 14.646ZM94.3916 21.043H98.0332V20.6562C98.0332 18.7012 97.48 17.7236 96.3735 17.7236C95.1812 17.7236 94.5205 18.8301 94.3916 21.043ZM114.984 14.646C118.637 14.646 120.463 17.1812 120.463 22.2515C120.463 22.4556 120.458 22.6597 120.447 22.8638C120.296 28.353 118.352 31.1245 114.614 31.1782C114.571 31.189 114.528 31.1943 114.485 31.1943C110.929 31.1943 109.151 28.6001 109.151 23.4116V22.9604C109.259 17.4175 111.203 14.646 114.984 14.646ZM114.453 18.3198C113.776 18.5562 113.314 19.4316 113.067 20.9463C112.917 21.8486 112.841 22.7563 112.841 23.6694C112.841 24.2817 112.874 24.8994 112.938 25.5225C113.11 27.0693 113.663 27.8696 114.598 27.9233H114.71C115.581 27.9233 116.177 27.3486 116.499 26.1992C116.768 25.2432 116.902 24.1099 116.902 22.7993C116.902 22.4771 116.896 22.1494 116.886 21.8164C116.8 20.0869 116.542 19.0073 116.112 18.5776C115.844 18.3198 115.521 18.1909 115.146 18.1909C114.931 18.1909 114.7 18.2339 114.453 18.3198ZM138.784 14.4849C138.676 19.7378 138.569 25.3936 138.461 31.4521H135.303V24.6362H131.323V30.9043L127.521 30.8882C127.628 28.0308 127.682 25.2324 127.682 22.4932C127.682 19.7646 127.628 17.0952 127.521 14.4849H131.162L131.001 21.3169L134.981 21.4458V14.2109L138.784 14.4849ZM145.455 14.646C149.182 14.646 151.046 17.1221 151.046 22.0742C151.046 22.6758 151.019 23.3203 150.965 24.0078H143.763C143.763 26.7686 144.294 28.1489 145.358 28.1489H145.471C146.405 28.0737 146.873 27.3594 146.873 26.0059C146.873 25.7158 146.851 25.3936 146.808 25.0391L150.643 24.9585C150.643 29.0513 148.854 31.1245 145.277 31.1782C145.234 31.189 145.197 31.1943 145.165 31.1943C141.759 31.1943 140.057 28.6108 140.057 23.4438V22.9604C140.164 17.4175 141.963 14.646 145.455 14.646ZM143.376 21.043H147.018V20.6562C147.018 18.7012 146.464 17.7236 145.358 17.7236C144.166 17.7236 143.505 18.8301 143.376 21.043ZM152.238 14.5815L156.46 14.2432C156.363 17.4658 156.315 20.1191 156.315 22.2031C156.315 22.9873 156.326 23.6909 156.347 24.314C156.39 26.6128 156.906 27.7944 157.894 27.8589C157.958 27.8696 158.018 27.875 158.071 27.875C158.952 27.875 159.511 27.3701 159.747 26.3604C159.876 25.7695 159.94 24.3677 159.94 22.1548C159.94 20.3823 159.897 18.0942 159.812 15.2905L163.775 15.0005C163.818 18.2769 163.84 21.0913 163.84 23.4438C163.84 26.3765 163.808 28.5894 163.743 30.0825C163.636 32.7681 162.868 34.8091 161.439 36.2056C160.15 37.4731 158.34 38.1069 156.009 38.1069C155.74 38.1069 155.466 38.0962 155.187 38.0747L154.736 34.1431C154.94 34.1538 155.139 34.1592 155.332 34.1592C157.137 34.1592 158.372 33.8423 159.038 33.2085C159.726 32.5532 160.069 31.5005 160.069 30.0503V29.7925C159.457 30.7593 158.517 31.2427 157.25 31.2427H157.024C155.638 31.1782 154.564 30.6357 153.801 29.6152C153.039 28.584 152.62 27.1445 152.544 25.2969C152.48 23.4385 152.378 19.8667 152.238 14.5815ZM174.523 28.3745C174.609 25.646 174.652 23.229 174.652 21.1235C174.652 19.9849 174.636 18.9482 174.604 18.0137L171.445 18.1104C171.456 18.9697 171.461 19.7754 171.461 20.5273C171.461 24.6094 171.257 27.1606 170.849 28.1812L174.523 28.3745ZM166.515 27.9556C166.547 27.9448 166.579 27.9341 166.611 27.9233C167.277 27.6226 167.61 26.5752 167.61 24.7812V24.5234C167.578 22.5684 167.481 19.4048 167.32 15.0327L168.174 14.9683L168.158 14.5171L178.342 14.3237C178.331 15.3335 178.326 16.3379 178.326 17.3369C178.326 21.0967 178.406 24.8457 178.567 28.584L179.566 28.6323V33.6436L176.73 34.1108L176.344 31.1782L168.142 30.9526V34.2075L165.097 34.3042V27.8911L166.515 27.9556ZM186.656 14.646C190.309 14.646 192.135 17.1812 192.135 22.2515C192.135 22.4556 192.129 22.6597 192.119 22.8638C191.968 28.353 190.024 31.1245 186.286 31.1782C186.243 31.189 186.2 31.1943 186.157 31.1943C182.601 31.1943 180.823 28.6001 180.823 23.4116V22.9604C180.931 17.4175 182.875 14.646 186.656 14.646ZM186.125 18.3198C185.448 18.5562 184.986 19.4316 184.739 20.9463C184.588 21.8486 184.513 22.7563 184.513 23.6694C184.513 24.2817 184.545 24.8994 184.61 25.5225C184.782 27.0693 185.335 27.8696 186.27 27.9233H186.382C187.252 27.9233 187.849 27.3486 188.171 26.1992C188.439 25.2432 188.574 24.1099 188.574 22.7993C188.574 22.4771 188.568 22.1494 188.558 21.8164C188.472 20.0869 188.214 19.0073 187.784 18.5776C187.516 18.3198 187.193 18.1909 186.817 18.1909C186.603 18.1909 186.372 18.2339 186.125 18.3198ZM198.177 18.3198C197.5 18.5562 197.039 19.4316 196.792 20.9463C196.641 21.8486 196.566 22.7563 196.566 23.6694C196.566 24.2817 196.598 24.8994 196.663 25.5225C196.834 27.0693 197.388 27.8696 198.322 27.9233H198.435C199.305 27.9233 199.901 27.3486 200.224 26.1992C200.492 25.2432 200.626 24.1099 200.626 22.7993C200.626 22.4771 200.621 22.1494 200.61 21.8164C200.524 20.0869 200.267 19.0073 199.837 18.5776C199.568 18.3198 199.246 18.1909 198.87 18.1909C198.655 18.1909 198.424 18.2339 198.177 18.3198ZM195.647 16.4023C196.679 14.8877 197.699 14.3022 198.709 14.646C202.361 14.646 204.188 17.1812 204.188 22.2515C204.188 22.4556 204.182 22.6597 204.171 22.8638C204.021 28.353 202.077 31.1245 198.338 31.1782C198.295 31.189 198.252 31.1943 198.209 31.1943C194.654 31.1943 192.876 28.6001 192.876 23.4116V22.9604C192.919 20.6831 193.021 18.6958 193.182 16.9985C193.343 15.3013 193.655 13.6846 194.117 12.1484C194.589 10.6016 195.057 9.72607 195.519 9.52197C195.991 9.30713 197.103 9.14062 198.854 9.02246C200.605 8.89355 201.438 8.18994 201.352 6.91162L204.687 8.8291C204 11.2139 202.952 12.2183 201.545 11.8423C200.138 11.4556 198.773 11.4126 197.452 11.7134C196.131 12.0034 195.529 13.5664 195.647 16.4023ZM211.68 24.5557L215.515 24.7974C215.515 28.6753 213.727 30.6411 210.149 30.6948C210.106 30.7056 210.069 30.7109 210.037 30.7109C206.631 30.7109 204.929 28.1274 204.929 22.9604V22.4771C205.036 16.9341 206.852 14.1357 210.375 14.082H210.504C213.748 14.082 215.37 15.9404 215.37 19.6572C215.37 19.8721 215.365 20.0869 215.354 20.3018L211.89 20.5596V20.1729C211.89 18.2178 211.336 17.2402 210.23 17.2402C209.102 17.2402 208.538 18.8247 208.538 21.9937V22.5254C208.603 25.9521 209.172 27.6655 210.246 27.6655H210.343C211.277 27.5903 211.745 26.876 211.745 25.5225C211.745 25.2324 211.723 24.9102 211.68 24.5557ZM216.981 17.5303V14.5171C218.271 14.5386 219.549 14.5493 220.816 14.5493C222.782 14.5493 224.71 14.5171 226.601 14.4526L226.714 17.6592H223.395C223.395 23.0947 223.459 27.4023 223.588 30.582L219.882 30.7432C220.075 25.3184 220.215 20.8979 220.301 17.4819L216.981 17.5303ZM231.967 17.1274L232.08 21.9937C233.82 21.9185 234.926 21.4351 235.399 20.5435C235.646 20.0815 235.77 19.625 235.77 19.1738C235.77 18.7979 235.678 18.4219 235.496 18.0459C235.163 17.4014 234.319 17.0791 232.966 17.0791C232.665 17.0791 232.332 17.0952 231.967 17.1274ZM232.241 24.314V28.1167C232.456 28.1167 232.66 28.1167 232.853 28.1167C234.604 28.1167 235.71 27.7354 236.172 26.9727C236.419 26.543 236.543 26.1509 236.543 25.7964C236.543 25.4634 236.425 25.168 236.188 24.9102C235.78 24.4912 234.84 24.2817 233.369 24.2817C233.025 24.2817 232.649 24.2925 232.241 24.314ZM228.357 30.9849C228.39 28.8794 228.406 26.8062 228.406 24.7651C228.406 21.2524 228.352 17.8418 228.245 14.5332C229.834 14.3936 231.231 14.3237 232.434 14.3237C234.636 14.3237 236.167 14.5547 237.026 15.0166C238.337 15.7256 239.078 16.6816 239.25 17.8848C239.282 18.1963 239.298 18.4971 239.298 18.7871C239.298 19.6035 239.126 20.3179 238.783 20.9302C238.31 21.7466 237.461 22.332 236.237 22.6865C237.601 22.8584 238.579 23.2559 239.169 23.8789C239.664 24.4053 239.911 25.1572 239.911 26.1348C239.911 26.3281 239.9 26.5269 239.878 26.731C239.771 28.0093 239.266 28.9653 238.364 29.5991C237.472 30.2329 236.226 30.668 234.625 30.9043C233.734 31.0332 232.681 31.0977 231.467 31.0977C230.522 31.0977 229.485 31.0601 228.357 30.9849ZM247.194 14.1787C250.728 14.3721 252.495 16.1499 252.495 19.5122V30.9526L248.741 31.0171L248.612 29.4863C247.838 30.3672 246.812 30.8076 245.534 30.8076C244.986 30.8076 244.396 30.7217 243.762 30.5498C241.86 30.0771 240.91 28.6055 240.91 26.1348C240.91 25.834 240.926 25.5117 240.958 25.168C241.173 22.6221 242.983 21.3491 246.388 21.3491C247.043 21.3491 247.763 21.3975 248.547 21.4941V19.625C248.547 18.1104 248.069 17.353 247.113 17.353H247.049C246.974 17.3423 246.904 17.3369 246.839 17.3369C245.797 17.3369 245.276 18.1855 245.276 19.8828V20.1245L241.441 19.8022C241.441 16.0532 243.246 14.1787 246.855 14.1787H247.194ZM248.547 26.9082V24.0723C248.085 23.9756 247.667 23.9272 247.291 23.9272C246.313 23.9272 245.647 24.2549 245.292 24.9102C245.078 25.3076 244.97 25.6782 244.97 26.022C244.97 26.4517 245.142 26.833 245.486 27.166C245.754 27.4238 246.104 27.5527 246.533 27.5527C247.081 27.5527 247.752 27.3379 248.547 26.9082ZM257.829 14.3398L259.521 20.6724L261.196 14.2915L265.45 14.791C264.462 16.8857 263.409 19.437 262.292 22.4448C263.28 25.0444 264.371 27.7031 265.563 30.4209L261.406 30.8721L259.375 24.6685L257.442 30.8237L253.494 30.3081C254.644 27.6978 255.729 25.1304 256.749 22.606L253.591 14.9844L257.829 14.3398ZM269.221 31.2749C268.576 31.2749 268.023 31.0439 267.561 30.582C267.099 30.1201 266.868 29.5669 266.868 28.9224C266.868 28.2671 267.099 27.7085 267.561 27.2466C268.023 26.7847 268.576 26.5537 269.221 26.5537C269.876 26.5537 270.435 26.7847 270.896 27.2466C271.358 27.7085 271.589 28.2671 271.589 28.9224C271.589 29.5669 271.358 30.1201 270.896 30.582C270.435 31.0439 269.876 31.2749 269.221 31.2749ZM277.986 30.5498C280.006 21.376 281.639 13.5986 282.885 7.21777L288.927 7.12109C290.41 13.7598 292.107 21.3223 294.019 29.8086L289.894 30.6465L288.589 24.5396H283.578L282.224 31.1299L277.986 30.5498ZM288.46 20.0117C287.901 17.6914 286.988 14.9146 285.721 11.6812C284.743 14.3989 283.916 17.2134 283.239 20.1245L288.46 20.0117ZM297.354 14.2271L297.516 16.8535C297.967 15.457 299.154 14.748 301.077 14.7266H301.141C303.032 14.7266 304.321 15.4678 305.008 16.9502C305.481 17.96 305.717 20.3232 305.717 24.04C305.717 25.8662 305.658 28.0254 305.54 30.5176H301.641C301.78 27.1982 301.85 24.6255 301.85 22.7993C301.85 21.8862 301.834 21.1558 301.802 20.6079C301.694 18.9966 301.179 18.1909 300.255 18.1909C299.331 18.1909 298.751 18.6206 298.515 19.48L298.676 31.1621L294.889 31.1943C294.889 26.2529 294.723 20.7046 294.39 14.5493L297.354 14.2271ZM309.746 9.50586L313.403 9.26416V14.5977L316.481 14.5171L316.529 17.5625L313.403 17.7075V25.0391C313.403 26.7471 314.128 27.6011 315.579 27.6011C315.879 27.6011 316.207 27.5635 316.562 27.4883L316.417 31.0332C315.901 31.0977 315.412 31.1299 314.95 31.1299C311.556 31.1299 309.826 29.3789 309.762 25.877V17.9976L307.119 18.1587L307.055 14.5654L309.762 14.5977L309.746 9.50586ZM323.555 14.646C327.207 14.646 329.033 17.1812 329.033 22.2515C329.033 22.4556 329.028 22.6597 329.017 22.8638C328.867 28.353 326.922 31.1245 323.184 31.1782C323.141 31.189 323.098 31.1943 323.055 31.1943C319.5 31.1943 317.722 28.6001 317.722 23.4116V22.9604C317.829 17.4175 319.773 14.646 323.555 14.646ZM323.023 18.3198C322.346 18.5562 321.884 19.4316 321.637 20.9463C321.487 21.8486 321.412 22.7563 321.412 23.6694C321.412 24.2817 321.444 24.8994 321.508 25.5225C321.68 27.0693 322.233 27.8696 323.168 27.9233H323.281C324.151 27.9233 324.747 27.3486 325.069 26.1992C325.338 25.2432 325.472 24.1099 325.472 22.7993C325.472 22.4771 325.467 22.1494 325.456 21.8164C325.37 20.0869 325.112 19.0073 324.683 18.5776C324.414 18.3198 324.092 18.1909 323.716 18.1909C323.501 18.1909 323.27 18.2339 323.023 18.3198ZM332.9 14.2271L333.062 16.8535C333.513 15.457 334.7 14.748 336.623 14.7266H336.687C338.578 14.7266 339.867 15.4678 340.554 16.9502C341.027 17.96 341.263 20.3232 341.263 24.04C341.263 25.8662 341.204 28.0254 341.086 30.5176H337.187C337.326 27.1982 337.396 24.6255 337.396 22.7993C337.396 21.8862 337.38 21.1558 337.348 20.6079C337.24 18.9966 336.725 18.1909 335.801 18.1909C334.877 18.1909 334.297 18.6206 334.061 19.48L334.222 31.1621L330.435 31.1943C330.435 26.2529 330.269 20.7046 329.936 14.5493L332.9 14.2271ZM347.112 10.9399C347.112 11.5952 346.881 12.1538 346.419 12.6157C345.958 13.0776 345.399 13.3086 344.744 13.3086C344.099 13.3086 343.546 13.0776 343.084 12.6157C342.622 12.1538 342.391 11.5952 342.391 10.9399C342.391 10.2954 342.622 9.74219 343.084 9.28027C343.546 8.81836 344.099 8.5874 344.744 8.5874C345.399 8.5874 345.958 8.81836 346.419 9.28027C346.881 9.74219 347.112 10.2954 347.112 10.9399ZM342.794 31.2749C342.719 24.9907 342.681 19.5605 342.681 14.9844L346.742 14.7427C346.613 19.1255 346.548 23.4814 346.548 27.8105C346.548 28.9707 346.554 30.1255 346.564 31.2749H342.794ZM353.687 14.646C357.339 14.646 359.165 17.1812 359.165 22.2515C359.165 22.4556 359.16 22.6597 359.149 22.8638C358.999 28.353 357.054 31.1245 353.316 31.1782C353.273 31.189 353.23 31.1943 353.187 31.1943C349.631 31.1943 347.854 28.6001 347.854 23.4116V22.9604C347.961 17.4175 349.905 14.646 353.687 14.646ZM353.155 18.3198C352.478 18.5562 352.016 19.4316 351.769 20.9463C351.619 21.8486 351.543 22.7563 351.543 23.6694C351.543 24.2817 351.576 24.8994 351.64 25.5225C351.812 27.0693 352.365 27.8696 353.3 27.9233H353.413C354.283 27.9233 354.879 27.3486 355.201 26.1992C355.47 25.2432 355.604 24.1099 355.604 22.7993C355.604 22.4771 355.599 22.1494 355.588 21.8164C355.502 20.0869 355.244 19.0073 354.814 18.5776C354.546 18.3198 354.224 18.1909 353.848 18.1909C353.633 18.1909 353.402 18.2339 353.155 18.3198ZM370.477 10.9077L370.589 17.8203C372.587 17.7129 373.855 17.0308 374.392 15.7739C374.682 15.1079 374.827 14.4526 374.827 13.8081C374.827 13.271 374.72 12.7393 374.505 12.2129C374.129 11.2998 373.167 10.8433 371.621 10.8433C371.277 10.8433 370.896 10.8647 370.477 10.9077ZM370.783 21.1396V26.5376C371.03 26.5483 371.266 26.5537 371.492 26.5537C373.49 26.5537 374.752 26.0059 375.278 24.9102C375.568 24.2979 375.713 23.7446 375.713 23.2505C375.713 22.7671 375.574 22.3428 375.294 21.9775C374.833 21.3867 373.758 21.0913 372.072 21.0913C371.674 21.0913 371.245 21.1074 370.783 21.1396ZM366.335 30.6304C366.378 27.6333 366.4 24.6846 366.4 21.7842C366.4 16.7783 366.335 11.9175 366.207 7.20166C368.033 7.0083 369.633 6.91162 371.008 6.91162C373.533 6.91162 375.284 7.23926 376.261 7.89453C377.765 8.9043 378.614 10.2686 378.807 11.9873C378.85 12.4277 378.872 12.8521 378.872 13.2603C378.872 14.4312 378.673 15.4463 378.275 16.3057C377.728 17.4766 376.755 18.3145 375.359 18.8193C376.917 19.0557 378.034 19.6196 378.71 20.5112C379.28 21.2632 379.564 22.3374 379.564 23.7339C379.564 24.0024 379.554 24.2817 379.532 24.5718C379.403 26.3979 378.823 27.7622 377.792 28.6646C376.771 29.5669 375.348 30.1846 373.522 30.5176C372.491 30.7002 371.282 30.7915 369.896 30.7915C368.812 30.7915 367.625 30.7378 366.335 30.6304ZM389.249 31.1943L389.087 28.5679C388.636 29.9644 387.422 30.668 385.446 30.6787C385.424 30.6895 385.408 30.6948 385.397 30.6948C383.442 30.6948 382.148 29.814 381.514 28.0522C381.084 26.8813 380.87 24.459 380.87 20.7852C380.87 18.8945 380.929 16.6655 381.047 14.0981H384.962C384.748 17.7075 384.64 20.4844 384.64 22.4287C384.64 23.4062 384.667 24.1689 384.721 24.7168C384.882 26.3926 385.424 27.2305 386.348 27.2305C387.272 27.2305 387.852 26.7954 388.088 25.9253L387.927 14.7427L391.714 14.7104C391.714 19.3296 391.88 24.7114 392.213 30.856L389.249 31.1943ZM393.357 25.4741L397.047 25.2969V25.5063C397.047 27.1606 397.558 27.9985 398.578 28.02H398.643C399.631 28.02 400.125 27.542 400.125 26.5859V26.4731C400.082 25.4204 399.104 24.5718 397.192 23.9272C395.291 23.2827 394.147 22.1978 393.76 20.6724C393.621 20.1353 393.551 19.6196 393.551 19.1255C393.551 18.2231 393.782 17.3853 394.244 16.6118C394.953 15.4302 396.027 14.7534 397.466 14.5815C397.853 14.5386 398.229 14.5171 398.594 14.5171C399.55 14.5171 400.394 14.6836 401.124 15.0166C402.123 15.4785 402.816 16.1392 403.203 16.9985C403.46 17.5894 403.589 18.2446 403.589 18.9644C403.589 19.3081 403.562 19.6626 403.509 20.0278L400.061 20.1084C400.093 19.8398 400.109 19.5928 400.109 19.3672C400.109 18.293 399.765 17.7183 399.078 17.6431C399.002 17.6323 398.927 17.627 398.852 17.627C398.143 17.627 397.665 17.9868 397.418 18.7065C397.332 18.9536 397.289 19.1792 397.289 19.3833C397.289 19.8882 397.525 20.3232 397.998 20.6885C398.664 21.2041 399.647 21.7305 400.947 22.2676C402.257 22.7939 403.138 23.6963 403.589 24.9746C403.75 25.458 403.831 25.9414 403.831 26.4248C403.831 27.2412 403.595 28.063 403.122 28.8901C402.37 30.2114 401.205 30.9795 399.625 31.1943C399.282 31.248 398.943 31.2749 398.61 31.2749C397.429 31.2749 396.333 30.9688 395.323 30.3564C394.034 29.5723 393.379 27.9448 393.357 25.4741ZM414.853 17.1274L414.965 21.9937C416.706 21.9185 417.812 21.4351 418.285 20.5435C418.532 20.0815 418.655 19.625 418.655 19.1738C418.655 18.7979 418.564 18.4219 418.381 18.0459C418.048 17.4014 417.205 17.0791 415.852 17.0791C415.551 17.0791 415.218 17.0952 414.853 17.1274ZM415.126 24.314V28.1167C415.341 28.1167 415.545 28.1167 415.739 28.1167C417.49 28.1167 418.596 27.7354 419.058 26.9727C419.305 26.543 419.429 26.1509 419.429 25.7964C419.429 25.4634 419.311 25.168 419.074 24.9102C418.666 24.4912 417.726 24.2817 416.254 24.2817C415.911 24.2817 415.535 24.2925 415.126 24.314ZM411.243 30.9849C411.275 28.8794 411.292 26.8062 411.292 24.7651C411.292 21.2524 411.238 17.8418 411.13 14.5332C412.72 14.3936 414.117 14.3237 415.32 14.3237C417.522 14.3237 419.053 14.5547 419.912 15.0166C421.223 15.7256 421.964 16.6816 422.136 17.8848C422.168 18.1963 422.184 18.4971 422.184 18.7871C422.184 19.6035 422.012 20.3179 421.668 20.9302C421.196 21.7466 420.347 22.332 419.123 22.6865C420.487 22.8584 421.464 23.2559 422.055 23.8789C422.549 24.4053 422.796 25.1572 422.796 26.1348C422.796 26.3281 422.786 26.5269 422.764 26.731C422.657 28.0093 422.152 28.9653 421.25 29.5991C420.358 30.2329 419.112 30.668 417.511 30.9043C416.62 31.0332 415.567 31.0977 414.353 31.0977C413.408 31.0977 412.371 31.0601 411.243 30.9849ZM430.434 24.5557L434.269 24.7974C434.269 28.6753 432.48 30.6411 428.903 30.6948C428.86 30.7056 428.823 30.7109 428.791 30.7109C425.385 30.7109 423.683 28.1274 423.683 22.9604V22.4771C423.79 16.9341 425.605 14.1357 429.129 14.082H429.258C432.502 14.082 434.124 15.9404 434.124 19.6572C434.124 19.8721 434.119 20.0869 434.108 20.3018L430.644 20.5596V20.1729C430.644 18.2178 430.09 17.2402 428.984 17.2402C427.856 17.2402 427.292 18.8247 427.292 21.9937V22.5254C427.356 25.9521 427.926 27.6655 429 27.6655H429.097C430.031 27.5903 430.499 26.876 430.499 25.5225C430.499 25.2324 430.477 24.9102 430.434 24.5557ZM440.843 14.646C444.571 14.646 446.435 17.1221 446.435 22.0742C446.435 22.6758 446.408 23.3203 446.354 24.0078H439.151C439.151 26.7686 439.683 28.1489 440.747 28.1489H440.859C441.794 28.0737 442.261 27.3594 442.261 26.0059C442.261 25.7158 442.24 25.3936 442.197 25.0391L446.032 24.9585C446.032 29.0513 444.243 31.1245 440.666 31.1782C440.623 31.189 440.585 31.1943 440.553 31.1943C437.148 31.1943 435.445 28.6108 435.445 23.4438V22.9604C435.553 17.4175 437.352 14.646 440.843 14.646ZM438.765 21.043H442.406V20.6562C442.406 18.7012 441.853 17.7236 440.747 17.7236C439.554 17.7236 438.894 18.8301 438.765 21.043ZM456.876 14.3237V17.6108L451.22 17.4336L451.897 30.5981L447.933 30.4531C448.041 28.2617 448.094 26.0596 448.094 23.8467C448.094 20.7852 447.992 17.6914 447.788 14.5654C449.947 14.4902 452.977 14.4097 456.876 14.3237ZM467.333 28.3745C467.419 25.646 467.462 23.229 467.462 21.1235C467.462 19.9849 467.446 18.9482 467.414 18.0137L464.256 18.1104C464.267 18.9697 464.272 19.7754 464.272 20.5273C464.272 24.6094 464.068 27.1606 463.66 28.1812L467.333 28.3745ZM459.325 27.9556C459.357 27.9448 459.39 27.9341 459.422 27.9233C460.088 27.6226 460.421 26.5752 460.421 24.7812V24.5234C460.389 22.5684 460.292 19.4048 460.131 15.0327L460.985 14.9683L460.969 14.5171L471.152 14.3237C471.142 15.3335 471.136 16.3379 471.136 17.3369C471.136 21.0967 471.217 24.8457 471.378 28.584L472.377 28.6323V33.6436L469.541 34.1108L469.154 31.1782L460.953 30.9526V34.2075L457.907 34.3042V27.8911L459.325 27.9556ZM480.031 14.1787C483.565 14.3721 485.332 16.1499 485.332 19.5122V30.9526L481.578 31.0171L481.449 29.4863C480.675 30.3672 479.649 30.8076 478.371 30.8076C477.823 30.8076 477.232 30.7217 476.599 30.5498C474.697 30.0771 473.747 28.6055 473.747 26.1348C473.747 25.834 473.763 25.5117 473.795 25.168C474.01 22.6221 475.82 21.3491 479.225 21.3491C479.88 21.3491 480.6 21.3975 481.384 21.4941V19.625C481.384 18.1104 480.906 17.353 479.95 17.353H479.886C479.811 17.3423 479.741 17.3369 479.676 17.3369C478.634 17.3369 478.113 18.1855 478.113 19.8828V20.1245L474.278 19.8022C474.278 16.0532 476.083 14.1787 479.692 14.1787H480.031ZM481.384 26.9082V24.0723C480.922 23.9756 480.503 23.9272 480.127 23.9272C479.15 23.9272 478.484 24.2549 478.129 24.9102C477.915 25.3076 477.807 25.6782 477.807 26.022C477.807 26.4517 477.979 26.833 478.323 27.166C478.591 27.4238 478.94 27.5527 479.37 27.5527C479.918 27.5527 480.589 27.3379 481.384 26.9082ZM499.238 24.5557L503.073 24.7974C503.073 28.6753 501.284 30.6411 497.707 30.6948C497.664 30.7056 497.626 30.7109 497.594 30.7109C494.189 30.7109 492.486 28.1274 492.486 22.9604V22.4771C492.594 16.9341 494.409 14.1357 497.933 14.082H498.062C501.306 14.082 502.928 15.9404 502.928 19.6572C502.928 19.8721 502.922 20.0869 502.912 20.3018L499.447 20.5596V20.1729C499.447 18.2178 498.894 17.2402 497.788 17.2402C496.66 17.2402 496.096 18.8247 496.096 21.9937V22.5254C496.16 25.9521 496.729 27.6655 497.804 27.6655H497.9C498.835 27.5903 499.302 26.876 499.302 25.5225C499.302 25.2324 499.281 24.9102 499.238 24.5557ZM514.271 17.1274L514.384 21.9937C516.125 21.9185 517.231 21.4351 517.704 20.5435C517.951 20.0815 518.074 19.625 518.074 19.1738C518.074 18.7979 517.983 18.4219 517.8 18.0459C517.467 17.4014 516.624 17.0791 515.271 17.0791C514.97 17.0791 514.637 17.0952 514.271 17.1274ZM514.545 24.314V28.1167C514.76 28.1167 514.964 28.1167 515.158 28.1167C516.909 28.1167 518.015 27.7354 518.477 26.9727C518.724 26.543 518.848 26.1509 518.848 25.7964C518.848 25.4634 518.729 25.168 518.493 24.9102C518.085 24.4912 517.145 24.2817 515.673 24.2817C515.33 24.2817 514.954 24.2925 514.545 24.314ZM510.662 30.9849C510.694 28.8794 510.71 26.8062 510.71 24.7651C510.71 21.2524 510.657 17.8418 510.549 14.5332C512.139 14.3936 513.536 14.3237 514.739 14.3237C516.941 14.3237 518.472 14.5547 519.331 15.0166C520.642 15.7256 521.383 16.6816 521.555 17.8848C521.587 18.1963 521.603 18.4971 521.603 18.7871C521.603 19.6035 521.431 20.3179 521.087 20.9302C520.615 21.7466 519.766 22.332 518.542 22.6865C519.906 22.8584 520.883 23.2559 521.474 23.8789C521.968 24.4053 522.215 25.1572 522.215 26.1348C522.215 26.3281 522.205 26.5269 522.183 26.731C522.076 28.0093 521.571 28.9653 520.668 29.5991C519.777 30.2329 518.531 30.668 516.93 30.9043C516.039 31.0332 514.986 31.0977 513.772 31.0977C512.827 31.0977 511.79 31.0601 510.662 30.9849ZM529.499 14.1787C533.033 14.3721 534.8 16.1499 534.8 19.5122V30.9526L531.045 31.0171L530.917 29.4863C530.143 30.3672 529.117 30.8076 527.839 30.8076C527.291 30.8076 526.7 30.7217 526.066 30.5498C524.165 30.0771 523.214 28.6055 523.214 26.1348C523.214 25.834 523.23 25.5117 523.263 25.168C523.478 22.6221 525.288 21.3491 528.693 21.3491C529.348 21.3491 530.068 21.3975 530.852 21.4941V19.625C530.852 18.1104 530.374 17.353 529.418 17.353H529.354C529.278 17.3423 529.208 17.3369 529.144 17.3369C528.102 17.3369 527.581 18.1855 527.581 19.8828V20.1245L523.746 19.8022C523.746 16.0532 525.551 14.1787 529.16 14.1787H529.499ZM530.852 26.9082V24.0723C530.39 23.9756 529.971 23.9272 529.595 23.9272C528.618 23.9272 527.952 24.2549 527.597 24.9102C527.382 25.3076 527.275 25.6782 527.275 26.022C527.275 26.4517 527.447 26.833 527.791 27.166C528.059 27.4238 528.408 27.5527 528.838 27.5527C529.386 27.5527 530.057 27.3379 530.852 26.9082ZM541.02 14.3237L544.242 26.1831L546.627 15.1938L552.943 15.2583C552.836 17.729 552.782 20.2266 552.782 22.751C552.782 25.5654 552.852 28.4175 552.992 31.3071L548.947 31.5327C548.947 28.4927 548.91 24.7812 548.834 20.3984L546.562 30.4531L542.26 30.6948L539.489 19.8506L539.44 30.8398L536.041 31.0332C536.105 28.5195 536.137 26.0273 536.137 23.5566C536.137 20.4736 536.089 17.4282 535.992 14.4204L541.02 14.3237ZM558.486 14.5332C558.379 17.5625 558.266 20.8335 558.148 24.3462L562.225 14.8071L566.043 14.8394C566.043 15.5054 566.043 16.1714 566.043 16.8374C566.043 21.7681 566.258 26.6504 566.688 31.4844L562.321 31.436C562.493 28.2349 562.595 25.1035 562.627 22.042L558.809 30.9526L554.651 30.7915C554.802 28.02 554.877 25.1572 554.877 22.2031C554.877 19.6465 554.823 17.02 554.716 14.3237L558.486 14.5332ZM570.571 31.2749C569.927 31.2749 569.374 31.0439 568.912 30.582C568.45 30.1201 568.219 29.5669 568.219 28.9224C568.219 28.2671 568.45 27.7085 568.912 27.2466C569.374 26.7847 569.927 26.5537 570.571 26.5537C571.227 26.5537 571.785 26.7847 572.247 27.2466C572.709 27.7085 572.94 28.2671 572.94 28.9224C572.94 29.5669 572.709 30.1201 572.247 30.582C571.785 31.0439 571.227 31.2749 570.571 31.2749Z" fill="#282828"/>
<path d="M408.793 478.088C408.664 485.317 408.541 493.105 408.422 501.452H404.765V492.058H400.172V500.695L395.773 500.679C395.902 496.736 395.967 492.88 395.967 489.109C395.967 485.35 395.902 481.676 395.773 478.088H399.979L399.802 487.482L404.394 487.675V477.701L408.793 478.088ZM415.448 484.646C419.175 484.646 421.039 487.122 421.039 492.074C421.039 492.676 421.012 493.32 420.958 494.008H413.756C413.756 496.769 414.288 498.149 415.351 498.149H415.464C416.398 498.074 416.866 497.359 416.866 496.006C416.866 495.716 416.844 495.394 416.801 495.039L420.636 494.958C420.636 499.051 418.848 501.125 415.271 501.178C415.228 501.189 415.19 501.194 415.158 501.194C411.752 501.194 410.05 498.611 410.05 493.444V492.96C410.157 487.417 411.957 484.646 415.448 484.646ZM413.369 491.043H417.011V490.656C417.011 488.701 416.458 487.724 415.351 487.724C414.159 487.724 413.498 488.83 413.369 491.043ZM439.682 484.485C439.575 489.738 439.467 495.394 439.36 501.452H436.202V494.636H432.222V500.904L428.419 500.888C428.526 498.031 428.58 495.232 428.58 492.493C428.58 489.765 428.526 487.095 428.419 484.485H432.061L431.899 491.317L435.879 491.446V484.211L439.682 484.485ZM441.084 484.582L445.306 484.243C445.209 487.466 445.161 490.119 445.161 492.203C445.161 492.987 445.171 493.691 445.193 494.314C445.236 496.613 445.751 497.794 446.74 497.859C446.804 497.87 446.863 497.875 446.917 497.875C447.798 497.875 448.356 497.37 448.593 496.36C448.722 495.77 448.786 494.368 448.786 492.155C448.786 490.382 448.743 488.094 448.657 485.291L452.621 485C452.664 488.277 452.686 491.091 452.686 493.444C452.686 496.376 452.653 498.589 452.589 500.083C452.481 502.768 451.713 504.809 450.285 506.206C448.996 507.473 447.186 508.107 444.854 508.107C444.586 508.107 444.312 508.096 444.033 508.075L443.582 504.143C443.786 504.154 443.984 504.159 444.178 504.159C445.982 504.159 447.218 503.842 447.884 503.208C448.571 502.553 448.915 501.5 448.915 500.05V499.792C448.303 500.759 447.363 501.243 446.095 501.243H445.87C444.484 501.178 443.41 500.636 442.647 499.615C441.884 498.584 441.465 497.145 441.39 495.297C441.326 493.438 441.224 489.867 441.084 484.582ZM461.967 491.204C461.978 489.185 461.983 487.025 461.983 484.727L465.367 484.372L465.302 491.865C466.817 489.244 468.213 486.843 469.492 484.662L473.278 484.727C472.011 486.864 470.271 489.512 468.058 492.67C469.175 494.668 470.856 497.424 473.101 500.937L468.799 501.13C467.972 499.293 466.747 496.994 465.125 494.233C465.125 496.264 465.125 498.428 465.125 500.727L461.741 501.082L461.79 493.573C460.286 496.205 458.889 498.611 457.6 500.792L453.813 500.727C455.081 498.589 456.821 495.941 459.034 492.783C457.917 490.785 456.236 488.03 453.991 484.517L458.293 484.324C459.12 486.15 460.345 488.443 461.967 491.204ZM485.959 484.485C485.852 489.738 485.745 495.394 485.637 501.452H482.479V494.636H478.499V500.904L474.696 500.888C474.804 498.031 474.857 495.232 474.857 492.493C474.857 489.765 474.804 487.095 474.696 484.485H478.338L478.177 491.317L482.157 491.446V484.211L485.959 484.485ZM493.065 484.646C496.718 484.646 498.544 487.181 498.544 492.251C498.544 492.456 498.539 492.66 498.528 492.864C498.377 498.353 496.433 501.125 492.695 501.178C492.652 501.189 492.609 501.194 492.566 501.194C489.01 501.194 487.232 498.6 487.232 493.412V492.96C487.34 487.417 489.284 484.646 493.065 484.646ZM492.534 488.32C491.857 488.556 491.395 489.432 491.148 490.946C490.998 491.849 490.922 492.756 490.922 493.669C490.922 494.282 490.955 494.899 491.019 495.522C491.191 497.069 491.744 497.87 492.679 497.923H492.792C493.662 497.923 494.258 497.349 494.58 496.199C494.849 495.243 494.983 494.11 494.983 492.799C494.983 492.477 494.978 492.149 494.967 491.816C494.881 490.087 494.623 489.007 494.193 488.578C493.925 488.32 493.603 488.191 493.227 488.191C493.012 488.191 492.781 488.234 492.534 488.32ZM505.602 487.53V484.517C506.891 484.539 508.169 484.549 509.437 484.549C511.402 484.549 513.331 484.517 515.221 484.453L515.334 487.659H512.015C512.015 493.095 512.079 497.402 512.208 500.582L508.502 500.743C508.695 495.318 508.835 490.898 508.921 487.482L505.602 487.53ZM516.849 507.624C516.913 504.003 516.945 500.152 516.945 496.07C516.945 492.354 516.918 488.454 516.865 484.372L520.684 484.356L520.812 486.837C521.607 485.634 522.666 485.033 523.987 485.033C527.285 485.033 528.934 487.638 528.934 492.848V493.17C528.858 498.391 527.215 501.001 524.003 501.001C523.874 501.001 523.745 500.996 523.616 500.985C522.521 500.931 521.634 500.335 520.958 499.196C520.958 501.581 521.017 504.39 521.135 507.624H516.849ZM520.877 490.141L520.958 496.199C521.581 497.048 522.209 497.472 522.843 497.472C523.101 497.472 523.358 497.397 523.616 497.247C524.4 496.817 524.792 495.533 524.792 493.396C524.792 493.138 524.787 492.869 524.776 492.59C524.669 489.969 524.148 488.588 523.213 488.449C523.117 488.438 523.025 488.433 522.939 488.433C522.123 488.433 521.436 489.002 520.877 490.141ZM536.458 484.179C539.993 484.372 541.76 486.15 541.76 489.512V500.953L538.005 501.017L537.876 499.486C537.103 500.367 536.077 500.808 534.799 500.808C534.251 500.808 533.66 500.722 533.026 500.55C531.125 500.077 530.174 498.605 530.174 496.135C530.174 495.834 530.19 495.512 530.223 495.168C530.438 492.622 532.248 491.349 535.653 491.349C536.308 491.349 537.028 491.397 537.812 491.494V489.625C537.812 488.11 537.334 487.353 536.378 487.353H536.313C536.238 487.342 536.168 487.337 536.104 487.337C535.062 487.337 534.541 488.186 534.541 489.883V490.125L530.706 489.802C530.706 486.053 532.511 484.179 536.12 484.179H536.458ZM537.812 496.908V494.072C537.35 493.976 536.931 493.927 536.555 493.927C535.578 493.927 534.912 494.255 534.557 494.91C534.342 495.308 534.235 495.678 534.235 496.022C534.235 496.452 534.407 496.833 534.75 497.166C535.019 497.424 535.368 497.553 535.798 497.553C536.346 497.553 537.017 497.338 537.812 496.908ZM543.178 487.53V484.517C544.467 484.539 545.745 484.549 547.013 484.549C548.979 484.549 550.907 484.517 552.797 484.453L552.91 487.659H549.591C549.591 493.095 549.655 497.402 549.784 500.582L546.078 500.743C546.271 495.318 546.411 490.898 546.497 487.482L543.178 487.53ZM558.292 484.533C558.185 487.562 558.072 490.833 557.954 494.346L562.03 484.807L565.849 484.839C565.849 485.505 565.849 486.171 565.849 486.837C565.849 491.768 566.064 496.65 566.494 501.484L562.127 501.436C562.299 498.235 562.401 495.104 562.433 492.042L558.614 500.953L554.457 500.792C554.607 498.02 554.683 495.157 554.683 492.203C554.683 489.646 554.629 487.02 554.521 484.324L558.292 484.533ZM568.153 487.53V484.517C569.442 484.539 570.721 484.549 571.988 484.549C573.954 484.549 575.882 484.517 577.773 484.453L577.886 487.659H574.566C574.566 493.095 574.631 497.402 574.76 500.582L571.054 500.743C571.247 495.318 571.387 490.898 571.473 487.482L568.153 487.53ZM583.364 484.968C583.257 487.267 583.203 489.265 583.203 490.962C583.729 490.243 584.396 489.818 585.201 489.689C585.341 489.679 585.475 489.673 585.604 489.673C588.848 489.673 590.502 491.478 590.567 495.087V495.281C590.567 498.89 588.843 500.695 585.395 500.695C584.578 500.695 583.799 500.271 583.058 499.422L582.945 501.178L579.417 501.162C579.47 498.369 579.497 495.678 579.497 493.089C579.497 490.253 579.465 487.546 579.4 484.968H583.364ZM583.203 493.105L583.123 497.069C583.638 497.886 584.293 498.294 585.088 498.294C585.174 498.294 585.266 498.289 585.362 498.278C586.275 498.181 586.78 497.236 586.877 495.442C586.888 495.259 586.893 495.087 586.893 494.926C586.893 493.455 586.506 492.579 585.733 492.3C585.497 492.214 585.26 492.171 585.024 492.171C584.401 492.171 583.794 492.482 583.203 493.105ZM601.604 487.127L601.717 491.994C603.458 491.918 604.564 491.435 605.037 490.543C605.284 490.082 605.407 489.625 605.407 489.174C605.407 488.798 605.316 488.422 605.133 488.046C604.8 487.401 603.957 487.079 602.604 487.079C602.303 487.079 601.97 487.095 601.604 487.127ZM601.878 494.314V498.117C602.093 498.117 602.297 498.117 602.491 498.117C604.242 498.117 605.348 497.735 605.81 496.973C606.057 496.543 606.181 496.151 606.181 495.796C606.181 495.463 606.062 495.168 605.826 494.91C605.418 494.491 604.478 494.282 603.006 494.282C602.663 494.282 602.287 494.292 601.878 494.314ZM597.995 500.985C598.027 498.879 598.043 496.806 598.043 494.765C598.043 491.252 597.99 487.842 597.882 484.533C599.472 484.394 600.869 484.324 602.072 484.324C604.274 484.324 605.805 484.555 606.664 485.017C607.975 485.726 608.716 486.682 608.888 487.885C608.92 488.196 608.936 488.497 608.936 488.787C608.936 489.604 608.764 490.318 608.42 490.93C607.948 491.747 607.099 492.332 605.875 492.687C607.239 492.858 608.216 493.256 608.807 493.879C609.301 494.405 609.548 495.157 609.548 496.135C609.548 496.328 609.538 496.527 609.516 496.731C609.409 498.009 608.904 498.965 608.001 499.599C607.11 500.233 605.864 500.668 604.263 500.904C603.372 501.033 602.319 501.098 601.105 501.098C600.16 501.098 599.123 501.06 597.995 500.985ZM610.692 507.624C610.757 504.003 610.789 500.152 610.789 496.07C610.789 492.354 610.762 488.454 610.708 484.372L614.527 484.356L614.656 486.837C615.451 485.634 616.509 485.033 617.831 485.033C621.128 485.033 622.777 487.638 622.777 492.848V493.17C622.702 498.391 621.059 501.001 617.847 501.001C617.718 501.001 617.589 500.996 617.46 500.985C616.364 500.931 615.478 500.335 614.801 499.196C614.801 501.581 614.86 504.39 614.979 507.624H610.692ZM614.721 490.141L614.801 496.199C615.424 497.048 616.053 497.472 616.687 497.472C616.944 497.472 617.202 497.397 617.46 497.247C618.244 496.817 618.636 495.533 618.636 493.396C618.636 493.138 618.631 492.869 618.62 492.59C618.513 489.969 617.992 488.588 617.057 488.449C616.96 488.438 616.869 488.433 616.783 488.433C615.967 488.433 615.279 489.002 614.721 490.141ZM629.303 484.646C633.031 484.646 634.895 487.122 634.895 492.074C634.895 492.676 634.868 493.32 634.814 494.008H627.611C627.611 496.769 628.143 498.149 629.207 498.149H629.319C630.254 498.074 630.721 497.359 630.721 496.006C630.721 495.716 630.7 495.394 630.657 495.039L634.492 494.958C634.492 499.051 632.703 501.125 629.126 501.178C629.083 501.189 629.045 501.194 629.013 501.194C625.608 501.194 623.905 498.611 623.905 493.444V492.96C624.013 487.417 625.812 484.646 629.303 484.646ZM627.225 491.043H630.866V490.656C630.866 488.701 630.313 487.724 629.207 487.724C628.014 487.724 627.354 488.83 627.225 491.043ZM641.05 484.324L644.272 496.183L646.657 485.194L652.974 485.258C652.866 487.729 652.812 490.227 652.812 492.751C652.812 495.565 652.882 498.417 653.022 501.307L648.978 501.533C648.978 498.493 648.94 494.781 648.865 490.398L646.593 500.453L642.291 500.695L639.519 489.851L639.471 500.84L636.071 501.033C636.135 498.52 636.167 496.027 636.167 493.557C636.167 490.474 636.119 487.428 636.022 484.42L641.05 484.324ZM661.175 501.291C661.347 499.196 661.46 496.978 661.514 494.636C661.374 494.615 661.234 494.604 661.095 494.604C660.407 494.604 659.816 494.894 659.322 495.474C658.882 496 658.662 497.424 658.662 499.744C658.662 500.518 658.683 501.388 658.726 502.354L654.682 502.306V501.807C654.682 498.154 654.966 495.877 655.536 494.975C656.137 494.04 657.018 493.503 658.178 493.363C656.513 492.901 655.423 491.827 654.907 490.141C654.757 489.625 654.682 489.12 654.682 488.626C654.682 487.541 655.074 486.547 655.858 485.645C656.696 484.689 658.646 484.211 661.707 484.211C662.803 484.211 664.043 484.27 665.429 484.388C665.3 487.869 665.236 491.317 665.236 494.733C665.236 496.957 665.263 499.169 665.316 501.372L661.175 501.291ZM661.884 487.079C661.551 487.047 661.234 487.031 660.934 487.031C659.655 487.031 658.86 487.358 658.549 488.014C658.366 488.39 658.275 488.771 658.275 489.158C658.275 489.62 658.393 490.087 658.629 490.56C659.081 491.462 660.139 491.945 661.804 492.01L661.884 487.079ZM684.153 484.485C684.045 489.738 683.938 495.394 683.831 501.452H680.672V494.636H676.692V500.904L672.89 500.888C672.997 498.031 673.051 495.232 673.051 492.493C673.051 489.765 672.997 487.095 672.89 484.485H676.531L676.37 491.317L680.35 491.446V484.211L684.153 484.485ZM691.823 484.179C695.357 484.372 697.124 486.15 697.124 489.512V500.953L693.37 501.017L693.241 499.486C692.467 500.367 691.441 500.808 690.163 500.808C689.615 500.808 689.024 500.722 688.391 500.55C686.489 500.077 685.539 498.605 685.539 496.135C685.539 495.834 685.555 495.512 685.587 495.168C685.802 492.622 687.612 491.349 691.017 491.349C691.672 491.349 692.392 491.397 693.176 491.494V489.625C693.176 488.11 692.698 487.353 691.742 487.353H691.678C691.603 487.342 691.533 487.337 691.468 487.337C690.426 487.337 689.905 488.186 689.905 489.883V490.125L686.07 489.802C686.07 486.053 687.875 484.179 691.484 484.179H691.823ZM693.176 496.908V494.072C692.714 493.976 692.295 493.927 691.919 493.927C690.942 493.927 690.276 494.255 689.921 494.91C689.707 495.308 689.599 495.678 689.599 496.022C689.599 496.452 689.771 496.833 690.115 497.166C690.383 497.424 690.732 497.553 691.162 497.553C691.71 497.553 692.381 497.338 693.176 496.908ZM716.734 484.598C716.616 489.818 716.503 495.437 716.396 501.452H712.963V487.756H708.677V500.904L704.568 500.888C704.687 498.052 704.746 495.275 704.746 492.558C704.746 489.84 704.687 487.187 704.568 484.598H708.5L708.339 484.453L712.625 484.598V484.324L716.734 484.598ZM717.717 484.582L721.938 484.243C721.842 487.466 721.793 490.119 721.793 492.203C721.793 492.987 721.804 493.691 721.826 494.314C721.869 496.613 722.384 497.794 723.373 497.859C723.437 497.87 723.496 497.875 723.55 497.875C724.431 497.875 724.989 497.37 725.226 496.36C725.354 495.77 725.419 494.368 725.419 492.155C725.419 490.382 725.376 488.094 725.29 485.291L729.254 485C729.297 488.277 729.318 491.091 729.318 493.444C729.318 496.376 729.286 498.589 729.222 500.083C729.114 502.768 728.346 504.809 726.917 506.206C725.628 507.473 723.818 508.107 721.487 508.107C721.219 508.107 720.945 508.096 720.666 508.075L720.214 504.143C720.418 504.154 720.617 504.159 720.811 504.159C722.615 504.159 723.851 503.842 724.517 503.208C725.204 502.553 725.548 501.5 725.548 500.05V499.792C724.936 500.759 723.996 501.243 722.728 501.243H722.502C721.117 501.178 720.042 500.636 719.28 499.615C718.517 498.584 718.098 497.145 718.023 495.297C717.958 493.438 717.856 489.867 717.717 484.582ZM737.294 494.556L741.129 494.797C741.129 498.675 739.341 500.641 735.764 500.695C735.721 500.706 735.683 500.711 735.651 500.711C732.246 500.711 730.543 498.127 730.543 492.96V492.477C730.65 486.934 732.466 484.136 735.989 484.082H736.118C739.362 484.082 740.984 485.94 740.984 489.657C740.984 489.872 740.979 490.087 740.968 490.302L737.504 490.56V490.173C737.504 488.218 736.951 487.24 735.844 487.24C734.716 487.24 734.152 488.825 734.152 491.994V492.525C734.217 495.952 734.786 497.666 735.86 497.666H735.957C736.892 497.59 737.359 496.876 737.359 495.522C737.359 495.232 737.337 494.91 737.294 494.556ZM742.596 487.53V484.517C743.885 484.539 745.163 484.549 746.431 484.549C748.396 484.549 750.325 484.517 752.215 484.453L752.328 487.659H749.009C749.009 493.095 749.073 497.402 749.202 500.582L745.496 500.743C745.689 495.318 745.829 490.898 745.915 487.482L742.596 487.53ZM760.369 501.291C760.541 499.196 760.653 496.978 760.707 494.636C760.567 494.615 760.428 494.604 760.288 494.604C759.601 494.604 759.01 494.894 758.516 495.474C758.075 496 757.855 497.424 757.855 499.744C757.855 500.518 757.876 501.388 757.919 502.354L753.875 502.306V501.807C753.875 498.154 754.16 495.877 754.729 494.975C755.331 494.04 756.211 493.503 757.372 493.363C755.707 492.901 754.616 491.827 754.101 490.141C753.95 489.625 753.875 489.12 753.875 488.626C753.875 487.541 754.267 486.547 755.051 485.645C755.889 484.689 757.839 484.211 760.9 484.211C761.996 484.211 763.237 484.27 764.623 484.388C764.494 487.869 764.429 491.317 764.429 494.733C764.429 496.957 764.456 499.169 764.51 501.372L760.369 501.291ZM761.078 487.079C760.745 487.047 760.428 487.031 760.127 487.031C758.849 487.031 758.054 487.358 757.742 488.014C757.56 488.39 757.468 488.771 757.468 489.158C757.468 489.62 757.586 490.087 757.823 490.56C758.274 491.462 759.332 491.945 760.997 492.01L761.078 487.079ZM769.875 484.404L769.811 490.753C771.283 488.476 772.674 486.279 773.984 484.163L777.69 484.582C775.746 487.289 774.049 489.851 772.599 492.268C773.823 494.47 775.504 497.333 777.642 500.856L773.646 501.243C772.443 498.632 771.089 496.183 769.585 493.895V500.083L766.057 500.147C766.132 494.432 766.169 489.292 766.169 484.727L769.875 484.404ZM782.911 484.533C782.804 487.562 782.691 490.833 782.573 494.346L786.649 484.807L790.468 484.839C790.468 485.505 790.468 486.171 790.468 486.837C790.468 491.768 790.683 496.65 791.113 501.484L786.746 501.436C786.918 498.235 787.02 495.104 787.052 492.042L783.233 500.953L779.076 500.792C779.227 498.02 779.302 495.157 779.302 492.203C779.302 489.646 779.248 487.02 779.141 484.324L782.911 484.533ZM806.727 487.981V492.01H798.67V487.981H806.727ZM826.336 484.598C826.218 489.818 826.105 495.437 825.998 501.452H822.566V487.756H818.28V500.904L814.171 500.888C814.289 498.052 814.348 495.275 814.348 492.558C814.348 489.84 814.289 487.187 814.171 484.598H818.103L817.941 484.453L822.228 484.598V484.324L826.336 484.598ZM827.448 507.624C827.513 504.003 827.545 500.152 827.545 496.07C827.545 492.354 827.518 488.454 827.464 484.372L831.283 484.356L831.412 486.837C832.207 485.634 833.265 485.033 834.586 485.033C837.884 485.033 839.533 487.638 839.533 492.848V493.17C839.458 498.391 837.814 501.001 834.603 501.001C834.474 501.001 834.345 500.996 834.216 500.985C833.12 500.931 832.234 500.335 831.557 499.196C831.557 501.581 831.616 504.39 831.734 507.624H827.448ZM831.477 490.141L831.557 496.199C832.18 497.048 832.809 497.472 833.442 497.472C833.7 497.472 833.958 497.397 834.216 497.247C835 496.817 835.392 495.533 835.392 493.396C835.392 493.138 835.387 492.869 835.376 492.59C835.269 489.969 834.748 488.588 833.813 488.449C833.716 488.438 833.625 488.433 833.539 488.433C832.723 488.433 832.035 489.002 831.477 490.141ZM846.494 484.646C850.146 484.646 851.973 487.181 851.973 492.251C851.973 492.456 851.967 492.66 851.957 492.864C851.806 498.353 849.862 501.125 846.124 501.178C846.081 501.189 846.038 501.194 845.995 501.194C842.439 501.194 840.661 498.6 840.661 493.412V492.96C840.769 487.417 842.713 484.646 846.494 484.646ZM845.962 488.32C845.286 488.556 844.824 489.432 844.577 490.946C844.426 491.849 844.351 492.756 844.351 493.669C844.351 494.282 844.383 494.899 844.448 495.522C844.62 497.069 845.173 497.87 846.107 497.923H846.22C847.09 497.923 847.687 497.349 848.009 496.199C848.277 495.243 848.412 494.11 848.412 492.799C848.412 492.477 848.406 492.149 848.396 491.816C848.31 490.087 848.052 489.007 847.622 488.578C847.354 488.32 847.031 488.191 846.655 488.191C846.44 488.191 846.209 488.234 845.962 488.32ZM859.465 494.556L863.3 494.797C863.3 498.675 861.512 500.641 857.935 500.695C857.892 500.706 857.854 500.711 857.822 500.711C854.417 500.711 852.714 498.127 852.714 492.96V492.477C852.821 486.934 854.637 484.136 858.16 484.082H858.289C861.533 484.082 863.155 485.94 863.155 489.657C863.155 489.872 863.15 490.087 863.139 490.302L859.675 490.56V490.173C859.675 488.218 859.122 487.24 858.015 487.24C856.887 487.24 856.323 488.825 856.323 491.994V492.525C856.388 495.952 856.957 497.666 858.031 497.666H858.128C859.062 497.59 859.53 496.876 859.53 495.522C859.53 495.232 859.508 494.91 859.465 494.556ZM864.767 487.53V484.517C866.056 484.539 867.334 484.549 868.602 484.549C870.567 484.549 872.496 484.517 874.386 484.453L874.499 487.659H871.18C871.18 493.095 871.244 497.402 871.373 500.582L867.667 500.743C867.86 495.318 868 490.898 868.086 487.482L864.767 487.53ZM881.589 484.646C885.241 484.646 887.067 487.181 887.067 492.251C887.067 492.456 887.062 492.66 887.051 492.864C886.901 498.353 884.957 501.125 881.218 501.178C881.175 501.189 881.132 501.194 881.089 501.194C877.534 501.194 875.756 498.6 875.756 493.412V492.96C875.863 487.417 877.808 484.646 881.589 484.646ZM881.057 488.32C880.38 488.556 879.918 489.432 879.671 490.946C879.521 491.849 879.446 492.756 879.446 493.669C879.446 494.282 879.478 494.899 879.542 495.522C879.714 497.069 880.268 497.87 881.202 497.923H881.315C882.185 497.923 882.781 497.349 883.104 496.199C883.372 495.243 883.506 494.11 883.506 492.799C883.506 492.477 883.501 492.149 883.49 491.816C883.404 490.087 883.146 489.007 882.717 488.578C882.448 488.32 882.126 488.191 881.75 488.191C881.535 488.191 881.304 488.234 881.057 488.32ZM906.291 484.598C906.172 489.818 906.06 495.437 905.952 501.452H902.52V487.756H898.234V500.904L894.125 500.888C894.243 498.052 894.302 495.275 894.302 492.558C894.302 489.84 894.243 487.187 894.125 484.598H898.057L897.896 484.453L902.182 484.598V484.324L906.291 484.598ZM907.273 484.582L911.495 484.243C911.398 487.466 911.35 490.119 911.35 492.203C911.35 492.987 911.361 493.691 911.382 494.314C911.425 496.613 911.941 497.794 912.929 497.859C912.994 497.87 913.053 497.875 913.106 497.875C913.987 497.875 914.546 497.37 914.782 496.36C914.911 495.77 914.976 494.368 914.976 492.155C914.976 490.382 914.933 488.094 914.847 485.291L918.811 485C918.854 488.277 918.875 491.091 918.875 493.444C918.875 496.376 918.843 498.589 918.778 500.083C918.671 502.768 917.903 504.809 916.474 506.206C915.185 507.473 913.375 508.107 911.044 508.107C910.775 508.107 910.501 508.096 910.222 508.075L909.771 504.143C909.975 504.154 910.174 504.159 910.367 504.159C912.172 504.159 913.407 503.842 914.073 503.208C914.761 502.553 915.104 501.5 915.104 500.05V499.792C914.492 500.759 913.552 501.243 912.285 501.243H912.059C910.673 501.178 909.599 500.636 908.836 499.615C908.074 498.584 907.655 497.145 907.58 495.297C907.515 493.438 907.413 489.867 907.273 484.582ZM920.39 487.53V484.517C921.679 484.539 922.957 484.549 924.225 484.549C926.19 484.549 928.119 484.517 930.009 484.453L930.122 487.659H926.803C926.803 493.095 926.867 497.402 926.996 500.582L923.29 500.743C923.483 495.318 923.623 490.898 923.709 487.482L920.39 487.53ZM936.777 484.646C940.504 484.646 942.368 487.122 942.368 492.074C942.368 492.676 942.341 493.32 942.288 494.008H935.085C935.085 496.769 935.617 498.149 936.68 498.149H936.793C937.728 498.074 938.195 497.359 938.195 496.006C938.195 495.716 938.173 495.394 938.13 495.039L941.965 494.958C941.965 499.051 940.177 501.125 936.6 501.178C936.557 501.189 936.519 501.194 936.487 501.194C933.082 501.194 931.379 498.611 931.379 493.444V492.96C931.486 487.417 933.286 484.646 936.777 484.646ZM934.698 491.043H938.34V490.656C938.34 488.701 937.787 487.724 936.68 487.724C935.488 487.724 934.827 488.83 934.698 491.043ZM958.046 501.065L957.982 498.487C957.402 499.723 956.73 500.491 955.968 500.792C955.517 500.963 955.06 501.049 954.598 501.049C954.254 501.049 953.911 501.006 953.567 500.92C952.729 500.706 952.133 499.846 951.778 498.342C951.499 499.513 951.016 500.297 950.328 500.695C949.641 501.082 948.878 501.28 948.04 501.291H947.976C947.159 501.291 946.375 501.092 945.623 500.695C944.86 500.287 944.275 499.524 943.867 498.407C943.469 497.279 943.26 495.737 943.238 493.782V484.42L946.719 484.34C946.579 487.874 946.509 490.882 946.509 493.363C946.509 495.845 946.982 497.182 947.927 497.375C948.067 497.397 948.201 497.408 948.33 497.408C949.082 497.408 949.662 496.924 950.07 495.958C950.135 494.84 950.167 493.535 950.167 492.042C950.167 490.012 950.108 487.643 949.99 484.936L954.018 484.904C953.868 489.061 953.792 492.09 953.792 493.992V494.185C953.803 496.065 954.174 497.053 954.904 497.15H955.114C955.769 497.15 956.403 496.774 957.015 496.022L956.983 484.227L960.786 484.082V486.725C960.786 491.408 960.855 496.086 960.995 500.759L958.046 501.065ZM967.199 484.646C970.926 484.646 972.79 487.122 972.79 492.074C972.79 492.676 972.763 493.32 972.709 494.008H965.507C965.507 496.769 966.039 498.149 967.102 498.149H967.215C968.149 498.074 968.617 497.359 968.617 496.006C968.617 495.716 968.595 495.394 968.552 495.039L972.387 494.958C972.387 499.051 970.599 501.125 967.021 501.178C966.979 501.189 966.941 501.194 966.909 501.194C963.503 501.194 961.801 498.611 961.801 493.444V492.96C961.908 487.417 963.708 484.646 967.199 484.646ZM965.12 491.043H968.762V490.656C968.762 488.701 968.208 487.724 967.102 487.724C965.91 487.724 965.249 488.83 965.12 491.043ZM980.605 494.556L984.44 494.797C984.44 498.675 982.651 500.641 979.074 500.695C979.031 500.706 978.994 500.711 978.961 500.711C975.556 500.711 973.854 498.127 973.854 492.96V492.477C973.961 486.934 975.776 484.136 979.3 484.082H979.429C982.673 484.082 984.295 485.94 984.295 489.657C984.295 489.872 984.29 490.087 984.279 490.302L980.814 490.56V490.173C980.814 488.218 980.261 487.24 979.155 487.24C978.027 487.24 977.463 488.825 977.463 491.994V492.525C977.527 495.952 978.097 497.666 979.171 497.666H979.268C980.202 497.59 980.669 496.876 980.669 495.522C980.669 495.232 980.648 494.91 980.605 494.556ZM985.906 487.53V484.517C987.195 484.539 988.474 484.549 989.741 484.549C991.707 484.549 993.635 484.517 995.526 484.453L995.639 487.659H992.319C992.319 493.095 992.384 497.402 992.513 500.582L988.807 500.743C989 495.318 989.14 490.898 989.226 487.482L985.906 487.53ZM1000.89 487.127L1001 491.994C1002.74 491.918 1003.85 491.435 1004.32 490.543C1004.57 490.082 1004.69 489.625 1004.69 489.174C1004.69 488.798 1004.6 488.422 1004.42 488.046C1004.09 487.401 1003.24 487.079 1001.89 487.079C1001.59 487.079 1001.26 487.095 1000.89 487.127ZM1001.17 494.314V498.117C1001.38 498.117 1001.58 498.117 1001.78 498.117C1003.53 498.117 1004.64 497.735 1005.1 496.973C1005.34 496.543 1005.47 496.151 1005.47 495.796C1005.47 495.463 1005.35 495.168 1005.11 494.91C1004.71 494.491 1003.77 494.282 1002.29 494.282C1001.95 494.282 1001.57 494.292 1001.17 494.314ZM997.282 500.985C997.314 498.879 997.331 496.806 997.331 494.765C997.331 491.252 997.277 487.842 997.169 484.533C998.759 484.394 1000.16 484.324 1001.36 484.324C1003.56 484.324 1005.09 484.555 1005.95 485.017C1007.26 485.726 1008 486.682 1008.17 487.885C1008.21 488.196 1008.22 488.497 1008.22 488.787C1008.22 489.604 1008.05 490.318 1007.71 490.93C1007.23 491.747 1006.39 492.332 1005.16 492.687C1006.53 492.858 1007.5 493.256 1008.09 493.879C1008.59 494.405 1008.84 495.157 1008.84 496.135C1008.84 496.328 1008.82 496.527 1008.8 496.731C1008.7 498.009 1008.19 498.965 1007.29 499.599C1006.4 500.233 1005.15 500.668 1003.55 500.904C1002.66 501.033 1001.61 501.098 1000.39 501.098C999.447 501.098 998.41 501.06 997.282 500.985ZM1009.85 484.582L1014.07 484.243C1013.98 487.466 1013.93 490.119 1013.93 492.203C1013.93 492.987 1013.94 493.691 1013.96 494.314C1014 496.613 1014.52 497.794 1015.51 497.859C1015.57 497.87 1015.63 497.875 1015.68 497.875C1016.56 497.875 1017.12 497.37 1017.36 496.36C1017.49 495.77 1017.55 494.368 1017.55 492.155C1017.55 490.382 1017.51 488.094 1017.42 485.291L1021.39 485C1021.43 488.277 1021.45 491.091 1021.45 493.444C1021.45 496.376 1021.42 498.589 1021.36 500.083C1021.25 502.768 1020.48 504.809 1019.05 506.206C1017.76 507.473 1015.95 508.107 1013.62 508.107C1013.35 508.107 1013.08 508.096 1012.8 508.075L1012.35 504.143C1012.55 504.154 1012.75 504.159 1012.94 504.159C1014.75 504.159 1015.98 503.842 1016.65 503.208C1017.34 502.553 1017.68 501.5 1017.68 500.05V499.792C1017.07 500.759 1016.13 501.243 1014.86 501.243H1014.64C1013.25 501.178 1012.18 500.636 1011.41 499.615C1010.65 498.584 1010.23 497.145 1010.16 495.297C1010.09 493.438 1009.99 489.867 1009.85 484.582ZM1026.8 484.533C1026.69 487.562 1026.58 490.833 1026.46 494.346L1030.54 484.807L1034.36 484.839C1034.36 485.505 1034.36 486.171 1034.36 486.837C1034.36 491.768 1034.57 496.65 1035 501.484L1030.64 501.436C1030.81 498.235 1030.91 495.104 1030.94 492.042L1027.12 500.953L1022.97 500.792C1023.12 498.02 1023.19 495.157 1023.19 492.203C1023.19 489.646 1023.14 487.02 1023.03 484.324L1026.8 484.533ZM1024.16 477.024H1027.06C1027.06 478.313 1027.7 478.958 1028.99 478.958C1030.28 478.958 1030.93 478.313 1030.93 477.024H1033.83C1033.83 480.247 1032.22 481.858 1028.99 481.858C1025.77 481.858 1024.16 480.247 1024.16 477.024ZM1036.66 487.53V484.517C1037.95 484.539 1039.23 484.549 1040.5 484.549C1042.46 484.549 1044.39 484.517 1046.28 484.453L1046.4 487.659H1043.08C1043.08 493.095 1043.14 497.402 1043.27 500.582L1039.56 500.743C1039.76 495.318 1039.9 490.898 1039.98 487.482L1036.66 487.53ZM1053.05 484.646C1056.78 484.646 1058.64 487.122 1058.64 492.074C1058.64 492.676 1058.61 493.32 1058.56 494.008H1051.36C1051.36 496.769 1051.89 498.149 1052.95 498.149H1053.07C1054 498.074 1054.47 497.359 1054.47 496.006C1054.47 495.716 1054.45 495.394 1054.4 495.039L1058.24 494.958C1058.24 499.051 1056.45 501.125 1052.87 501.178C1052.83 501.189 1052.79 501.194 1052.76 501.194C1049.35 501.194 1047.65 498.611 1047.65 493.444V492.96C1047.76 487.417 1049.56 484.646 1053.05 484.646ZM1050.97 491.043H1054.61V490.656C1054.61 488.701 1054.06 487.724 1052.95 487.724C1051.76 487.724 1051.1 488.83 1050.97 491.043ZM1062.01 501.275C1061.36 501.275 1060.81 501.044 1060.35 500.582C1059.89 500.12 1059.66 499.567 1059.66 498.922C1059.66 498.267 1059.89 497.708 1060.35 497.247C1060.81 496.785 1061.36 496.554 1062.01 496.554C1062.66 496.554 1063.22 496.785 1063.69 497.247C1064.15 497.708 1064.38 498.267 1064.38 498.922C1064.38 499.567 1064.15 500.12 1063.69 500.582C1063.22 501.044 1062.66 501.275 1062.01 501.275ZM1063.99 478.587C1063.84 484.055 1063.74 489.458 1063.69 494.797L1060.11 494.878C1060 490.302 1059.88 484.872 1059.74 478.587H1063.99Z" fill="#282828"/>
</svg>
