<svg width="90" height="81" viewBox="0 0 90 81" fill="none" xmlns="http://www.w3.org/2000/svg">
<path d="M88.5 53.2499C89.3284 53.2499 90 52.5782 90 51.7499V39.7499C90 38.9215 89.3284 38.2499 88.5 38.2499H69.621L79.0605 28.8104C79.6461 28.2246 79.6461 27.2751 79.0605 26.6894L70.8645 18.4934C70.2787 17.9078 69.3292 17.9078 68.7435 18.4934C66.3999 20.8369 62.6001 20.8369 60.2565 18.4934C57.9129 16.1498 57.9129 12.3499 60.2565 10.0064C60.8421 9.4206 60.8421 8.47111 60.2565 7.88536L53.5605 1.18935C52.9748 0.603792 52.0252 0.603792 51.4395 1.18935L14.379 38.2499H1.5C0.671625 38.2499 0 38.9215 0 39.7499V51.7499C0 52.5782 0.671625 53.2499 1.5 53.2499C4.81369 53.2499 7.5 55.9362 7.5 59.2499C7.5 62.5635 4.81369 65.2499 1.5 65.2499C0.671625 65.2499 0 65.9215 0 66.7499V78.7499C0 79.5782 0.671625 80.2499 1.5 80.2499H88.5C89.3284 80.2499 90 79.5782 90 78.7499V66.7499C90 65.9215 89.3284 65.2499 88.5 65.2499C85.1863 65.2499 82.5 62.5635 82.5 59.2499C82.5 55.9362 85.1863 53.2499 88.5 53.2499ZM52.5 4.37086L57.162 9.03286C54.2724 13.0772 55.2086 18.6983 59.253 21.5879C62.3826 23.824 66.5874 23.824 69.717 21.5879L75.879 27.7499L65.379 38.2499H60.621L64.0605 34.8104C64.6461 34.2246 64.6461 33.2751 64.0605 32.6894L47.5605 16.1894C46.9748 15.6038 46.0252 15.6038 45.4395 16.1894L23.379 38.2499H18.621L52.5 4.37086ZM56.379 38.2499H27.621L46.5 19.3709L60.879 33.7499L56.379 38.2499ZM79.6162 60.7416C80.2523 64.525 83.2166 67.4894 87 68.1254V77.2499H75V71.2499H72V77.2499H18V75.7499H15V77.2499H3V68.1254C7.90181 67.3015 11.2076 62.6599 10.3837 57.7581C9.74775 53.9747 6.78356 51.0104 3 50.3744V41.2499H15V45.7499H18V41.2499H87V50.3744C82.0982 51.1982 78.7924 55.84 79.6162 60.7416Z" fill="#00AE00"/>
<path d="M75 44.2498H72V50.2498H75V44.2498Z" fill="#00AE00"/>
<path d="M75 53.2498H72V59.2498H75V53.2498Z" fill="#00AE00"/>
<path d="M75 62.2498H72V68.2498H75V62.2498Z" fill="#00AE00"/>
<path d="M18 48.7498H15V54.7498H18V48.7498Z" fill="#00AE00"/>
<path d="M18 57.7498H15V63.7498H18V57.7498Z" fill="#00AE00"/>
<path d="M18 66.7498H15V72.7498H18V66.7498Z" fill="#00AE00"/>
<path d="M66 48.7498C64.3431 48.7498 63 47.4068 63 45.7498C63 44.9214 62.3284 44.2498 61.5 44.2498H28.5C27.6716 44.2498 27 44.9214 27 45.7498C27 47.4068 25.6569 48.7498 24 48.7498C23.1716 48.7498 22.5 49.4214 22.5 50.2498V68.2498C22.5 69.0782 23.1716 69.7498 24 69.7498C25.6569 69.7498 27 71.0929 27 72.7498C27 73.5782 27.6716 74.2498 28.5 74.2498H61.5C62.3284 74.2498 63 73.5782 63 72.7498C63 71.0929 64.3431 69.7498 66 69.7498C66.8284 69.7498 67.5 69.0782 67.5 68.2498V50.2498C67.5 49.4214 66.8284 48.7498 66 48.7498ZM64.5 66.9388C62.3882 67.4889 60.7391 69.138 60.189 71.2498H29.811C29.2609 69.138 27.6118 67.4889 25.5 66.9388V51.5608C27.6118 51.0107 29.2609 49.3616 29.811 47.2498H60.189C60.7391 49.3616 62.3882 51.0107 64.5 51.5608V66.9388Z" fill="#00AE00"/>
</svg>
