<svg width="33" height="33" viewBox="0 0 33 33" fill="none" xmlns="http://www.w3.org/2000/svg">
<g clip-path="url(#clip0)">
<path d="M16.478 0C7.39219 0 0 7.39219 0 16.478C0 25.5638 7.39219 32.956 16.478 32.956C25.5638 32.956 32.956 25.5638 32.956 16.478C32.956 7.39219 25.5638 0 16.478 0ZM16.478 4.80611C20.8315 4.80611 24.3737 8.3483 24.3737 12.7018C24.3737 17.0554 20.8315 20.5975 16.478 20.5975C12.1245 20.5975 8.58227 17.0553 8.58227 12.7018C8.58227 8.34823 12.1245 4.80611 16.478 4.80611ZM16.478 30.2096C11.9912 30.2096 8.01243 28.0369 5.50513 24.6988C8.25207 23.3771 12.1749 21.9706 16.478 21.9706C20.7814 21.9706 24.7046 23.3773 27.4509 24.6987C24.9436 28.0369 20.9649 30.2096 16.478 30.2096Z" fill="white"/>
</g>
<defs>
<clipPath id="clip0">
<rect width="32.956" height="32.956" fill="white"/>
</clipPath>
</defs>
</svg>
