<svg width="95" height="35" viewBox="0 0 95 35" fill="none" xmlns="http://www.w3.org/2000/svg">
<path d="M17.5 0C7.85066 0 0 7.85066 0 17.5C0 27.1493 7.85066 35 17.5 35C27.1493 35 35 27.1493 35 17.5C35 7.85066 27.1493 0 17.5 0ZM17.5 5.10419C22.1235 5.10419 25.8854 8.86607 25.8854 13.4896C25.8854 18.1132 22.1235 21.875 17.5 21.875C12.8765 21.875 9.11456 18.1131 9.11456 13.4896C9.11456 8.866 12.8765 5.10419 17.5 5.10419ZM17.5 32.0833C12.7349 32.0833 8.50937 29.7758 5.84657 26.2307C8.76388 24.827 12.93 23.3333 17.5 23.3333C22.0703 23.3333 26.2368 24.8272 29.1535 26.2306C26.4907 29.7758 22.2652 32.0833 17.5 32.0833Z" fill="white"/>
<path d="M48.8086 11.021L48.894 16.2578C50.4077 16.1764 51.368 15.6597 51.7749 14.7075C51.9946 14.203 52.1045 13.7065 52.1045 13.2183C52.1045 12.8114 52.0231 12.4085 51.8604 12.0098C51.5755 11.318 50.8472 10.9722 49.6753 10.9722C49.4149 10.9722 49.126 10.9884 48.8086 11.021ZM49.0405 18.7725V22.8618C49.2277 22.87 49.4067 22.874 49.5776 22.874C51.0913 22.874 52.0475 22.459 52.4463 21.6289C52.666 21.165 52.7759 20.7459 52.7759 20.3716C52.7759 20.0054 52.6701 19.6839 52.4585 19.4072C52.1086 18.9596 51.2948 18.7358 50.0171 18.7358C49.716 18.7358 49.3905 18.748 49.0405 18.7725ZM45.6714 25.9624C45.7039 23.6919 45.7202 21.458 45.7202 19.2607C45.7202 15.4684 45.6714 11.786 45.5737 8.21338C46.9572 8.06689 48.1698 7.99365 49.2114 7.99365C51.1239 7.99365 52.4504 8.24186 53.1909 8.73828C54.3302 9.50326 54.9731 10.5368 55.1196 11.8389C55.1522 12.1725 55.1685 12.494 55.1685 12.8032C55.1685 13.6903 55.0179 14.4593 54.7168 15.1104C54.3018 15.9974 53.5653 16.6322 52.5073 17.0146C53.6873 17.1937 54.5337 17.6209 55.0464 18.2964C55.4777 18.866 55.6934 19.6799 55.6934 20.7378C55.6934 20.9412 55.6852 21.1528 55.6689 21.3726C55.5713 22.756 55.1318 23.7896 54.3506 24.4731C53.5775 25.1567 52.4992 25.6247 51.1157 25.877C50.3345 26.0153 49.4189 26.0845 48.3691 26.0845C47.5472 26.0845 46.6479 26.0438 45.6714 25.9624ZM60.9912 13.853C63.7581 13.853 65.1416 15.7736 65.1416 19.6147C65.1416 19.7694 65.1375 19.924 65.1294 20.0786C65.0155 24.2371 63.5425 26.3368 60.7104 26.3774C60.6779 26.3856 60.6453 26.3896 60.6128 26.3896C57.9191 26.3896 56.5723 24.4243 56.5723 20.4937V20.1519C56.6536 15.9526 58.1266 13.853 60.9912 13.853ZM60.5884 16.6362C60.0757 16.8153 59.7257 17.4785 59.5386 18.626C59.4246 19.3096 59.3677 19.9972 59.3677 20.689C59.3677 21.1528 59.3921 21.6208 59.4409 22.0928C59.5711 23.2646 59.9902 23.8709 60.6982 23.9116H60.7837C61.4429 23.9116 61.8945 23.4762 62.1387 22.6055C62.3421 21.8812 62.4438 21.0226 62.4438 20.0298C62.4438 19.7856 62.4398 19.5374 62.4316 19.2852C62.3665 17.9749 62.1712 17.1571 61.8457 16.8315C61.6423 16.6362 61.3981 16.5386 61.1133 16.5386C60.9505 16.5386 60.7756 16.5711 60.5884 16.6362ZM68.8281 13.7676C68.7467 16.0625 68.6613 18.5405 68.5718 21.2017L71.6602 13.9751L74.5532 13.9995C74.5532 14.5041 74.5532 15.0086 74.5532 15.5132C74.5532 19.2485 74.716 22.9473 75.0415 26.6094L71.7334 26.5728C71.8636 24.1476 71.9409 21.7754 71.9653 19.4561L69.0723 26.2065L65.9229 26.0845C66.0368 23.9849 66.0938 21.8161 66.0938 19.5781C66.0938 17.6413 66.0531 15.6515 65.9717 13.6089L68.8281 13.7676ZM66.8262 8.0791H69.0234C69.0234 9.05566 69.5117 9.54395 70.4883 9.54395C71.4648 9.54395 71.9531 9.05566 71.9531 8.0791H74.1504C74.1504 10.5205 72.9297 11.7412 70.4883 11.7412C68.0469 11.7412 66.8262 10.5205 66.8262 8.0791ZM76.2988 16.0381V13.7554C77.2754 13.7716 78.2438 13.7798 79.2041 13.7798C80.6934 13.7798 82.1541 13.7554 83.5864 13.7065L83.6719 16.1357H81.1572C81.1572 20.2536 81.2061 23.5169 81.3037 25.9258L78.4961 26.0479C78.6426 21.9382 78.7484 18.5894 78.8135 16.0015L76.2988 16.0381ZM87.749 13.7676C87.6676 16.0625 87.5822 18.5405 87.4927 21.2017L90.5811 13.9751L93.4741 13.9995C93.4741 14.5041 93.4741 15.0086 93.4741 15.5132C93.4741 19.2485 93.6369 22.9473 93.9624 26.6094L90.6543 26.5728C90.7845 24.1476 90.8618 21.7754 90.8862 19.4561L87.9932 26.2065L84.8438 26.0845C84.9577 23.9849 85.0146 21.8161 85.0146 19.5781C85.0146 17.6413 84.974 15.6515 84.8926 13.6089L87.749 13.7676Z" fill="white"/>
</svg>
