<svg width="60" height="60" viewBox="0 0 60 60" fill="none" xmlns="http://www.w3.org/2000/svg">
<g clip-path="url(#clip0)">
<path d="M30.0002 60.0004C46.5681 60.0004 59.999 46.5695 59.999 30.0017C59.999 13.4338 46.5681 0.00292969 30.0002 0.00292969C13.4324 0.00292969 0.0014801 13.4338 0.0014801 30.0017C0.0014801 46.5695 13.4324 60.0004 30.0002 60.0004Z" fill="#F3F2F2"/>
<path d="M22.2149 35.7559L24.5104 22.201H28.2268L25.9314 35.7559H22.2149Z" fill="#293688"/>
<path d="M39.1618 22.5515C38.4253 22.2767 37.2714 21.9825 35.8304 21.9825C32.1574 21.9825 29.5702 23.8214 29.5479 26.456C29.5276 28.4032 31.3948 29.4894 32.8054 30.1383C34.252 30.8014 34.7385 31.2269 34.7314 31.8195C34.7224 32.728 33.5756 33.1434 32.507 33.1434C31.0197 33.1429 30.2291 32.9378 29.0084 32.4319L28.5295 32.2159L28.0076 35.2504C28.8759 35.6289 30.4816 35.9571 32.1484 35.9737C36.0548 35.9728 38.5919 34.1567 38.6204 31.3426C38.6345 29.8008 37.6441 28.6274 35.4997 27.6597C34.2004 27.0335 33.4046 26.6152 33.4132 25.9796C33.4132 25.4164 34.0872 24.8139 35.5419 24.8139C36.7573 24.7949 37.6379 25.0584 38.3242 25.3331L38.6568 25.4894L39.1618 22.5515Z" fill="#293688"/>
<path d="M45.4981 22.201C44.6077 22.201 43.9643 22.473 43.573 23.3555L38.0651 35.7564H42L42.765 33.6792H47.4663L47.903 35.7564H51.4012L48.3408 22.2014H45.4983L45.4981 22.201ZM43.809 30.967C44.116 30.1864 45.2893 27.1784 45.2893 27.1784C45.268 27.214 45.5947 26.3941 45.7823 25.8853L46.0339 27.0534C46.0339 27.0534 46.7448 30.2891 46.8941 30.9674H43.809V30.967Z" fill="#293688"/>
<path d="M15.4375 31.4927L15.1101 29.6345C14.4319 27.4683 12.3267 25.1246 9.9678 23.9503L13.2514 35.7559H17.1871L23.0897 22.201H19.1548L15.4375 31.4927Z" fill="#293688"/>
<path d="M5.92746 22.201V22.4199C10.5909 23.5415 13.8285 26.3771 15.1103 29.6346L13.7627 23.3579C13.5377 22.5001 12.856 22.2309 12.0494 22.2012L5.92746 22.201Z" fill="#F7981D"/>
<path d="M29.998 59.9998C41.5767 59.9998 51.6163 53.4364 56.6169 43.8307H3.37953C8.38059 53.4364 18.4198 59.9998 29.998 59.9998Z" fill="#F7981D"/>
<path d="M29.998 0C18.6031 0 8.69226 6.35294 3.61398 15.7106H56.383C51.3041 6.35345 41.3929 0 29.998 0Z" fill="#293688"/>
</g>
<defs>
<clipPath id="clip0">
<rect width="60" height="60" fill="white"/>
</clipPath>
</defs>
</svg>
